<?xml version="1.0" encoding="UTF-8" standalone="no"?>
<svg
   xmlns:dc="http://purl.org/dc/elements/1.1/"
   xmlns:cc="http://creativecommons.org/ns#"
   xmlns:rdf="http://www.w3.org/1999/02/22-rdf-syntax-ns#"
   xmlns:svg="http://www.w3.org/2000/svg"
   xmlns="http://www.w3.org/2000/svg"
   xmlns:xlink="http://www.w3.org/1999/xlink"
   xmlns:sodipodi="http://sodipodi.sourceforge.net/DTD/sodipodi-0.dtd"
   xmlns:inkscape="http://www.inkscape.org/namespaces/inkscape"
   sodipodi:docname="favicon.svg"
   inkscape:version="1.0 (4035a4fb49, 2020-05-01)"
   id="svg872"
   version="1.1"
   viewBox="0 0 8.4666659 8.4666662"
   height="31.999998"
   width="31.999998"
   inkscape:export-filename="/home/santi/Programacion/web/svcezar.com.ar/favicon.png"
   inkscape:export-xdpi="384.00003"
   inkscape:export-ydpi="384.00003">
  <defs
     id="defs866">
    <linearGradient
       inkscape:collect="always"
       id="linearGradient1819">
      <stop
         style="stop-color:#13ffd1;stop-opacity:1"
         offset="0"
         id="stop1815" />
      <stop
         style="stop-color:#99ffec;stop-opacity:1"
         offset="1"
         id="stop1817" />
    </linearGradient>
    <linearGradient
       inkscape:collect="always"
       id="linearGradient1811">
      <stop
         style="stop-color:#00ccff;stop-opacity:1"
         offset="0"
         id="stop1807" />
      <stop
         style="stop-color:#56f1ff;stop-opacity:1"
         offset="1"
         id="stop1809" />
    </linearGradient>
    <linearGradient
       inkscape:collect="always"
       id="linearGradient1789">
      <stop
         style="stop-color:#df1567;stop-opacity:1"
         offset="0"
         id="stop1785" />
      <stop
         style="stop-color:#ff318b;stop-opacity:1"
         offset="1"
         id="stop1787" />
    </linearGradient>
    <linearGradient
       id="linearGradient1498"
       inkscape:collect="always">
      <stop
         id="stop1494"
         offset="0"
         style="stop-color:#00d4aa;stop-opacity:1" />
      <stop
         id="stop1496"
         offset="1"
         style="stop-color:#64858d;stop-opacity:1" />
    </linearGradient>
    <linearGradient
       inkscape:collect="always"
       id="linearGradient1486">
      <stop
         style="stop-color:#c83771;stop-opacity:1;"
         offset="0"
         id="stop1482" />
      <stop
         style="stop-color:#64858d;stop-opacity:1"
         offset="1"
         id="stop1484" />
    </linearGradient>
    <linearGradient
       id="linearGradient7476"
       inkscape:collect="always">
      <stop
         id="stop7472"
         offset="0"
         style="stop-color:#00d4aa;stop-opacity:1;" />
      <stop
         id="stop7474"
         offset="1"
         style="stop-color:#c83771;stop-opacity:1" />
    </linearGradient>
    <clipPath
       id="clipPath6746"
       clipPathUnits="userSpaceOnUse">
      <path
         d="m 214.93591,152.57068 h 9.25939 v 9.25992 h -9.25939 z"
         style="fill:#00d4aa;fill-opacity:1;stroke-width:0.0529167;stroke-linecap:round;stroke-linejoin:round"
         id="path6748" />
    </clipPath>
    <linearGradient
       gradientUnits="userSpaceOnUse"
       y2="157.86246"
       x2="219.6983"
       y1="155.7458"
       x1="219.6983"
       id="linearGradient7478"
       xlink:href="#linearGradient7476"
       inkscape:collect="always" />
    <clipPath
       clipPathUnits="userSpaceOnUse"
       id="clipPath6746-3">
      <path
         id="path6748-5"
         style="fill:#00d4aa;fill-opacity:1;stroke-width:0.0529167;stroke-linecap:round;stroke-linejoin:round"
         d="m 214.93591,152.57068 h 9.25939 v 9.25992 h -9.25939 z" />
    </clipPath>
    <linearGradient
       inkscape:collect="always"
       xlink:href="#linearGradient1498"
       id="linearGradient1492"
       gradientUnits="userSpaceOnUse"
       x1="-9"
       y1="4"
       x2="-9"
       y2="5"
       gradientTransform="matrix(-0.26458333,0,0,-0.26458333,209.90883,152.83526)" />
    <linearGradient
       inkscape:collect="always"
       xlink:href="#linearGradient1486"
       id="linearGradient1506"
       gradientUnits="userSpaceOnUse"
       x1="-9"
       y1="4"
       x2="-9"
       y2="5"
       gradientTransform="matrix(0,-0.99999997,-0.99999997,0,4.9999747,-5.0000125)" />
    <linearGradient
       inkscape:collect="always"
       xlink:href="#linearGradient1789"
       id="linearGradient1791"
       x1="21.999912"
       y1="36.000149"
       x2="21.999912"
       y2="20.000147"
       gradientUnits="userSpaceOnUse" />
    <linearGradient
       inkscape:collect="always"
       xlink:href="#linearGradient1811"
       id="linearGradient1813"
       x1="21.999912"
       y1="28.000147"
       x2="21.999912"
       y2="16.000147"
       gradientUnits="userSpaceOnUse" />
    <linearGradient
       inkscape:collect="always"
       xlink:href="#linearGradient1819"
       id="linearGradient1821"
       x1="27.999912"
       y1="24.000147"
       x2="27.999912"
       y2="8.0001478"
       gradientUnits="userSpaceOnUse" />
  </defs>
  <sodipodi:namedview
     inkscape:window-maximized="1"
     inkscape:window-y="0"
     inkscape:window-x="0"
     inkscape:window-height="713"
     inkscape:window-width="1366"
     inkscape:guide-bbox="true"
     showguides="true"
     inkscape:snap-smooth-nodes="true"
     units="px"
     showgrid="true"
     inkscape:document-rotation="0"
     inkscape:current-layer="layer1"
     inkscape:document-units="px"
     inkscape:cy="25.677765"
     inkscape:cx="10.660778"
     inkscape:zoom="9.183689"
     inkscape:pageshadow="2"
     inkscape:pageopacity="0"
     borderopacity="1.0"
     bordercolor="#666666"
     pagecolor="#ffffff"
     id="base">
    <inkscape:grid
       type="xygrid"
       id="grid960"
       empspacing="4"
       originx="-2.6458279"
       originy="7.9375004" />
  </sodipodi:namedview>
  <metadata
     id="metadata869">
    <rdf:RDF>
      <cc:Work
         rdf:about="">
        <dc:format>image/svg+xml</dc:format>
        <dc:type
           rdf:resource="http://purl.org/dc/dcmitype/StillImage" />
        <dc:title />
      </cc:Work>
    </rdf:RDF>
  </metadata>
  <g
     transform="translate(-217.58174,-144.63318)"
     id="layer1"
     inkscape:groupmode="layer"
     inkscape:label="Capa 1">
    <path
       transform="matrix(0.26458333,0,0,0.26458333,217.58174,144.63318)"
       d="M 14,0 A 1.9999999,1.9999999 0 0 0 12.048828,2 H 12 v 8 a 1.9999999,1.9999999 0 0 1 -1.951172,2 H 10 2 1.9511719 A 1.9999999,1.9999999 0 0 0 0,14 v 8 c 0,5.539994 4.4599684,10 10,10 h 8 0.04883 A 1.9999999,1.9999999 0 0 0 20,30 v -8 a 1.9999999,1.9999999 0 0 1 1.951172,-2 H 22 h 8 0.04883 A 1.9999999,1.9999999 0 0 0 32,18 V 10 C 32,4.4600062 27.540032,0 22,0 h -7.951172 z"
       style="fill:#040624;fill-opacity:1;stroke-width:0.598001;stroke-linecap:round"
       id="rect862" />
    <path
       id="path1780"
       style="opacity:1;fill:url(#linearGradient1791);fill-opacity:1;stroke:none;stroke-width:0.399999;stroke-linecap:round;stroke-linejoin:round;stroke-miterlimit:4;stroke-dasharray:none;stroke-opacity:1;paint-order:markers stroke fill"
       d="m 8,20 v 1 7 a 8.000001,8.000001 0 0 0 8,8 h 7 1 V 35 33 32 H 23 16 A 4.0000004,4.0000004 0 0 1 12,28 V 21 20 H 11 9 Z"
       transform="matrix(0.26458333,0,0,0.26458333,215.99427,143.04564)" />
    <path
       id="path1776"
       style="opacity:1;fill:url(#linearGradient1813);fill-opacity:1;stroke:none;stroke-width:0.399999;stroke-linecap:round;stroke-linejoin:round;stroke-miterlimit:4;stroke-dasharray:none;stroke-opacity:1;paint-order:markers stroke fill"
       d="m 20,16 v 1 7 a 4.0000004,4.0000004 0 0 0 3.939453,4 H 24 v -1 -7 a 4.0000004,4.0000004 0 0 0 -3.939453,-4 z"
       transform="matrix(0.26458333,0,0,0.26458333,215.99427,143.04564)" />
    <path
       id="path1772"
       style="opacity:1;fill:url(#linearGradient1821);fill-opacity:1;stroke:none;stroke-width:0.399999;stroke-linecap:round;stroke-linejoin:round;stroke-miterlimit:4;stroke-dasharray:none;stroke-opacity:1;paint-order:markers stroke fill"
       d="m 20,8 v 1 2 1 h 1 7 a 4.0000003,4.0000003 0 0 1 4,4 v 7 1 h 1 2 1 V 23 16 A 8.000001,8.000001 0 0 0 28,8 h -7 z"
       transform="matrix(0.26458333,0,0,0.26458333,215.99427,143.04564)" />
  </g>
</svg>
