<?xml version="1.0" encoding="UTF-8" standalone="no"?>
<!-- Created with Inkscape (http://www.inkscape.org/) -->

<svg
   width="5.0270829mm"
   height="4.4979167mm"
   viewBox="0 0 5.0270829 4.4979167"
   version="1.1"
   id="svg5"
   inkscape:version="1.1 (c68e22c387, 2021-05-23)"
   sodipodi:docname="quote.svg"
   xmlns:inkscape="http://www.inkscape.org/namespaces/inkscape"
   xmlns:sodipodi="http://sodipodi.sourceforge.net/DTD/sodipodi-0.dtd"
   xmlns="http://www.w3.org/2000/svg"
   xmlns:svg="http://www.w3.org/2000/svg">
  <sodipodi:namedview
     id="namedview7"
     pagecolor="#505050"
     bordercolor="#eeeeee"
     borderopacity="1"
     inkscape:pageshadow="0"
     inkscape:pageopacity="0"
     inkscape:pagecheckerboard="0"
     inkscape:document-units="mm"
     showgrid="true"
     showguides="true"
     inkscape:guide-bbox="true"
     inkscape:zoom="18.827293"
     inkscape:cx="12.720894"
     inkscape:cy="7.1173268"
     inkscape:window-width="1366"
     inkscape:window-height="695"
     inkscape:window-x="0"
     inkscape:window-y="0"
     inkscape:window-maximized="1"
     inkscape:current-layer="layer1">
    <inkscape:grid
       type="xygrid"
       id="grid824"
       originx="-37.835418"
       originy="-1.0583333" />
  </sodipodi:namedview>
  <defs
     id="defs2" />
  <g
     inkscape:label="Capa 1"
     inkscape:groupmode="layer"
     id="layer1"
     transform="translate(-37.835417,-1.0583333)">
    <path
       id="path874"
       style="fill:#ff4294;fill-opacity:1;stroke-width:0.132292;stroke-linecap:square;stroke-linejoin:round;paint-order:markers stroke fill"
       d="m 38.629167,1.0583333 a 0.79374999,0.79374999 0 0 0 -0.79375,0.79375 V 2.38125 2.6458333 h 0.529166 a 0.26458331,0.26458331 0 0 0 0.264584,-0.2645833 0.26458331,0.26458331 0 0 0 0,-5.168e-4 0.26458331,0.26458331 0 0 0 0,-5.167e-4 0.26458331,0.26458331 0 0 0 0,-5.168e-4 0.26458331,0.26458331 0 0 0 0,-5.168e-4 0.26458331,0.26458331 0 0 0 0,-5.167e-4 0.26458331,0.26458331 0 0 0 0,-5.168e-4 0.26458331,0.26458331 0 0 0 0,-5.168e-4 0.26458331,0.26458331 0 0 0 0,-5.167e-4 0.26458331,0.26458331 0 0 0 0,-5.168e-4 0.26458331,0.26458331 0 0 0 0,-5.167e-4 0.26458331,0.26458331 0 0 0 0,-5.168e-4 0.26458331,0.26458331 0 0 0 0,-5.168e-4 0.26458331,0.26458331 0 0 0 0,-5.167e-4 V 1.8520833 H 38.364583 A 0.26458331,0.26458331 0 0 1 38.629167,1.5875 Z m 1.058333,0 a 0.79374999,0.79374999 0 0 0 -0.79375,0.79375 V 2.38125 2.6458333 h 0.529167 A 0.26458332,0.26458332 0 0 0 39.6875,2.38125 a 0.26458332,0.26458332 0 0 0 0,-5.168e-4 0.26458332,0.26458332 0 0 0 0,-5.167e-4 0.26458332,0.26458332 0 0 0 0,-5.168e-4 0.26458332,0.26458332 0 0 0 0,-5.168e-4 0.26458332,0.26458332 0 0 0 0,-5.167e-4 0.26458332,0.26458332 0 0 0 0,-5.168e-4 0.26458332,0.26458332 0 0 0 0,-5.168e-4 0.26458332,0.26458332 0 0 0 0,-5.167e-4 0.26458332,0.26458332 0 0 0 0,-5.168e-4 0.26458332,0.26458332 0 0 0 0,-5.167e-4 0.26458332,0.26458332 0 0 0 0,-5.168e-4 0.26458332,0.26458332 0 0 0 0,-5.168e-4 0.26458332,0.26458332 0 0 0 0,-5.167e-4 V 1.8520833 H 39.422917 A 0.26458331,0.26458331 0 0 1 39.6875,1.5875 Z" />
    <path
       id="path1566"
       style="fill:#18d1ff;fill-opacity:1;stroke-width:0.132292;stroke-linecap:square;stroke-linejoin:round;paint-order:markers stroke fill"
       d="m 42.068745,5.5562502 a 0.79374999,0.79374999 0 0 0 0.79375,-0.79375 v -0.529167 -0.264583 h -0.529166 a 0.26458331,0.26458331 0 0 0 -0.264584,0.264583 0.26458331,0.26458331 0 0 0 0,5.17e-4 0.26458331,0.26458331 0 0 0 0,5.16e-4 0.26458331,0.26458331 0 0 0 0,5.17e-4 0.26458331,0.26458331 0 0 0 0,5.17e-4 0.26458331,0.26458331 0 0 0 0,5.17e-4 0.26458331,0.26458331 0 0 0 0,5.16e-4 0.26458331,0.26458331 0 0 0 0,5.17e-4 0.26458331,0.26458331 0 0 0 0,5.17e-4 0.26458331,0.26458331 0 0 0 0,5.17e-4 0.26458331,0.26458331 0 0 0 0,5.16e-4 0.26458331,0.26458331 0 0 0 0,5.17e-4 0.26458331,0.26458331 0 0 0 0,5.17e-4 0.26458331,0.26458331 0 0 0 0,5.17e-4 v 0.522449 h 0.264584 a 0.26458331,0.26458331 0 0 1 -0.264584,0.264583 z m -1.058333,0 a 0.79374999,0.79374999 0 0 0 0.79375,-0.79375 v -0.529167 -0.264583 h -0.529167 a 0.26458332,0.26458332 0 0 0 -0.264583,0.264583 0.26458332,0.26458332 0 0 0 0,5.17e-4 0.26458332,0.26458332 0 0 0 0,5.16e-4 0.26458332,0.26458332 0 0 0 0,5.17e-4 0.26458332,0.26458332 0 0 0 0,5.17e-4 0.26458332,0.26458332 0 0 0 0,5.17e-4 0.26458332,0.26458332 0 0 0 0,5.16e-4 0.26458332,0.26458332 0 0 0 0,5.17e-4 0.26458332,0.26458332 0 0 0 0,5.17e-4 0.26458332,0.26458332 0 0 0 0,5.17e-4 0.26458332,0.26458332 0 0 0 0,5.16e-4 0.26458332,0.26458332 0 0 0 0,5.17e-4 0.26458332,0.26458332 0 0 0 0,5.17e-4 0.26458332,0.26458332 0 0 0 0,5.17e-4 v 0.522449 h 0.264583 a 0.26458331,0.26458331 0 0 1 -0.264583,0.264583 z" />
    <path
       id="rect4447"
       style="fill:#ff4294;fill-opacity:1;stroke-width:1.00001;stroke-linecap:square;stroke-linejoin:round;paint-order:markers stroke fill"
       d="M 9 0 L 9 2 L 17 2 L 19 2 A 1.9999999 1.9999999 0 0 0 19 1.9980469 A 1.9999999 1.9999999 0 0 0 19 1.9960938 A 1.9999999 1.9999999 0 0 0 19 1.9941406 A 1.9999999 1.9999999 0 0 0 19 1.9921875 A 1.9999999 1.9999999 0 0 0 19 1.9902344 A 1.9999999 1.9999999 0 0 0 19 1.9882812 A 1.9999999 1.9999999 0 0 0 19 1.9863281 A 1.9999999 1.9999999 0 0 0 19 1.984375 A 1.9999999 1.9999999 0 0 0 19 1.9824219 A 1.9999999 1.9999999 0 0 0 19 1.9804688 A 1.9999999 1.9999999 0 0 0 19 1.9785156 A 1.9999999 1.9999999 0 0 0 19 1.9765625 A 1.9999999 1.9999999 0 0 0 19 1.9746094 A 1.9999999 1.9999999 0 0 0 19 1.9726562 A 1.9999999 1.9999999 0 0 0 19 1.9707031 A 1.9999999 1.9999999 0 0 0 19 1.96875 A 1.9999999 1.9999999 0 0 0 19 1.9667969 A 1.9999999 1.9999999 0 0 0 19 1.9648438 A 1.9999999 1.9999999 0 0 0 19 1.9628906 A 1.9999999 1.9999999 0 0 0 19 1.9609375 A 1.9999999 1.9999999 0 0 0 19 1.9589844 A 1.9999999 1.9999999 0 0 0 19 1.9570312 A 1.9999999 1.9999999 0 0 0 19 1.9550781 A 1.9999999 1.9999999 0 0 0 19 1.953125 A 1.9999999 1.9999999 0 0 0 19 1.9511719 A 1.9999999 1.9999999 0 0 0 19 1.9492188 A 1.9999999 1.9999999 0 0 0 17.050781 0 L 17 0 L 9 0 z "
       transform="matrix(0.26458333,0,0,0.26458333,37.835417,1.0583333)" />
    <path
       id="path8027"
       style="fill:#18d1ff;fill-opacity:1;stroke-width:0.264586;stroke-linecap:square;stroke-linejoin:round;paint-order:markers stroke fill"
       d="m 40.481249,5.5562503 v -0.529167 h -2.116666 -0.529167 a 0.52916663,0.52916663 0 0 0 0,5.17e-4 0.52916663,0.52916663 0 0 0 0,5.17e-4 0.52916663,0.52916663 0 0 0 0,5.17e-4 0.52916663,0.52916663 0 0 0 0,5.16e-4 0.52916663,0.52916663 0 0 0 0,5.17e-4 0.52916663,0.52916663 0 0 0 0,5.17e-4 0.52916663,0.52916663 0 0 0 0,5.17e-4 0.52916663,0.52916663 0 0 0 0,5.16e-4 0.52916663,0.52916663 0 0 0 0,5.17e-4 0.52916663,0.52916663 0 0 0 0,5.17e-4 0.52916663,0.52916663 0 0 0 0,5.17e-4 0.52916663,0.52916663 0 0 0 0,5.16e-4 0.52916663,0.52916663 0 0 0 0,5.17e-4 0.52916663,0.52916663 0 0 0 0,5.17e-4 0.52916663,0.52916663 0 0 0 0,5.17e-4 0.52916663,0.52916663 0 0 0 0,5.17e-4 0.52916663,0.52916663 0 0 0 0,5.16e-4 0.52916663,0.52916663 0 0 0 0,5.17e-4 0.52916663,0.52916663 0 0 0 0,5.17e-4 0.52916663,0.52916663 0 0 0 0,5.17e-4 0.52916663,0.52916663 0 0 0 0,5.16e-4 0.52916663,0.52916663 0 0 0 0,5.17e-4 0.52916663,0.52916663 0 0 0 0,5.17e-4 0.52916663,0.52916663 0 0 0 0,5.17e-4 0.52916663,0.52916663 0 0 0 0,5.16e-4 0.52916663,0.52916663 0 0 0 0,5.17e-4 0.52916663,0.52916663 0 0 0 0.515731,0.515731 h 0.01344 z" />
  </g>
</svg>
