<?xml version="1.0" encoding="UTF-8" standalone="no"?>
<svg
   xmlns:dc="http://purl.org/dc/elements/1.1/"
   xmlns:cc="http://creativecommons.org/ns#"
   xmlns:rdf="http://www.w3.org/1999/02/22-rdf-syntax-ns#"
   xmlns:svg="http://www.w3.org/2000/svg"
   xmlns="http://www.w3.org/2000/svg"
   xmlns:sodipodi="http://sodipodi.sourceforge.net/DTD/sodipodi-0.dtd"
   xmlns:inkscape="http://www.inkscape.org/namespaces/inkscape"
   width="40"
   height="40"
   viewBox="0 0 10.583 10.583"
   version="1.1"
   id="svg4"
   sodipodi:docname="tile.svg"
   inkscape:version="1.0.1 (3bc2e813f5, 2020-09-07)">
  <metadata
     id="metadata10">
    <rdf:RDF>
      <cc:Work
         rdf:about="">
        <dc:format>image/svg+xml</dc:format>
        <dc:type
           rdf:resource="http://purl.org/dc/dcmitype/StillImage" />
      </cc:Work>
    </rdf:RDF>
  </metadata>
  <defs
     id="defs8" />
  <sodipodi:namedview
     pagecolor="#ffffff"
     bordercolor="#666666"
     borderopacity="1"
     objecttolerance="10"
     gridtolerance="10"
     guidetolerance="10"
     inkscape:pageopacity="0"
     inkscape:pageshadow="2"
     inkscape:window-width="1366"
     inkscape:window-height="704"
     id="namedview6"
     showgrid="false"
     inkscape:snap-page="true"
     inkscape:zoom="6.3125"
     inkscape:cx="25.51826"
     inkscape:cy="13.427258"
     inkscape:window-x="0"
     inkscape:window-y="27"
     inkscape:window-maximized="1"
     inkscape:current-layer="svg4" />
  <path
     id="rect835"
     style="fill:#ffffff;fill-opacity:1;stroke-width:10;stroke-linecap:round;stroke-linejoin:round;paint-order:stroke markers fill"
     d="M 0 0 L 0 0.70898438 A 8.0015119 8.0015119 0 0 1 2.0039062 6.0019531 L 2.0039062 14 A 3.9988661 3.9988661 0 0 0 2.0039062 14.003906 A 3.9988661 3.9988661 0 0 0 6.0019531 18.001953 L 14.003906 18.001953 A 8.0015119 8.0015119 0 0 1 14.011719 18.001953 A 8.0015119 8.0015119 0 0 1 14.019531 18.001953 A 8.0015119 8.0015119 0 0 1 14.101562 18.001953 A 8.0015119 8.0015119 0 0 1 14.199219 18.001953 A 8.0015119 8.0015119 0 0 1 14.431641 18.013672 A 8.0015119 8.0015119 0 0 1 14.4375 18.013672 A 8.0015119 8.0015119 0 0 1 14.441406 18.013672 A 8.0015119 8.0015119 0 0 1 14.464844 18.013672 A 8.0015119 8.0015119 0 0 1 14.533203 18.021484 A 8.0015119 8.0015119 0 0 1 14.667969 18.033203 A 8.0015119 8.0015119 0 0 1 14.671875 18.033203 A 8.0015119 8.0015119 0 0 1 14.679688 18.033203 A 8.0015119 8.0015119 0 0 1 14.755859 18.041016 A 8.0015119 8.0015119 0 0 1 14.767578 18.041016 A 8.0015119 8.0015119 0 0 1 14.902344 18.054688 A 8.0015119 8.0015119 0 0 1 14.914062 18.054688 A 8.0015119 8.0015119 0 0 1 14.953125 18.058594 A 8.0015119 8.0015119 0 0 1 14.990234 18.066406 A 8.0015119 8.0015119 0 0 1 15.015625 18.066406 A 8.0015119 8.0015119 0 0 1 15.136719 18.085938 A 8.0015119 8.0015119 0 0 1 15.144531 18.085938 A 8.0015119 8.0015119 0 0 1 15.152344 18.085938 A 8.0015119 8.0015119 0 0 1 15.292969 18.107422 A 8.0015119 8.0015119 0 0 1 15.382812 18.123047 A 8.0015119 8.0015119 0 0 1 15.386719 18.123047 A 8.0015119 8.0015119 0 0 1 15.617188 18.167969 A 8.0015119 8.0015119 0 0 1 15.746094 18.195312 A 8.0015119 8.0015119 0 0 1 15.847656 18.21875 A 8.0015119 8.0015119 0 0 1 15.851562 18.21875 A 8.0015119 8.0015119 0 0 1 15.892578 18.228516 A 8.0015119 8.0015119 0 0 1 16.082031 18.279297 A 8.0015119 8.0015119 0 0 1 16.177734 18.304688 A 8.0015119 8.0015119 0 0 1 16.308594 18.337891 A 8.0015119 8.0015119 0 0 1 16.53125 18.414062 A 8.0015119 8.0015119 0 0 1 16.929688 18.558594 A 8.0015119 8.0015119 0 0 1 16.982422 18.576172 A 8.0015119 8.0015119 0 0 1 16.986328 18.576172 A 8.0015119 8.0015119 0 0 1 17.197266 18.667969 A 8.0015119 8.0015119 0 0 1 17.560547 18.833984 A 8.0015119 8.0015119 0 0 1 17.628906 18.871094 A 8.0015119 8.0015119 0 0 1 17.816406 18.970703 A 8.0015119 8.0015119 0 0 1 17.839844 18.984375 A 8.0015119 8.0015119 0 0 1 17.84375 18.984375 A 8.0015119 8.0015119 0 0 1 18.046875 19.101562 A 8.0015119 8.0015119 0 0 1 18.050781 19.101562 A 8.0015119 8.0015119 0 0 1 18.251953 19.222656 A 8.0015119 8.0015119 0 0 1 18.255859 19.222656 A 8.0015119 8.0015119 0 0 1 18.453125 19.351562 A 8.0015119 8.0015119 0 0 0 18.455078 19.351562 A 8.0015119 8.0015119 0 0 1 18.644531 19.488281 A 8.0015119 8.0015119 0 0 1 18.746094 19.5625 A 8.0015119 8.0015119 0 0 1 18.837891 19.626953 A 8.0015119 8.0015119 0 0 1 18.841797 19.626953 A 8.0015119 8.0015119 0 0 1 19.027344 19.779297 A 8.0015119 8.0015119 0 0 1 19.03125 19.779297 A 8.0015119 8.0015119 0 0 1 19.388672 20.085938 A 8.0015119 8.0015119 0 0 1 19.730469 20.417969 A 8.0015119 8.0015119 0 0 1 19.734375 20.417969 A 8.0015119 8.0015119 0 0 1 19.896484 20.587891 A 8.0015119 8.0015119 0 0 1 19.896484 20.591797 A 8.0015119 8.0015119 0 0 1 20.050781 20.761719 A 8.0015119 8.0015119 0 0 1 20.179688 20.912109 A 8.0015119 8.0015119 0 0 1 20.205078 20.951172 A 8.0015119 8.0015119 0 0 1 20.220703 20.96875 A 8.0015119 8.0015119 0 0 1 20.353516 21.132812 A 8.0015119 8.0015119 0 0 1 20.447266 21.259766 A 8.0015119 8.0015119 0 0 1 20.496094 21.324219 A 8.0015119 8.0015119 0 0 1 20.632812 21.521484 A 8.0015119 8.0015119 0 0 1 20.761719 21.720703 A 8.0015119 8.0015119 0 0 1 20.886719 21.921875 A 8.0015119 8.0015119 0 0 1 20.890625 21.921875 A 8.0015119 8.0015119 0 0 1 21.003906 22.128906 A 8.0015119 8.0015119 0 0 1 21.117188 22.337891 A 8.0015119 8.0015119 0 0 1 21.117188 22.341797 A 8.0015119 8.0015119 0 0 1 21.222656 22.548828 A 8.0015119 8.0015119 0 0 1 21.222656 22.552734 A 8.0015119 8.0015119 0 0 1 21.320312 22.769531 A 8.0015119 8.0015119 0 0 1 21.501953 23.207031 A 8.0015119 8.0015119 0 0 1 21.501953 23.210938 A 8.0015119 8.0015119 0 0 1 21.582031 23.429688 A 8.0015119 8.0015119 0 0 1 21.654297 23.65625 A 8.0015119 8.0015119 0 0 1 21.654297 23.660156 A 8.0015119 8.0015119 0 0 1 21.720703 23.886719 A 8.0015119 8.0015119 0 0 1 21.740234 23.962891 A 8.0015119 8.0015119 0 0 1 21.779297 24.113281 A 8.0015119 8.0015119 0 0 1 21.779297 24.121094 A 8.0015119 8.0015119 0 0 1 21.832031 24.347656 A 8.0015119 8.0015119 0 0 1 21.849609 24.443359 A 8.0015119 8.0015119 0 0 1 21.876953 24.578125 A 8.0015119 8.0015119 0 0 1 21.902344 24.738281 A 8.0015119 8.0015119 0 0 1 21.914062 24.8125 A 8.0015119 8.0015119 0 0 1 21.966797 25.240234 A 8.0015119 8.0015119 0 0 1 21.970703 25.289062 A 8.0015119 8.0015119 0 0 1 21.990234 25.527344 A 8.0015119 8.0015119 0 0 1 22.005859 25.761719 A 8.0015119 8.0015119 0 0 1 22.005859 26.003906 L 22.005859 34.005859 A 3.9988661 3.9988661 0 0 0 25.501953 37.974609 A 3.9988661 3.9988661 0 0 0 25.660156 37.988281 A 3.9988661 3.9988661 0 0 0 25.667969 37.988281 A 3.9988661 3.9988661 0 0 0 25.826172 38 A 3.9988661 3.9988661 0 0 0 25.837891 38 A 3.9988661 3.9988661 0 0 0 25.996094 38.003906 A 3.9988661 3.9988661 0 0 0 26.003906 38.003906 L 34.005859 38.003906 A 8.0015119 8.0015119 0 0 1 39.289062 40 L 40 40 L 40 39.289062 C 38.756987 37.879301 37.996094 36.034682 37.996094 34.005859 L 37.996094 26 A 4.0064254 4.0064254 0 0 0 37.683594 24.447266 A 3.9913068 3.9913068 0 0 0 34.009766 22.005859 L 25.996094 22.005859 A 7.9826136 7.9826136 0 0 1 20.337891 19.662109 A 8.0393083 8.0393083 0 0 1 19.363281 18.478516 L 19.367188 18.478516 A 8.0015119 8.0015119 0 0 1 18.628906 17.117188 A 7.9296986 7.9296986 0 0 1 18.162109 15.617188 A 8.0015119 8.0015119 0 0 1 17.998047 14.007812 L 17.998047 6.0058594 A 4.0026458 4.0026458 0 0 0 14.003906 2.0039062 L 6.0019531 2.0039062 C 3.9740339 2.0039062 2.1282194 1.2434266 0.71875 0 L 0 0 z M 19.292969 0 A 8.0015119 8.0015119 0 0 1 22.005859 6.0019531 L 22.005859 14.007812 A 3.9988661 3.9988661 0 0 0 25.494141 17.976562 A 3.9988661 3.9988661 0 0 0 25.501953 17.976562 A 3.9988661 3.9988661 0 0 0 25.660156 17.990234 A 3.9988661 3.9988661 0 0 0 25.667969 17.990234 A 3.9988661 3.9988661 0 0 0 25.826172 18.001953 A 3.9988661 3.9988661 0 0 0 25.837891 18.001953 A 3.9988661 3.9988661 0 0 0 25.996094 18.005859 A 3.9988661 3.9988661 0 0 0 26.003906 18.005859 L 34.005859 18.005859 A 8.0015119 8.0015119 0 0 1 34.417969 18.017578 A 8.0015119 8.0015119 0 0 1 34.435547 18.017578 A 8.0015119 8.0015119 0 0 1 34.669922 18.037109 A 8.0015119 8.0015119 0 0 1 34.908203 18.058594 A 8.0015119 8.0015119 0 0 1 35.376953 18.126953 A 8.0015119 8.0015119 0 0 1 35.380859 18.126953 A 8.0015119 8.0015119 0 0 1 35.611328 18.171875 A 8.0015119 8.0015119 0 0 1 35.740234 18.199219 A 8.0015119 8.0015119 0 0 1 35.841797 18.220703 A 8.0015119 8.0015119 0 0 1 35.845703 18.220703 A 8.0015119 8.0015119 0 0 1 36.072266 18.279297 A 8.0015119 8.0015119 0 0 1 36.171875 18.308594 A 8.0015119 8.0015119 0 0 1 36.302734 18.341797 A 8.0015119 8.0015119 0 0 1 36.53125 18.417969 A 8.0015119 8.0015119 0 0 1 36.923828 18.5625 A 8.0015119 8.0015119 0 0 1 36.976562 18.580078 A 8.0015119 8.0015119 0 0 1 36.980469 18.580078 A 8.0015119 8.0015119 0 0 1 37.195312 18.671875 A 8.0015119 8.0015119 0 0 1 37.623047 18.875 A 8.0015119 8.0015119 0 0 1 37.626953 18.875 A 8.0015119 8.0015119 0 0 1 37.630859 18.875 A 8.0015119 8.0015119 0 0 1 37.837891 18.988281 A 8.0015119 8.0015119 0 0 1 38.046875 19.105469 A 8.0015119 8.0015119 0 0 1 38.246094 19.222656 A 8.0015119 8.0015119 0 0 1 38.355469 19.298828 A 8.0015119 8.0015119 0 0 1 38.447266 19.355469 A 8.0015119 8.0015119 0 0 1 38.451172 19.355469 A 8.0015119 8.0015119 0 0 1 38.638672 19.492188 A 8.0015119 8.0015119 0 0 1 38.742188 19.566406 A 8.0015119 8.0015119 0 0 1 38.832031 19.630859 A 8.0015119 8.0015119 0 0 1 38.835938 19.630859 A 8.0015119 8.0015119 0 0 1 39.021484 19.783203 A 8.0015119 8.0015119 0 0 1 39.025391 19.783203 A 8.0015119 8.0015119 0 0 1 39.384766 20.087891 A 8.0015119 8.0015119 0 0 1 39.724609 20.421875 A 8.0015119 8.0015119 0 0 1 39.728516 20.421875 A 8.0015119 8.0015119 0 0 1 39.886719 20.591797 A 8.0015119 8.0015119 0 0 1 39.890625 20.595703 A 8.0015119 8.0015119 0 0 1 40 20.71875 L 40 19.302734 A 8.0355287 8.0355287 0 0 1 39.361328 18.478516 A 8.0015119 8.0015119 0 0 1 38.625 17.117188 A 7.91458 7.91458 0 0 1 38.160156 15.617188 A 7.9939526 7.9939526 0 0 1 37.996094 14.007812 L 37.996094 6.0058594 A 3.9988661 3.9988661 0 0 0 34.009766 2.0039062 L 25.996094 2.0039062 A 7.9977322 7.9977322 0 0 1 20.703125 0 L 19.292969 0 z M 39.287109 0 A 8.0015119 8.0015119 0 0 1 40 0.7109375 L 40 0 L 39.287109 0 z M 8.0058594 3.9941406 L 8.0664062 3.9941406 A 3.9988661 3.9988661 0 0 1 12.003906 8.0019531 L 12.003906 16 L 11.943359 16 A 3.9988661 3.9988661 0 0 1 8.0058594 12 L 8.0058594 3.9980469 L 8.0058594 3.9941406 z M 28 7.9980469 L 35.998047 7.9980469 L 35.998047 8.0625 A 3.9988661 3.9988661 0 0 1 31.998047 12 L 23.994141 12 L 23.994141 11.939453 A 3.9988661 3.9988661 0 0 1 28 7.9980469 z M 0 19.287109 L 0 20.708984 A 8.0015119 8.0015119 0 0 1 0.044921875 20.757812 A 8.0015119 8.0015119 0 0 1 0.17382812 20.908203 A 8.0015119 8.0015119 0 0 1 0.20117188 20.947266 A 8.0015119 8.0015119 0 0 1 0.21484375 20.964844 A 8.0015119 8.0015119 0 0 1 0.34375 21.128906 A 8.0015119 8.0015119 0 0 1 0.44140625 21.255859 A 8.0015119 8.0015119 0 0 1 0.4921875 21.320312 A 8.0015119 8.0015119 0 0 1 0.62695312 21.517578 A 8.0015119 8.0015119 0 0 1 0.75585938 21.71875 A 8.0015119 8.0015119 0 0 1 0.88476562 21.925781 A 8.0015119 8.0015119 0 0 1 0.88867188 21.925781 A 8.0015119 8.0015119 0 0 1 1.0019531 22.132812 A 8.0015119 8.0015119 0 0 1 1.1152344 22.341797 A 8.0015119 8.0015119 0 0 1 1.1152344 22.345703 A 8.0015119 8.0015119 0 0 1 1.2207031 22.552734 A 8.0015119 8.0015119 0 0 1 1.2207031 22.556641 A 8.0015119 8.0015119 0 0 1 1.3183594 22.771484 A 8.0015119 8.0015119 0 0 1 1.4140625 22.992188 A 8.0015119 8.0015119 0 0 1 1.5 23.210938 A 8.0015119 8.0015119 0 0 1 1.5 23.214844 A 8.0015119 8.0015119 0 0 1 1.5800781 23.433594 A 8.0015119 8.0015119 0 0 1 1.6523438 23.660156 A 8.0015119 8.0015119 0 0 1 1.6523438 23.664062 A 8.0015119 8.0015119 0 0 1 1.7207031 23.890625 A 8.0015119 8.0015119 0 0 1 1.7382812 23.966797 A 8.0015119 8.0015119 0 0 1 1.7773438 24.117188 A 8.0015119 8.0015119 0 0 1 1.7773438 24.125 A 8.0015119 8.0015119 0 0 1 1.8300781 24.351562 A 8.0015119 8.0015119 0 0 1 1.8476562 24.447266 A 8.0015119 8.0015119 0 0 1 1.875 24.582031 A 8.0015119 8.0015119 0 0 1 1.9003906 24.742188 A 8.0015119 8.0015119 0 0 1 1.9121094 24.816406 A 8.0015119 8.0015119 0 0 1 1.9648438 25.244141 A 8.0015119 8.0015119 0 0 1 1.96875 25.292969 A 8.0015119 8.0015119 0 0 1 1.9882812 25.53125 A 8.0015119 8.0015119 0 0 1 2.0039062 25.765625 A 8.0015119 8.0015119 0 0 1 2.0039062 26.003906 L 2.0039062 34.001953 A 3.9988661 3.9988661 0 0 0 6.0019531 38 L 14.003906 38 A 8.0015119 8.0015119 0 0 1 14.193359 38 A 8.0015119 8.0015119 0 0 1 14.199219 38 A 8.0015119 8.0015119 0 0 1 14.431641 38.011719 A 8.0015119 8.0015119 0 0 1 14.4375 38.011719 A 8.0015119 8.0015119 0 0 1 14.667969 38.03125 A 8.0015119 8.0015119 0 0 1 14.675781 38.03125 A 8.0015119 8.0015119 0 0 1 14.902344 38.052734 A 8.0015119 8.0015119 0 0 1 14.910156 38.052734 A 8.0015119 8.0015119 0 0 1 15.136719 38.083984 A 8.0015119 8.0015119 0 0 1 19.291016 40 L 20.712891 40 C 19.051424 38.534263 17.998047 36.394486 17.998047 34.001953 L 17.998047 25.996094 A 4.0026458 4.0026458 0 0 0 17.685547 24.443359 A 3.9950865 3.9950865 0 0 0 14.003906 22.001953 L 6.0019531 22.001953 C 3.7908599 22.001953 1.7914813 21.105808 0.34765625 19.658203 A 8.0393083 8.0393083 0 0 1 0 19.287109 z M 28 24 L 28.060547 24 A 3.9988661 3.9988661 0 0 1 31.998047 28.007812 L 31.998047 36.001953 L 31.9375 36.001953 A 3.9988661 3.9988661 0 0 1 28 32.001953 L 28 24 z M 8.0058594 28 L 16.003906 28 L 16.003906 28.064453 A 3.9988661 3.9988661 0 0 1 12.003906 32.001953 L 3.9980469 32.001953 L 3.9980469 31.941406 A 3.9988661 3.9988661 0 0 1 8.0058594 28 z M 0 39.277344 L 0 40 L 0.72265625 40 C 0.46659692 39.774418 0.22537091 39.533626 0 39.277344 z "
     transform="scale(0.264575)" />
</svg>
