<?xml version="1.0" encoding="UTF-8"?>
<svg width="32" height="32" version="1.1" viewBox="0 0 32 32" xmlns="http://www.w3.org/2000/svg" xmlns:cc="http://creativecommons.org/ns#" xmlns:dc="http://purl.org/dc/elements/1.1/" xmlns:rdf="http://www.w3.org/1999/02/22-rdf-syntax-ns#" xmlns:xlink="http://www.w3.org/1999/xlink">
 <metadata>
  <rdf:RDF>
   <cc:Work rdf:about="">
    <dc:format>image/svg+xml</dc:format>
    <dc:type rdf:resource="http://purl.org/dc/dcmitype/StillImage"/>
   </cc:Work>
  </rdf:RDF>
 </metadata>
 <g transform="translate(-217.58 -144.63)" fill="none" stroke-width="3">
  <path d="m220.08 168.63c0 6 3 6 6 6 3 0 5.013-0.0794 5.9999-6l1.5-8" stroke="#3334fc"/>
  <path d="m232.08 169.64c-5.9999 0-5.9999-3.0001-5.9999-6s0-6 5.9999-6c0.53334 0 1.043 0 1.5145 2e-3 0.4715-2e-3 0.98113-2e-3 1.5145-2e-3 5.9999 0 5.9999 3.0001 5.9999 6s0 6-5.9999 6c-0.53334 0-1.043 0-1.5145-2e-3 -0.4715 2e-3 -0.98113 2e-3 -1.5145 2e-3z" stroke="#000"/>
  <path d="m232.08 166.63c-5.9999 0-5.9999-3.0001-5.9999-6s0-6 5.9999-6c0.53334 0 1.043 0 1.5145 2e-3 0.4715-2e-3 0.98113-2e-3 1.5145-2e-3 5.9999 0 5.9999 3.0001 5.9999 6s0 6-5.9999 6c-0.53334 0-1.043 0-1.5145-2e-3 -0.4715 2e-3 -0.98113 2e-3 -1.5145 2e-3z" stroke="#ff4294"/>
  <path d="m232.08 163.63c-5.9999 0-5.9999-3.0001-5.9999-6s0-6 5.9999-6c0.53334 0 1.043 0 1.5145 2e-3 0.4715-2e-3 0.98113-2e-3 1.5145-2e-3 5.9999 0 5.9999 3.0001 5.9999 6s0 6-5.9999 6c-0.53334 0-1.043 0-1.5145-2e-3 -0.4715 2e-3 -0.98113 2e-3 -1.5145 2e-3z" stroke="#000"/>
  <path d="m233.58 160.63 1.5-8c0.98759-5.919 3-6 5.9999-6 3.0001 0 6 0 6 6" stroke="#3334fc"/>
 </g>
</svg>
