<?xml version="1.0" encoding="UTF-8" standalone="no"?>
<!-- Created with Inkscape (http://www.inkscape.org/) -->

<svg
   width="125.17207mm"
   height="21.373943mm"
   viewBox="0 0 125.17207 21.373943"
   version="1.1"
   id="svg1"
   xmlns="http://www.w3.org/2000/svg"
   xmlns:svg="http://www.w3.org/2000/svg">
  <defs
     id="defs1" />
  <g
     style="stroke:currentColor"
     id="layer1"
     transform="translate(-4.8980075,-87.261702)">
    <path
       style="fill:none;stroke-width:1.2;stroke-linecap:round;stroke-linejoin:round;stroke-dasharray:none;paint-order:stroke fill markers"
       d="m 5.4980075,98.964132 c 1.3808972,2.486728 4.4768377,3.052218 7.0830045,3.088488 2.130475,0.0512 4.50592,-0.13219 6.236071,-1.47687 0.839188,-1.725443 -1.522736,-2.61736 -2.861104,-2.701237 -3.270816,-0.720255 -6.9598678,-1.220026 -9.3488899,-3.81127 -0.9075268,-1.10806 -0.1422343,-2.529976 0.8093837,-3.305336 2.5413454,-2.068474 5.9975342,-2.684091 9.1985792,-2.568443 1.800783,0.176438 3.767222,0.261712 5.36042,1.167626 0.396622,0.285339 -0.02017,0.550399 -0.349976,0.443696"
       id="path2" />
    <path
       style="fill:none;stroke-width:1.2;stroke-linecap:round;stroke-linejoin:round;stroke-dasharray:none;paint-order:stroke fill markers"
       d="m 28.020828,98.47542 c -0.768327,1.18358 -1.745261,2.38105 -3.148111,2.80423 -0.550115,0.17817 -1.202945,0.21027 -1.673416,-0.18154 -0.565035,-0.40771 -0.780193,-1.121218 -0.769541,-1.791446 -0.0457,-1.458596 0.589419,-3.025004 1.891973,-3.777573 0.886373,-0.467362 2.170914,-0.13389 2.555562,0.838284 0.76815,1.358833 1.428564,2.79997 2.456064,3.991205 0.270321,0.37308 0.357867,0.95631 0.849889,1.1082 0.502798,0.0627 -0.09632,-0.58948 -0.0854,-0.79213"
       id="path3" />
    <path
       style="fill:none;stroke-width:1.2;stroke-linecap:round;stroke-linejoin:round;stroke-dasharray:none;paint-order:stroke fill markers"
       d="m 33.315748,96.398396 c -0.112268,-0.244787 -0.06097,0.357002 -0.0739,0.455715 0.02507,0.421497 -0.04358,0.848235 -0.04122,1.260218 0.134032,0.981048 -0.243863,2.452501 0.05924,3.415941 0.09192,0.16174 0.244116,-0.7903 0.345152,-0.90526 0.542395,-1.019452 0.936988,-2.130343 1.675926,-3.034027 0.570413,-0.763769 1.153955,-1.633378 2.09601,-1.960849 0.348817,-0.182369 0.720655,0.0054 0.968024,0.267255 0.539755,0.588081 0.543509,1.439275 0.606467,2.189063 0.0216,0.491864 0.15327,0.975546 0.09281,1.470165 -0.01161,0.490773 -0.132721,1.464773 0.08353,1.927323 0.210556,0.42608 0.22522,-0.44271 0.174712,-0.85072"
       id="path4" />
    <path
       style="fill:none;stroke-width:1.2;stroke-linecap:round;stroke-linejoin:round;stroke-dasharray:none;paint-order:stroke fill markers"
       d="m 48.02415,101.8964 c 0.0075,-0.22381 0.163521,-1.73724 0.05425,-0.88017 -0.09916,-1.169908 0.552977,-4.471034 0.160088,-4.73818 l 0.02997,0.275293"
       id="path8" />
    <path
       style="fill:none;stroke-width:1.2;stroke-linecap:round;stroke-linejoin:round;stroke-dasharray:none;paint-order:stroke fill markers"
       d="m 56.859942,99.575023 c -1.521858,0.145901 -2.634562,1.320817 -3.982191,1.905757 -0.469039,0.40848 -1.213606,0.0648 -1.196206,-0.55578 0.01667,-0.76978 0.570059,-1.377018 0.943385,-2.009302 0.564125,-0.882312 1.088769,-1.873228 2.015967,-2.426801 0.548871,-0.331454 1.233573,0.04357 1.477299,0.581191 0.628877,1.167784 0.490333,2.68417 1.472222,3.670832 0.17029,0.13225 0.7237,0.73189 0.735659,0.17813"
       id="path10" />
    <path
       style="fill:none;stroke-width:1.2;stroke-linecap:round;stroke-linejoin:round;stroke-dasharray:none;paint-order:stroke fill markers"
       d="m 66.000416,97.821364 c -0.273272,-1.230435 -1.757963,-1.465356 -2.701032,-1.072015 -1.07145,0.567636 -1.884188,1.83357 -1.857604,3.14185 0.02125,1.194301 1.294241,1.936681 2.280851,1.533471 1.260609,-0.44552 1.943848,-1.809453 2.204335,-3.127967 0.107268,-0.471201 0.614181,-2.542156 1.115231,-2.063741 -0.125873,3.422448 -1.079205,7.590598 -3.162128,10.253028 -1.008925,1.52442 -3.291103,2.15754 -4.679607,0.82601 -0.31778,-0.32174 -0.557177,-0.71703 -0.812061,-1.09429"
       id="path11" />
    <path
       style="fill:none;stroke-width:1.2;stroke-linecap:round;stroke-linejoin:round;stroke-dasharray:none;paint-order:stroke fill markers"
       d="m 72.987428,96.981978 c -1.066586,-0.584929 -2.031968,0.450837 -2.483429,1.322037 -0.663931,0.986881 -0.657179,2.600325 0.550337,3.161525 1.260315,0.52958 2.806554,0.19801 3.887069,-0.59924 0.734537,-0.59624 1.359553,-1.571093 1.176829,-2.543731 -0.501577,-1.377344 -2.248254,-1.664591 -3.498386,-1.270203 -0.597254,0.143713 -1.212104,0.395862 -1.587265,0.907031"
       id="path12" />
    <path
       style="fill:none;stroke-width:1.2;stroke-linecap:round;stroke-linejoin:round;stroke-dasharray:none;paint-order:stroke fill markers"
       d="m 93.800131,100.30809 c -3.063551,3.01595 -10.067092,1.23325 -8.271405,-3.872074 1.272119,-3.969472 5.906521,-7.995126 10.21055,-6.577284 0.39801,0.271695 0.64208,0.706751 0.74877,1.163834"
       id="path13" />
    <path
       style="fill:none;stroke-width:1.2;stroke-linecap:round;stroke-linejoin:round;stroke-dasharray:none;paint-order:stroke fill markers"
       d="m 102.74058,100.43027 c -1.66906,0.0708 -2.985726,1.97092 -4.744136,1.2203 -1.571512,-0.6625 -1.176041,-2.696771 -0.4302,-3.845642 0.80714,-1.288627 2.353154,-3.187123 4.052956,-2.294779 1.56546,1.168916 -0.75813,2.499695 -1.753804,3.044839 -0.296711,0.04669 -0.948411,0.727708 -1.156681,0.409143"
       id="path14" />
    <path
       style="fill:none;stroke-width:1.2;stroke-linecap:round;stroke-linejoin:round;stroke-dasharray:none;paint-order:stroke fill markers"
       d="m 111.56957,100.49462 c -1.70372,0.0414 -3.2692,0.8115 -4.75221,1.57887 -0.93567,0.20901 -1.23785,-1.15639 -0.49992,-1.6017 1.22765,-1.212328 2.38617,-2.492318 3.60304,-3.717599 0.40595,-0.512882 1.85766,-1.597734 0.46943,-1.684793 -0.99518,0.04957 -1.72213,0.898923 -2.71971,0.988768 -0.70233,0.149938 -1.39248,0.34685 -2.0874,0.526765"
       id="path15" />
    <path
       style="fill:none;stroke-width:1.2;stroke-linecap:round;stroke-linejoin:round;stroke-dasharray:none;paint-order:stroke fill markers"
       d="m 106.56028,98.661954 c 1.12219,-0.207371 2.25595,-0.476346 3.40516,-0.367971 0.20889,0.0029 0.41782,0.0046 0.62671,0.0014"
       id="path16" />
    <path
       style="fill:none;stroke-width:1.2;stroke-linecap:round;stroke-linejoin:round;stroke-dasharray:none;paint-order:stroke fill markers"
       d="m 119.7555,98.353244 c -0.92056,0.647329 -1.59188,1.591065 -2.55206,2.188886 -0.62918,0.45812 -1.20168,1.05882 -1.97314,1.2678 -0.35946,0.10866 -0.72208,-0.1476 -0.81342,-0.4968 -0.0313,-0.34665 0.12386,-0.69939 0.22786,-1.03107 0.32768,-0.85003 0.80803,-1.630458 1.25888,-2.41806 0.61194,-0.920987 1.34667,-1.850506 2.40369,-2.273287 0.48339,-0.01798 0.86501,0.372787 0.99776,0.810083 0.21743,0.623944 0.24434,1.296043 0.4688,1.918416 0.19129,0.773654 0.0733,1.634634 0.49169,2.342938 0.0615,0.0957 0.13625,0.18317 0.22302,0.25683"
       id="path17" />
    <path
       style="fill:none;stroke-width:1.2;stroke-linecap:round;stroke-linejoin:round;stroke-dasharray:none;paint-order:stroke fill markers"
       d="m 123.72771,95.543152 c 0.11322,1.808179 0.15083,4.230232 0.37288,6.023888 0.57329,0.39642 0.44468,-2.109575 0.84644,-2.587899 0.5475,-1.387861 1.07287,-3.048839 2.52055,-3.739919 0.81095,-0.40461 1.86475,-0.04627 2.00249,0.914818"
       id="path18" />
    <path
       style="fill:none;stroke-width:1.2;stroke-linecap:round;stroke-linejoin:round;stroke-dasharray:none;paint-order:stroke fill markers"
       d="m 101.5188,92.977413 c 0.66977,-0.723208 1.6429,-1.119108 2.1992,-1.954847"
       id="path19" />
    <path
       style="fill:none;stroke-width:1.2;stroke-linecap:round;stroke-linejoin:round;stroke-dasharray:none;paint-order:stroke fill markers"
       d="m 43.171332,101.73709 c 0.403924,-1.803783 0.455745,-3.650685 0.579024,-5.494657 0.178677,-2.796603 0.398185,-5.595644 0.6611,-8.382359 l -0.0078,0.301035 -0.0053,0.301079"
       id="path20" />
    <path
       style="fill:none;stroke-width:1.2;stroke-linecap:round;stroke-linejoin:round;stroke-dasharray:none;paint-order:stroke fill markers"
       d="m 40.270932,93.147448 c 2.417,0 4.833999,0 7.250999,0"
       id="path21" />
  </g>
</svg>
