<?xml version="1.0" encoding="UTF-8" standalone="no"?>
<svg
   sodipodi:docname="peon.svg"
   inkscape:version="1.1 (c68e22c387, 2021-05-23)"
   id="svg872"
   version="1.1"
   viewBox="0 0 32.23923 8.4666546"
   height="31.999954"
   width="121.84906"
   inkscape:export-filename="/home/santi/Imágenes/slogo/scscpfp.png"
   inkscape:export-xdpi="614.40021"
   inkscape:export-ydpi="614.40021"
   xmlns:inkscape="http://www.inkscape.org/namespaces/inkscape"
   xmlns:sodipodi="http://sodipodi.sourceforge.net/DTD/sodipodi-0.dtd"
   xmlns:xlink="http://www.w3.org/1999/xlink"
   xmlns="http://www.w3.org/2000/svg"
   xmlns:svg="http://www.w3.org/2000/svg"
   xmlns:rdf="http://www.w3.org/1999/02/22-rdf-syntax-ns#"
   xmlns:cc="http://creativecommons.org/ns#"
   xmlns:dc="http://purl.org/dc/elements/1.1/">
  <defs
     id="defs866">
    <linearGradient
       id="linearGradient1498"
       inkscape:collect="always">
      <stop
         id="stop1494"
         offset="0"
         style="stop-color:#00d4aa;stop-opacity:1" />
      <stop
         id="stop1496"
         offset="1"
         style="stop-color:#64858d;stop-opacity:1" />
    </linearGradient>
    <linearGradient
       inkscape:collect="always"
       id="linearGradient1486">
      <stop
         style="stop-color:#c83771;stop-opacity:1;"
         offset="0"
         id="stop1482" />
      <stop
         style="stop-color:#64858d;stop-opacity:1"
         offset="1"
         id="stop1484" />
    </linearGradient>
    <linearGradient
       id="linearGradient7476"
       inkscape:collect="always">
      <stop
         id="stop7472"
         offset="0"
         style="stop-color:#00d4aa;stop-opacity:1;" />
      <stop
         id="stop7474"
         offset="1"
         style="stop-color:#c83771;stop-opacity:1" />
    </linearGradient>
    <clipPath
       id="clipPath6746"
       clipPathUnits="userSpaceOnUse">
      <path
         d="m 214.93591,152.57068 h 9.25939 v 9.25992 h -9.25939 z"
         style="fill:#00d4aa;fill-opacity:1;stroke-width:0.0529167;stroke-linecap:round;stroke-linejoin:round"
         id="path6748" />
    </clipPath>
    <linearGradient
       gradientUnits="userSpaceOnUse"
       y2="157.86246"
       x2="219.6983"
       y1="155.7458"
       x1="219.6983"
       id="linearGradient7478"
       xlink:href="#linearGradient7476"
       inkscape:collect="always" />
    <clipPath
       clipPathUnits="userSpaceOnUse"
       id="clipPath6746-3">
      <path
         id="path6748-5"
         style="fill:#00d4aa;fill-opacity:1;stroke-width:0.0529167;stroke-linecap:round;stroke-linejoin:round"
         d="m 214.93591,152.57068 h 9.25939 v 9.25992 h -9.25939 z" />
    </clipPath>
    <linearGradient
       inkscape:collect="always"
       xlink:href="#linearGradient1498"
       id="linearGradient1492"
       gradientUnits="userSpaceOnUse"
       x1="-9"
       y1="4"
       x2="-9"
       y2="5"
       gradientTransform="matrix(-0.26458333,0,0,-0.26458333,209.90883,152.83526)" />
    <linearGradient
       inkscape:collect="always"
       xlink:href="#linearGradient1486"
       id="linearGradient1506"
       gradientUnits="userSpaceOnUse"
       x1="-9"
       y1="4"
       x2="-9"
       y2="5"
       gradientTransform="matrix(0,-0.99999997,-0.99999997,0,4.9999747,-5.0000125)" />
    <clipPath
       clipPathUnits="userSpaceOnUse"
       id="clipPath871">
      <ellipse
         style="fill:#ff0000;fill-opacity:1;stroke-width:1.45873;stroke-linecap:round;stroke-opacity:0;paint-order:markers stroke fill;stop-color:#000000"
         id="ellipse873"
         cx="165.73618"
         cy="145.75841"
         rx="9.2861567"
         ry="9.2861633" />
    </clipPath>
    <clipPath
       clipPathUnits="userSpaceOnUse"
       id="clipPath2934">
      <ellipse
         style="fill:#ff0000;fill-opacity:1;stroke-width:0.665001;stroke-linecap:round;stroke-opacity:0;paint-order:markers stroke fill;stop-color:#000000"
         id="ellipse2936"
         cx="-87.841675"
         cy="-70.908363"
         rx="4.2333302"
         ry="4.2333331" />
    </clipPath>
  </defs>
  <sodipodi:namedview
     inkscape:window-maximized="1"
     inkscape:window-y="0"
     inkscape:window-x="0"
     inkscape:window-height="695"
     inkscape:window-width="1366"
     inkscape:guide-bbox="true"
     showguides="false"
     inkscape:snap-smooth-nodes="true"
     units="px"
     showgrid="true"
     inkscape:document-rotation="0"
     inkscape:current-layer="g2559"
     inkscape:document-units="px"
     inkscape:cy="-22.228782"
     inkscape:cx="66.080107"
     inkscape:zoom="2.4742696"
     inkscape:pageshadow="2"
     inkscape:pageopacity="0"
     borderopacity="1.0"
     bordercolor="#666666"
     pagecolor="#ffffff"
     id="base"
     inkscape:snap-grids="true"
     inkscape:snap-global="true"
     inkscape:pagecheckerboard="0">
    <inkscape:grid
       type="xygrid"
       id="grid960"
       empspacing="4"
       originx="39.655125"
       originy="8.0945311" />
    <sodipodi:guide
       position="52.979995,5.5221927"
       orientation="1,0"
       id="guide1614" />
  </sodipodi:namedview>
  <metadata
     id="metadata869">
    <rdf:RDF>
      <cc:Work
         rdf:about="">
        <dc:format>image/svg+xml</dc:format>
        <dc:type
           rdf:resource="http://purl.org/dc/dcmitype/StillImage" />
        <dc:title />
      </cc:Work>
    </rdf:RDF>
  </metadata>
  <g
     transform="translate(-175.28079,-144.47614)"
     id="layer1"
     inkscape:groupmode="layer"
     inkscape:label="Capa 1">
    <g
       id="g2559"
       transform="matrix(0.45587538,0,0,0.45587538,124.03504,80.56676)">
      <path
         d="m 139.07096,156.0433 v -11.94275 h 5.03302 q 1.05778,0 1.89378,0.51183 0.85305,0.49477 1.34782,1.36489 0.51183,0.85305 0.51183,1.9279 0,1.10897 -0.51183,1.99615 -0.49477,0.87011 -1.34782,1.399 -0.836,0.51183 -1.89378,0.51183 h -2.57622 v 4.23115 z m 2.43974,-6.46615 h 2.33736 q 0.63126,0 1.05779,-0.46065 0.44358,-0.4777 0.44358,-1.17721 0,-0.6995 -0.44358,-1.14309 -0.42653,-0.46065 -1.05779,-0.46065 h -2.33736 z"
         style="font-style:normal;font-variant:normal;font-weight:600;font-stretch:normal;font-size:7.77772px;line-height:0.95;font-family:Lexend;-inkscape-font-specification:'Lexend Semi-Bold';letter-spacing:-0.299443px;fill:#091f2c;fill-opacity:1;stroke-width:0.426527"
         id="path959" />
      <path
         d="m 149.5038,156.0433 v -11.94275 h 7.98458 v 2.18382 h -5.57897 v 2.61034 h 4.74297 v 2.11557 h -4.74297 v 2.8492 h 5.68133 v 2.18382 z"
         style="font-style:normal;font-variant:normal;font-weight:600;font-stretch:normal;font-size:7.77772px;line-height:0.95;font-family:Lexend;-inkscape-font-specification:'Lexend Semi-Bold';letter-spacing:-0.299443px;fill:#091f2c;fill-opacity:1;stroke-width:0.426527"
         id="path961" />
      <path
         d="m 164.88435,156.21391 q -1.3137,0 -2.42267,-0.46065 -1.10897,-0.46065 -1.92791,-1.27958 -0.80187,-0.83599 -1.26251,-1.96202 -0.44359,-1.12603 -0.44359,-2.47386 0,-1.33076 0.44359,-2.45679 0.46064,-1.12603 1.26251,-1.94496 0.81894,-0.83599 1.92791,-1.29664 1.10897,-0.46065 2.42267,-0.46065 1.29664,0 2.40561,0.46065 1.10897,0.46065 1.91084,1.29664 0.81893,0.83599 1.26251,1.96202 0.46065,1.12603 0.46065,2.43973 0,1.33077 -0.46065,2.4568 -0.44358,1.12603 -1.26251,1.96202 -0.80187,0.83599 -1.91084,1.29664 -1.10897,0.46065 -2.40561,0.46065 z m 0,-2.33737 q 1.02366,0 1.82553,-0.49477 0.80187,-0.49477 1.24546,-1.36488 0.46065,-0.87012 0.46065,-1.97909 0,-1.10897 -0.46065,-1.96202 -0.44359,-0.87011 -1.24546,-1.36488 -0.80187,-0.51184 -1.82553,-0.51184 -1.04073,0 -1.8426,0.49477 -0.80187,0.49478 -1.26252,1.36489 -0.44359,0.87011 -0.44359,1.97908 0,1.12603 0.44359,1.99615 0.46065,0.85305 1.26252,1.34782 0.80187,0.49477 1.8426,0.49477 z"
         style="font-style:normal;font-variant:normal;font-weight:600;font-stretch:normal;font-size:7.77772px;line-height:0.95;font-family:Lexend;-inkscape-font-specification:'Lexend Semi-Bold';letter-spacing:-0.299443px;fill:#091f2c;fill-opacity:1;stroke-width:0.426527"
         id="path963" />
      <path
         d="m 172.60447,156.0433 v -11.94275 h 2.20088 l 5.92019,7.98653 v -7.98653 h 2.4056 v 11.94275 h -2.23499 l -5.88601,-7.85348 -1e-5,7.85348 z"
         style="font-style:normal;font-variant:normal;font-weight:600;font-stretch:normal;font-size:7.77772px;line-height:0.95;font-family:Lexend;-inkscape-font-specification:'Lexend Semi-Bold';letter-spacing:-0.299443px;fill:#091f2c;fill-opacity:1;stroke-width:0.426527"
         id="path965"
         sodipodi:nodetypes="ccccccccccc" />
      <g
         id="g3217"
         clip-path="url(#clipPath2934)"
         transform="matrix(2.193582,0,0,2.193582,314.38582,305.01994)">
        <rect
           style="fill:#091f2c;fill-opacity:1;stroke-width:0.665001;stroke-linecap:round;stroke-opacity:0;paint-order:markers stroke fill;stop-color:#000000"
           id="rect3213"
           width="8.4666662"
           height="8.4666662"
           x="-92.075005"
           y="-75.141708" />
        <path
           id="path3215"
           style="fill:#6eceb2;fill-opacity:1;stroke-width:0.665001;stroke-linecap:round;stroke-opacity:0;paint-order:markers stroke fill;stop-color:#000000"
           d="m -88.370641,-73.554261 v 4.7625 l -3.704359,5.4e-5 v 1.058334 l 4.762692,-5.6e-5 v -1.058332 -3.704167 h 0.529167 c 0.584502,0 1.058333,0.473832 1.058333,1.058334 -4.2e-5,0.280672 -0.111572,0.549833 -0.31006,0.748276 l 0.748276,0.748273 c 0.396971,-0.396885 0.620033,-0.935207 0.620118,-1.496549 0,-1.169004 -0.947664,-2.116667 -2.116667,-2.116667 h -0.529167 z"
           sodipodi:nodetypes="cccccccsccccscc" />
      </g>
    </g>
  </g>
</svg>
