<svg width="235.06mm" height="85.501mm" version="1.1" viewBox="0 0 235.06 85.501" xmlns="http://www.w3.org/2000/svg">
 <g transform="translate(-15.137 -58.949)" stroke-linecap="round" stroke-linejoin="round">
  <g transform="scale(.86602 1.1547)" stroke-width="5.4" style="paint-order:markers stroke fill" aria-label="CALCULADORA
DE GENERACIÓN">
   <path d="m24.516 62.906q1.1818 0 2.1488-0.57302 0.96696-0.57301 1.9697-1.6295l0.5372 0.44767-0.23279 0.2686q-0.23279 0.25069-0.30441 0.32232-0.05372 0.05372-0.32232 0.32232-0.25069 0.25069-0.39395 0.35813-0.14325 0.10744-0.44767 0.34023-0.30441 0.21488-0.5372 0.32232-0.21488 0.10744-0.57301 0.2686-0.35813 0.14325-0.69836 0.21488-0.32232 0.08953-0.73417 0.14325-0.41186 0.05372-0.84162 0.05372-2.7755 0-4.5662-1.7728-1.7728-1.7728-1.7728-4.5304 0-2.7397 1.7728-4.5662 1.7907-1.8444 4.4588-1.8444 0.84162 0 1.5758 0.23279 0.75208 0.21488 1.2535 0.42976 0.50139 0.21488 0.76999 0.21488 0.25069 0 0.42976-0.17907t0.35813-0.64464h0.48348v4.1902h-0.44767q-0.17907-0.39395-0.37604-0.73417-0.19697-0.35813-0.60883-0.93115-0.41185-0.57301-0.84162-0.96696-0.42976-0.41185-1.0744-0.71627-0.62674-0.30441-1.2893-0.30441-1.6116 0-2.4532 1.4504t-0.84162 4.226q0 5.5869 3.5992 5.5869zm17.817 0.07163v0.44767h-5.8018v-0.44767q0.37604-0.05372 0.57301-0.05372 0.85952-0.05372 0.85952-0.59092 0-0.5372-0.82371-2.4353h-4.029l-0.2686 0.69836q-0.51929 1.343-0.51929 1.6474 0 0.34023 0.34023 0.51929 0.34023 0.16116 1.1281 0.21488v0.44767h-3.6351v-0.44767q0.64464-0.12535 0.93115-0.48348 0.30441-0.35813 0.82371-1.6116l3.9753-9.8129h0.50139l3.9932 9.4189q0.66255 1.5758 1.0028 2.0414 0.35813 0.44767 0.87743 0.44767zm-8.9534-3.7783h3.4918l-1.8086-4.3513zm15.561 3.6709q0.51929 0 0.96696-0.07163 0.46557-0.07163 0.82371-0.17907 0.35813-0.10744 0.68045-0.30441 0.34023-0.21488 0.55511-0.35813 0.23279-0.14325 0.46557-0.42976 0.23279-0.30441 0.35813-0.44767 0.12535-0.16116 0.28651-0.48348 0.16116-0.32232 0.21488-0.42976 0.05372-0.12535 0.17907-0.44767 0.14325-0.32232 0.16116-0.35813h0.51929l-0.73417 4.0648h-10.35v-0.44767q0.98487-0.12535 1.2535-0.35813 0.28651-0.23279 0.28651-0.91324v-8.6668q0-0.68046-0.32232-0.94906-0.30441-0.2686-1.2177-0.32232v-0.44767h6.2494v0.44767q-1.1639 0.05372-1.4863 0.35813-0.32232 0.28651-0.32232 1.2893v8.452q0 0.57302 0.30441 0.7879t1.1281 0.21488zm13.126 0.03581q1.1818 0 2.1488-0.57302 0.96696-0.57301 1.9697-1.6295l0.5372 0.44767-0.23279 0.2686q-0.23279 0.25069-0.30441 0.32232-0.05372 0.05372-0.32232 0.32232-0.25069 0.25069-0.39395 0.35813-0.14325 0.10744-0.44767 0.34023-0.30441 0.21488-0.5372 0.32232-0.21488 0.10744-0.57301 0.2686-0.35813 0.14325-0.69836 0.21488-0.32232 0.08953-0.73417 0.14325-0.41186 0.05372-0.84162 0.05372-2.7755 0-4.5662-1.7728-1.7728-1.7728-1.7728-4.5304 0-2.7397 1.7728-4.5662 1.7907-1.8444 4.4588-1.8444 0.84162 0 1.5758 0.23279 0.75208 0.21488 1.2535 0.42976 0.50139 0.21488 0.76999 0.21488 0.25069 0 0.42976-0.17907t0.35813-0.64464h0.48348v4.1902h-0.44767q-0.17907-0.39395-0.37604-0.73417-0.19697-0.35813-0.60883-0.93115-0.41185-0.57301-0.84162-0.96696-0.42976-0.41185-1.0744-0.71627-0.62674-0.30441-1.2893-0.30441-1.6116 0-2.4532 1.4504t-0.84162 4.226q0 5.5869 3.5992 5.5869zm11.693-11.138q-1.0744 0.03581-1.4146 0.34023-0.32232 0.28651-0.32232 1.3072v5.9808q0 1.8265 0.62674 2.6681 0.62673 0.82371 2.0056 0.82371 1.5937 0 2.3637-0.94906 0.76999-0.94906 0.76999-2.9367v-5.4615q0-0.98487-0.35813-1.3251-0.34023-0.35813-1.3967-0.44767v-0.44767h3.9395v0.44767q-0.85952 0.12535-1.1281 0.42976-0.2686 0.30441-0.2686 1.0923v5.7122q0 4.7632-4.6199 4.7632-2.0056 0-3.3127-0.94906-0.82371-0.59092-1.146-1.343-0.32232-0.75208-0.32232-2.0772v-5.9808q0-0.96696-0.2686-1.2535-0.25069-0.30441-1.1997-0.39395v-0.44767h6.0525zm12.803 11.102q0.51929 0 0.96696-0.07163 0.46557-0.07163 0.82371-0.17907 0.35813-0.10744 0.68045-0.30441 0.34023-0.21488 0.55511-0.35813 0.23279-0.14325 0.46557-0.42976 0.23279-0.30441 0.35813-0.44767 0.12535-0.16116 0.28651-0.48348 0.16116-0.32232 0.21488-0.42976 0.05372-0.12535 0.17907-0.44767 0.14325-0.32232 0.16116-0.35813h0.51929l-0.73417 4.0648h-10.35v-0.44767q0.98487-0.12535 1.2535-0.35813 0.28651-0.23279 0.28651-0.91324v-8.6668q0-0.68046-0.32232-0.94906-0.30441-0.2686-1.2177-0.32232v-0.44767h6.2494v0.44767q-1.1639 0.05372-1.4863 0.35813-0.32232 0.28651-0.32232 1.2893v8.452q0 0.57302 0.30441 0.7879t1.1281 0.21488zm18.265 0.10744v0.44767h-5.8018v-0.44767q0.37604-0.05372 0.57301-0.05372 0.85952-0.05372 0.85952-0.59092 0-0.5372-0.82371-2.4353h-4.029l-0.2686 0.69836q-0.51929 1.343-0.51929 1.6474 0 0.34023 0.34023 0.51929 0.34023 0.16116 1.1281 0.21488v0.44767h-3.6351v-0.44767q0.64464-0.12535 0.93115-0.48348 0.30441-0.35813 0.82371-1.6116l3.9753-9.8129h0.50139l3.9932 9.4189q0.66254 1.5758 1.0028 2.0414 0.35814 0.44767 0.87743 0.44767zm-8.9534-3.7783h3.4918l-1.8086-4.3513zm11.174 2.5965v-8.828q0-0.60883-0.32232-0.85952-0.30441-0.25069-1.1639-0.34023v-0.44767h5.4616q3.0979 0 4.8706 1.5758 1.7728 1.5758 1.7728 4.3513 0 2.7755-1.7728 4.4767-1.7728 1.7011-4.6736 1.7011h-5.6585v-0.44767q0.76999-0.01791 1.1281-0.30441 0.35813-0.28651 0.35813-0.87743zm7.5029-4.2797q0-1.5758-0.32232-2.7218-0.32232-1.146-0.85952-1.737-0.53721-0.59092-1.1281-0.85952-0.57301-0.2686-1.2356-0.2686-1.0565 0-1.0565 0.62673v9.204q0 0.60883 0.21488 0.82371 0.21488 0.21488 0.8237 0.21488 3.5634 0 3.5634-5.2825zm10.78-6.4643q2.7039 0 4.4767 1.8086 1.7907 1.8086 1.7907 4.5483 0 2.7755-1.7907 4.5662-1.7728 1.7907-4.5483 1.7907t-4.5662-1.7728q-1.7728-1.7907-1.7728-4.5662 0-2.7934 1.7907-4.5841 1.8086-1.7907 4.6199-1.7907zm-0.0179 0.59092q-1.5758 0-2.3995 1.5221-0.82371 1.5221-0.82371 4.423 0 2.7218 0.80581 4.1544 0.8237 1.4325 2.3637 1.4325t2.3458-1.4325q0.82371-1.4504 0.82371-4.2081 0-2.7934-0.82371-4.3334-0.8058-1.5579-2.2921-1.5579zm18.086 2.8651q0 0.55511-0.17907 1.0207-0.16116 0.46558-0.41186 0.76999-0.23278 0.28651-0.64464 0.5372-0.39394 0.25069-0.75208 0.39395-0.34023 0.14325-0.82371 0.30441l3.5992 5.1034q0.2686 0.34023 0.73418 0.34023v0.44767h-3.6709l-3.7067-5.6048h-0.48349v3.5097q0 0.94906 0.2686 1.2356 0.26861 0.28651 1.3072 0.41185v0.44767h-6.0525v-0.44767q1.0565-0.12535 1.3072-0.39395 0.2686-0.2686 0.2686-1.2535v-7.9148q0-0.96696-0.30442-1.2714-0.2865-0.30441-1.2714-0.37604v-0.44767h5.766q2.4532 0 3.7425 0.82371 1.3072 0.82371 1.3072 2.3637zm-5.372-2.5786q-0.96697 0-0.96697 0.75208v4.5662q1.916-0.03581 2.5965-0.55511 0.68045-0.51929 0.68045-2.113 0-1.4146-0.5372-2.0235-0.5372-0.62673-1.7728-0.62673zm19.608 11.048v0.44767h-5.8018v-0.44767q0.37604-0.05372 0.57301-0.05372 0.85953-0.05372 0.85953-0.59092 0-0.5372-0.82371-2.4353h-4.029l-0.2686 0.69836q-0.51929 1.343-0.51929 1.6474 0 0.34023 0.34022 0.51929 0.34023 0.16116 1.1281 0.21488v0.44767h-3.6351v-0.44767q0.64464-0.12535 0.93114-0.48348 0.30442-0.35813 0.82371-1.6116l3.9753-9.8129h0.50139l3.9932 9.4189q0.66255 1.5758 1.0028 2.0414 0.35813 0.44767 0.87742 0.44767zm-8.9534-3.7783h3.4918l-1.8086-4.3513z"/>
   <path d="m18.965 78.807v-8.828q0-0.60883-0.32232-0.85952-0.30441-0.25069-1.1639-0.34023v-0.44767h5.4615q3.0979 0 4.8706 1.5758 1.7728 1.5758 1.7728 4.3513 0 2.7755-1.7728 4.4767-1.7728 1.7011-4.6736 1.7011h-5.6585v-0.44767q0.76999-0.01791 1.1281-0.30441 0.35813-0.28651 0.35813-0.87743zm7.5029-4.2797q0-1.5758-0.32232-2.7218-0.32232-1.146-0.85952-1.737t-1.1281-0.85952q-0.57301-0.2686-1.2356-0.2686-1.0565 0-1.0565 0.62673v9.204q0 0.60883 0.21488 0.82371 0.21488 0.21488 0.82371 0.21488 3.5634 0 3.5634-5.2825zm10.064 5.3541q1.9518 0 2.9725-0.78789 1.0207-0.7879 1.7549-2.3816h0.50139l-0.71627 3.7246h-10.475v-0.44767q1.0028-0.10744 1.2893-0.34023t0.28651-0.93115v-8.6668q0-0.68046-0.32232-0.94906-0.32232-0.2686-1.2535-0.32232v-0.44767h10.332v3.5992h-0.44767q-0.34023-1.7907-1.1997-2.3816-0.85952-0.60883-3.0441-0.60883-0.69836 0-0.93115 0.17907-0.23279 0.16116-0.23279 0.66255v4.1544h0.07163q1.4146 0 2.0235-0.57302 0.60883-0.59092 0.8058-2.0951h0.46557v6.0525h-0.46558q-0.16116-1.5579-0.8058-2.1667-0.62673-0.60883-2.0951-0.60883v4.3334q0 0.57302 0.30441 0.7879 0.32232 0.21488 1.1818 0.21488zm17.029-11.818q0.84162 0 1.5758 0.23279 0.75208 0.21488 1.2535 0.42976 0.50139 0.21488 0.76999 0.21488 0.25069 0 0.42976-0.17907t0.35813-0.64464h0.48348v4.1902h-0.44767q-0.46557-1.0207-0.85952-1.5758-0.37604-0.57302-0.94906-1.0744-1.1639-1.0028-2.3816-1.0028-1.6295 0-2.4711 1.4684-0.82371 1.4504-0.82371 4.2618 0 3.2053 1.1639 4.6916 0.85952 1.1102 2.4711 1.1102 0.89534 0 1.3072-0.30441 0.41185-0.32232 0.41185-1.0028v-1.8802q0-0.73418-0.34023-0.94906-0.32232-0.23279-1.4683-0.30441v-0.44767h6.142v0.44767q-1.0028 0.10744-1.2714 0.39395-0.2686 0.28651-0.2686 1.2535v2.2742q-0.85952 0.50139-2.2025 0.8058-1.343 0.30441-2.7397 0.30441-2.8114 0-4.602-1.737-1.7728-1.7549-1.7728-4.5304 0-2.7576 1.7728-4.602 1.7907-1.8444 4.4588-1.8444zm13.358 11.818q1.9518 0 2.9725-0.78789 1.0207-0.7879 1.7549-2.3816h0.50139l-0.71627 3.7246h-10.475v-0.44767q1.0028-0.10744 1.2893-0.34023t0.28651-0.93115v-8.6668q0-0.68046-0.32232-0.94906-0.32232-0.2686-1.2535-0.32232v-0.44767h10.332v3.5992h-0.44767q-0.34023-1.7907-1.1997-2.3816-0.85952-0.60883-3.0441-0.60883-0.69836 0-0.93115 0.17907-0.23279 0.16116-0.23279 0.66255v4.1544h0.07163q1.4146 0 2.0235-0.57302 0.60883-0.59092 0.8058-2.0951h0.46557v6.0525h-0.46557q-0.16116-1.5579-0.8058-2.1667-0.62674-0.60883-2.0951-0.60883v4.3334q0 0.57302 0.30441 0.7879 0.32232 0.21488 1.1818 0.21488zm9.8845-11.55 6.2494 7.682v-5.4615q0-0.94906-0.34023-1.3072-0.34023-0.37604-1.3251-0.46557v-0.44767h3.8499v0.44767q-0.87743 0.14325-1.146 0.41185-0.25069 0.25069-0.25069 1.0207v10.547h-0.50139l-8.0043-9.7412v7.1985q0 0.94906 0.32232 1.3072 0.34023 0.34023 1.3788 0.46558v0.44767h-4.0648v-0.44767q0.98487-0.12535 1.2714-0.39395 0.30441-0.2686 0.30441-1.0386v-8.4878q-0.64464-0.76999-0.94906-1.0207-0.30441-0.2686-0.57302-0.2686v-0.44767zm15.113 11.55q1.9518 0 2.9725-0.78789 1.0207-0.7879 1.7549-2.3816h0.50139l-0.71627 3.7246h-10.475v-0.44767q1.0028-0.10744 1.2893-0.34023t0.28651-0.93115v-8.6668q0-0.68046-0.32232-0.94906-0.32232-0.2686-1.2535-0.32232v-0.44767h10.332v3.5992h-0.44767q-0.34023-1.7907-1.1997-2.3816-0.85952-0.60883-3.0441-0.60883-0.69836 0-0.93115 0.17907-0.23279 0.16116-0.23279 0.66255v4.1544h0.07163q1.4146 0 2.0235-0.57302 0.60883-0.59092 0.8058-2.0951h0.46558v6.0525h-0.46558q-0.16116-1.5579-0.8058-2.1667-0.62674-0.60883-2.0951-0.60883v4.3334q0 0.57302 0.30441 0.7879 0.32232 0.21488 1.1818 0.21488zm16.868-8.3624q0 0.55511-0.17906 1.0207-0.16116 0.46557-0.41186 0.76999-0.23278 0.28651-0.64464 0.5372-0.39395 0.25069-0.75208 0.39395-0.34023 0.14325-0.82371 0.30441l3.5992 5.1034q0.2686 0.34023 0.73417 0.34023v0.44767h-3.6709l-3.7067-5.6048h-0.48348v3.5097q0 0.94906 0.2686 1.2356 0.2686 0.28651 1.3072 0.41186v0.44767h-6.0525v-0.44767q1.0565-0.12535 1.3072-0.39395 0.2686-0.2686 0.2686-1.2535v-7.9148q0-0.96696-0.30441-1.2714-0.28651-0.30441-1.2714-0.37604v-0.44767h5.766q2.4532 0 3.7425 0.82371 1.3072 0.82371 1.3072 2.3637zm-5.372-2.5786q-0.96696 0-0.96696 0.75208v4.5662q1.916-0.03581 2.5965-0.55511 0.68046-0.5193 0.68046-2.113 0-1.4146-0.5372-2.0235-0.5372-0.62673-1.7728-0.62673zm19.608 11.048v0.44767h-5.8018v-0.44767q0.37604-0.05372 0.57301-0.05372 0.85952-0.05372 0.85952-0.59092t-0.8237-2.4353h-4.029l-0.2686 0.69836q-0.5193 1.343-0.5193 1.6474 0 0.34023 0.34023 0.51929 0.34023 0.16116 1.1281 0.21488v0.44767h-3.6351v-0.44767q0.64464-0.12535 0.93115-0.48348 0.30441-0.35813 0.82371-1.6116l3.9753-9.8129h0.50138l3.9932 9.4189q0.66255 1.5758 1.0028 2.0414 0.35814 0.44767 0.87743 0.44767zm-8.9534-3.7783h3.4918l-1.8086-4.3513zm16.725 3.7067q1.1818 0 2.1488-0.57302 0.96697-0.57301 1.9697-1.6295l0.5372 0.44767-0.23279 0.2686q-0.23278 0.25069-0.30441 0.32232-0.0537 0.05372-0.32232 0.32232-0.25069 0.25069-0.39395 0.35813-0.14325 0.10744-0.44767 0.34023-0.30441 0.21488-0.5372 0.32232-0.21488 0.10744-0.57301 0.2686-0.35813 0.14325-0.69836 0.21488-0.32232 0.08953-0.73418 0.14325-0.41185 0.05372-0.84161 0.05372-2.7755 0-4.5662-1.7728-1.7728-1.7728-1.7728-4.5304 0-2.7397 1.7728-4.5662 1.7907-1.8444 4.4588-1.8444 0.84161 0 1.5758 0.23279 0.75208 0.21488 1.2535 0.42976 0.50138 0.21488 0.76999 0.21488 0.25069 0 0.42976-0.17907 0.17906-0.17907 0.35813-0.64464h0.48348v4.1902h-0.44767q-0.17906-0.39395-0.37604-0.73418-0.19697-0.35813-0.60883-0.93115-0.41185-0.57301-0.84161-0.96696-0.42976-0.41185-1.0744-0.71627-0.62674-0.30441-1.2893-0.30441-1.6116 0-2.4532 1.4504-0.84162 1.4504-0.84162 4.226 0 5.5869 3.5992 5.5869zm7.3059-1.1997v-8.6668q0-0.68046-0.35814-0.93115-0.34022-0.2686-1.3072-0.34023v-0.44767h6.2674v0.44767q-0.98487 0.03581-1.343 0.30441-0.35814 0.2686-0.35814 0.96696v8.6668q0 0.69836 0.34023 0.94906t1.3609 0.32232v0.44767h-6.2674v-0.44767q1.0028-0.08953 1.3251-0.34023 0.34023-0.25069 0.34023-0.93115zm11.997-10.654q2.7039 0 4.4767 1.8086 1.7907 1.8086 1.7907 4.5483 0 2.7755-1.7907 4.5662-1.7728 1.7907-4.5483 1.7907t-4.5662-1.7728q-1.7728-1.7907-1.7728-4.5662 0-2.7934 1.7907-4.5841 1.8086-1.7907 4.6199-1.7907zm-0.0179 0.59092q-1.5758 0-2.3995 1.5221-0.8237 1.5221-0.8237 4.423 0 2.7218 0.8058 4.1544 0.8237 1.4325 2.3637 1.4325t2.3458-1.4325q0.82371-1.4504 0.82371-4.2081 0-2.7934-0.82371-4.3334-0.8058-1.5579-2.2921-1.5579zm-1.6116-1.0207 2.4532-2.8114q0.44766-0.50139 0.94905-0.50139 0.39395 0 0.62674 0.21488 0.23278 0.21488 0.23278 0.57302 0 0.30441-0.14325 0.50139-0.14325 0.17907-0.57302 0.44767l-2.5428 1.5758zm12.714 0.69836 6.2494 7.682v-5.4615q0-0.94906-0.34022-1.3072-0.34023-0.37604-1.3251-0.46557v-0.44767h3.8499v0.44767q-0.87743 0.14325-1.146 0.41185-0.25069 0.25069-0.25069 1.0207v10.547h-0.50139l-8.0043-9.7412v7.1985q0 0.94906 0.32232 1.3072 0.34023 0.34023 1.3788 0.46558v0.44767h-4.0648v-0.44767q0.98487-0.12535 1.2714-0.39395 0.30441-0.2686 0.30441-1.0386v-8.4878q-0.64464-0.76999-0.94905-1.0207-0.30442-0.2686-0.57302-0.2686v-0.44767z"/>
  </g>
  <path transform="scale(.86602 1.1547)" d="m35.895 92.932q-0.20349-0.91571-0.30524-1.2888-0.10174-0.40698-0.37307-1.1531-0.27132-0.78005-0.57656-1.1192t-0.88179-0.81396q-0.57656-0.50873-1.3227-0.71222-0.74613-0.23741-1.8314-0.40698-1.0853-0.16958-2.4758-0.16958-1.2888 0-1.7297 0.33915-0.4409 0.30524-0.4409 1.2549v7.8683q2.5436 0 3.6289-1.0514 1.0853-1.0853 1.5601-4.002h0.84788v11.463h-0.84788q-0.33915-2.9506-1.4583-4.0698-1.1192-1.1192-3.7307-1.187v7.9022q0 1.3905 0.6783 1.8653 0.71222 0.4409 3.0524 0.54265v0.84787h-12.209v-0.84787q1.8992-0.20349 2.4419-0.64439t0.54264-1.7636v-16.415q0-1.3227-0.61047-1.7975-0.61047-0.50873-2.3741-0.61047v-0.84788h19.23v6.8169zm15.16-7.3257q5.1212 0 8.4788 3.4254 3.3915 3.4254 3.3915 8.6144 0 5.2568-3.3915 8.6484-3.3576 3.3915-8.6144 3.3915-5.2568 0-8.6484-3.3576-3.3576-3.3915-3.3576-8.6484 0-5.2908 3.3915-8.6823 3.4254-3.3915 8.7501-3.3915zm-0.03392 1.1192q-2.9845 0-4.5446 2.8828-1.5601 2.8828-1.5601 8.377 0 5.1551 1.5262 7.8683 1.5601 2.7132 4.4768 2.7132t4.4429-2.7132q1.5601-2.7471 1.5601-7.97 0-5.2908-1.5601-8.2075-1.5262-2.9506-4.3411-2.9506zm21.299 18.348v-17.873q-3.1541 0.10175-4.6464 1.4244-1.4583 1.2888-1.8992 4.3072h-0.98354l0.10175-6.8169h20.349l0.06783 6.8169h-0.98354q-0.4409-3.0184-1.9332-4.3072-1.4583-1.3227-4.5785-1.4244v17.873q0 1.9332 0.54264 2.4419 0.57656 0.50873 2.781 0.67831v0.84787h-12.108v-0.84787q2.1706-0.16958 2.7132-0.67831 0.57656-0.54264 0.57656-2.4419zm26.657-19.467q5.1212 0 8.4788 3.4254 3.3915 3.4254 3.3915 8.6144 0 5.2568-3.3915 8.6484-3.3576 3.3915-8.6144 3.3915-5.2568 0-8.6484-3.3576-3.3576-3.3915-3.3576-8.6484 0-5.2908 3.3915-8.6823 3.4254-3.3915 8.7501-3.3915zm-0.03391 1.1192q-2.9845 0-4.5446 2.8828-1.5601 2.8828-1.5601 8.377 0 5.1551 1.5262 7.8683 1.5601 2.7132 4.4768 2.7132 2.9167 0 4.4429-2.7132 1.5601-2.7471 1.5601-7.97 0-5.2908-1.5601-8.2075-1.5262-2.9506-4.3411-2.9506zm36.662-0.61047v0.84788q-1.3227 0.16958-1.8992 0.6783-0.54264 0.50873-1.1531 2.1027l-7.7326 19.908h-0.91571l-8.6823-20.315q-0.64438-1.3905-1.1192-1.7975-0.47481-0.40698-1.7297-0.57656v-0.84788h11.395v0.84788q-1.0174 0.06783-1.1192 0.06783-1.7975 0.10174-1.7975 1.2209 0 0.61047 0.78005 2.4419l4.6803 11.328 4.3072-11.158q0.6783-1.7297 0.6783-2.408 0-0.81396-0.54264-1.0853t-2.3741-0.40698v-0.84788zm12.65-0.50873q5.1212 0 8.4788 3.4254 3.3915 3.4254 3.3915 8.6144 0 5.2568-3.3915 8.6484-3.3576 3.3915-8.6144 3.3915t-8.6484-3.3576q-3.3576-3.3915-3.3576-8.6484 0-5.2908 3.3915-8.6823 3.4254-3.3915 8.7501-3.3915zm-0.0339 1.1192q-2.9845 0-4.5446 2.8828-1.5601 2.8828-1.5601 8.377 0 5.1551 1.5262 7.8683 1.5601 2.7132 4.4768 2.7132t4.4429-2.7132q1.5601-2.7471 1.5601-7.97 0-5.2908-1.5601-8.2075-1.5262-2.9506-4.3411-2.9506zm24.894 21.265q0.98353 0 1.8314-0.13566 0.88179-0.13567 1.5601-0.33916 0.6783-0.20349 1.2888-0.57655 0.64439-0.40698 1.0514-0.6783 0.44089-0.27133 0.88179-0.81397 0.4409-0.57655 0.6783-0.84787 0.23741-0.30524 0.54264-0.91571 0.30524-0.61047 0.40699-0.81396 0.10174-0.23741 0.33915-0.84788 0.27132-0.61047 0.30523-0.6783h0.98354l-1.3905 7.6987h-19.603v-0.84787q1.8653-0.23741 2.3741-0.67831 0.54264-0.44089 0.54264-1.7297v-16.415q0-1.2888-0.61047-1.7975-0.57656-0.50873-2.3062-0.61047v-0.84788h11.836v0.84788q-2.2045 0.10174-2.815 0.6783-0.61047 0.54264-0.61047 2.4419v16.008q0 1.0853 0.57655 1.4923 0.57656 0.40699 2.1367 0.40699zm18.043-2.9167v-17.873q-3.1541 0.10175-4.6464 1.4244-1.4584 1.2888-1.8992 4.3072h-0.98354l0.10175-6.8169h20.349l0.0678 6.8169h-0.98354q-0.4409-3.0184-1.9332-4.3072-1.4584-1.3227-4.5785-1.4244v17.873q0 1.9332 0.54264 2.4419 0.57656 0.50873 2.781 0.67831v0.84787h-12.108v-0.84787q2.1706-0.16958 2.7132-0.67831 0.57655-0.54264 0.57655-2.4419zm36.052 3.1202v0.84787h-10.988v-0.84787q0.71222-0.10175 1.0853-0.10175 1.6279-0.10174 1.6279-1.1192 0-1.0174-1.5601-4.6124h-7.6309l-0.50873 1.3227q-0.98354 2.5436-0.98354 3.1202 0 0.64438 0.64439 0.98354 0.64439 0.30523 2.1366 0.40698v0.84787h-6.8848v-0.84787q1.2209-0.23741 1.7636-0.91571 0.57656-0.6783 1.5601-3.0524l7.5292-18.585h0.94962l7.5631 17.839q1.2549 2.9845 1.8992 3.8663 0.67831 0.84788 1.6618 0.84788zm-16.958-7.1561h6.6134l-3.4254-8.2414zm21.502 4.7481v-16.415q0-1.2888-0.6783-1.7636-0.64438-0.50873-2.4758-0.64439v-0.84788h11.87v0.84788q-1.8653 0.06783-2.5436 0.57656-0.6783 0.50873-0.6783 1.8314v16.415q0 1.3227 0.64439 1.7975 0.64438 0.47482 2.5776 0.61048v0.84787h-11.87v-0.84787q1.8992-0.16958 2.5097-0.64439 0.64438-0.47481 0.64438-1.7636zm23.401 2.2723q2.2384 0 4.0698-1.0853 1.8314-1.0853 3.7307-3.0863l1.0174 0.84788-0.4409 0.50872q-0.44089 0.47481-0.57655 0.61047-0.10175 0.10175-0.61048 0.61048-0.47481 0.47481-0.74613 0.6783t-0.84788 0.64439q-0.57655 0.40698-1.0174 0.61047-0.40698 0.20349-1.0853 0.50872-0.6783 0.27132-1.3227 0.40698-0.61047 0.16958-1.3905 0.27133-0.78005 0.10174-1.594 0.10174-5.2568 0-8.6484-3.3576-3.3576-3.3576-3.3576-8.5805 0-5.189 3.3576-8.6484 3.3915-3.4933 8.4449-3.4933 1.594 0 2.9845 0.4409 1.4244 0.40698 2.3741 0.81396 0.94962 0.40698 1.4583 0.40698 0.47482 0 0.81397-0.33915t0.6783-1.2209h0.91571v7.9361h-0.84788q-0.33915-0.74613-0.71222-1.3905-0.37306-0.6783-1.1531-1.7636t-1.594-1.8314q-0.81396-0.78005-2.0349-1.3566-1.187-0.57656-2.4419-0.57656-3.0524 0-4.6464 2.7471t-1.594 8.004q0 10.582 6.8169 10.582zm33.746 0.13566v0.84787h-10.988v-0.84787q0.71221-0.10175 1.0853-0.10175 1.6279-0.10174 1.6279-1.1192 0-1.0174-1.5601-4.6124h-7.6309l-0.50873 1.3227q-0.98353 2.5436-0.98353 3.1202 0 0.64438 0.64438 0.98354 0.64439 0.30523 2.1367 0.40698v0.84787h-6.8848v-0.84787q1.2209-0.23741 1.7636-0.91571 0.57655-0.6783 1.5601-3.0524l7.5292-18.585h0.94962l7.5631 17.839q1.2549 2.9845 1.8992 3.8663 0.6783 0.84788 1.6618 0.84788zm-16.958-7.1561h6.6134l-3.4254-8.2414z" stroke-width="5.4" style="paint-order:markers stroke fill" aria-label="FOTOVOLTAICA"/>
  <path transform="scale(.89443 1.118)" d="m25.446 121.97q0 0.99997-0.45587 1.7867-0.45587 0.78674-1.3088 1.2206-0.84556 0.42646-2.0146 0.42646h-2.5735v3.647h-2.1691v-10.36h4.6543q1.8602 0 2.8602 0.86027 1.0073 0.85291 1.0073 2.419zm-2.1838 0.0368q0-1.6323-1.9264-1.6323h-2.2426v3.3602h2.3014q0.89703 0 1.3823-0.44116 0.48528-0.44852 0.48528-1.2867zm10.823 7.0439-2.4043-3.9337h-2.544v3.9337h-2.1691v-10.36h5.1763q1.8529 0 2.8602 0.80144 1.0073 0.7941 1.0073 2.2867 0 1.0882-0.61763 1.8823-0.61763 0.78674-1.6691 1.0367l2.8014 4.3528zm-0.25734-7.1836q0-1.4926-1.9117-1.4926h-2.7793v3.0587h2.8382q0.91174 0 1.3823-0.41175 0.47058-0.41176 0.47058-1.1544zm14.088 1.9558q0 1.6176-0.63969 2.8455-0.63969 1.2279-1.8308 1.8823-1.1911 0.64704-2.7793 0.64704-2.4411 0-3.8308-1.4338-1.3823-1.4411-1.3823-3.9411 0-2.4926 1.3823-3.8896t3.8455-1.397 3.8455 1.4117q1.3897 1.4117 1.3897 3.8749zm-2.2132 0q0-1.6764-0.7941-2.6249-0.7941-0.95586-2.2279-0.95586-1.4558 0-2.2499 0.94851-0.7941 0.94115-0.7941 2.6323 0 1.7058 0.8088 2.6911 0.81615 0.97791 2.2205 0.97791 1.4558 0 2.2426-0.95586 0.7941-0.95585 0.7941-2.7132zm8.9556 0.97791v4.2499h-2.1617v-4.2499l-3.6911-6.1101h2.272l2.4852 4.3822 2.5146-4.3822h2.272zm4.941 4.2499v-10.36h8.1468v1.6764h-5.9778v2.6029h5.5293v1.6764h-5.5293v2.7279h6.2792v1.6764zm14.882-1.5588q1.9632 0 2.7279-1.9705l1.8897 0.71321q-0.61028 1.5-1.7941 2.2352-1.1764 0.72792-2.8234 0.72792-2.4999 0-3.8675-1.4117-1.3603-1.4191-1.3603-3.9631 0-2.5514 1.3161-3.919 1.3161-1.3676 3.8161-1.3676 1.8235 0 2.9705 0.73527 1.147 0.72792 1.6102 2.147l-1.9117 0.52205q-0.24264-0.77939-0.95586-1.2353-0.70586-0.46323-1.6691-0.46323-1.4705 0-2.2352 0.91174-0.75733 0.91174-0.75733 2.669 0 1.7867 0.77939 2.7279 0.78674 0.94115 2.2646 0.94115zm10.713-7.1248v8.6836h-2.1691v-8.6836h-3.3455v-1.6764h8.8674v1.6764zm14.323 3.4558q0 1.6176-0.63969 2.8455-0.63969 1.2279-1.8308 1.8823-1.1911 0.64704-2.7793 0.64704-2.4411 0-3.8308-1.4338-1.3823-1.4411-1.3823-3.9411 0-2.4926 1.3823-3.8896t3.8455-1.397 3.8455 1.4117q1.3897 1.4117 1.3897 3.8749zm-2.2132 0q0-1.6764-0.7941-2.6249-0.7941-0.95586-2.2279-0.95586-1.4558 0-2.2499 0.94851-0.7941 0.94115-0.7941 2.6323 0 1.7058 0.8088 2.6911 0.81615 0.97791 2.2205 0.97791 1.4558 0 2.2426-0.95586 0.7941-0.95585 0.7941-2.7132zm8.0365 5.2278v-10.36h2.169v10.36zm8.4042-4.1837v2.9999h-1.6617v-2.9999h-2.9337v-1.647h2.9337v-2.9999h1.6617v2.9999h2.9558v1.647zm13.808-1.0735q0 1.6029-0.63234 2.8014-0.62498 1.1911-1.7794 1.8235-1.147 0.63234-2.6323 0.63234h-4.1911v-10.36h3.7499q2.6176 0 4.0514 1.3235 1.4338 1.3161 1.4338 3.7793zm-2.1838 0q0-1.6691-0.86763-2.544-0.86762-0.88233-2.4779-0.88233h-1.5367v7.0072h1.8382q1.397 0 2.2205-0.96321t0.82351-2.6176z" stroke-width="5.4" style="paint-order:markers stroke fill" aria-label="PROYECTO I+D"/>
 </g>
</svg>
