<?xml version="1.0" encoding="UTF-8" standalone="no"?>
<!-- Created with Inkscape (http://www.inkscape.org/) -->

<svg
   width="287.51401mm"
   height="59.209808mm"
   version="1.1"
   viewBox="0 0 287.51402 59.20981"
   id="svg3"
   sodipodi:docname="solar.svg"
   inkscape:version="1.4 (e7c3feb100, 2024-10-09)"
   xmlns:inkscape="http://www.inkscape.org/namespaces/inkscape"
   xmlns:sodipodi="http://sodipodi.sourceforge.net/DTD/sodipodi-0.dtd"
   xmlns="http://www.w3.org/2000/svg"
   xmlns:svg="http://www.w3.org/2000/svg">
  <defs
     id="defs3" />
  <sodipodi:namedview
     id="namedview3"
     pagecolor="#ffffff"
     bordercolor="#000000"
     borderopacity="0.25"
     inkscape:showpageshadow="2"
     inkscape:pageopacity="0.0"
     inkscape:pagecheckerboard="0"
     inkscape:deskcolor="#d1d1d1"
     inkscape:document-units="mm"
     inkscape:zoom="0.83153189"
     inkscape:cx="517.71917"
     inkscape:cy="-82.378079"
     inkscape:window-width="1920"
     inkscape:window-height="1008"
     inkscape:window-x="0"
     inkscape:window-y="0"
     inkscape:window-maximized="1"
     inkscape:current-layer="g3" />
  <g
     transform="translate(-15.577847,-82.974525)"
     stroke-linecap="round"
     stroke-linejoin="round"
     id="g3">
    <path
       transform="scale(0.86602,1.1547)"
       d="m 34.052,99.992 q 2.8049,0 5.0997,-1.3599 2.2949,-1.3599 4.6748,-3.8673 l 1.2749,1.0624 -0.55247,0.63747 q -0.55247,0.59497 -0.72246,0.76496 -0.12749,0.12749 -0.76496,0.76496 -0.59497,0.59497 -0.93495,0.84996 -0.33998,0.25499 -1.0624,0.80746 -0.72246,0.50997 -1.2749,0.76496 -0.50998,0.25499 -1.3599,0.63747 -0.84996,0.33998 -1.6574,0.50997 -0.76496,0.21249 -1.7424,0.33998 -0.97745,0.1275 -1.9974,0.1275 -6.5872,0 -10.837,-4.2073 -4.2073,-4.2073 -4.2073,-10.752 0,-6.5022 4.2073,-10.837 4.2498,-4.3773 10.582,-4.3773 1.9974,0 3.7398,0.55247 1.7849,0.50997 2.9749,1.0199 1.19,0.50993 1.8274,0.50998 0.59497,0 1.02,-0.42498 0.42503,-0.42498 0.84996,-1.5299 h 1.1474 v 9.9445 h -1.0624 q -0.42498,-0.93495 -0.89246,-1.7424 -0.46748,-0.84996 -1.4449,-2.2099 -0.97745,-1.3599 -1.9974,-2.2949 -1.0199,-0.97745 -2.5499,-1.6999 -1.4874,-0.72246 -3.0598,-0.72246 -3.8248,0 -5.8222,3.4423 -1.9974,3.4423 -1.9974,10.03 0,13.259 8.5421,13.259 z m 42.285,0.16999 v 1.0624 H 62.568 v -1.0624 q 0.89246,-0.12749 1.3599,-0.12749 2.0399,-0.1275 2.0399,-1.4024 0,-1.2749 -1.9549,-5.7797 h -9.562 l -0.63747,1.6574 q -1.2324,3.1873 -1.2324,3.9098 0,0.80746 0.80746,1.2324 0.80746,0.38248 2.6774,0.50997 v 1.0624 h -8.6271 v -1.0624 q 1.5299,-0.29748 2.2099,-1.1474 0.72246,-0.84996 1.9549,-3.8248 l 9.4345,-23.289 h 1.1899 l 9.477,22.354 q 1.5724,3.7398 2.3799,4.8448 0.84996,1.0624 2.0824,1.0624 z m -21.249,-8.9671 h 8.2871 l -4.2923,-10.327 z m 36.931,8.7121 q 1.2324,0 2.2949,-0.16999 1.1049,-0.16999 1.9549,-0.42498 0.84996,-0.25499 1.6149,-0.72246 0.80746,-0.50998 1.3174,-0.84996 0.55247,-0.33998 1.1049,-1.02 0.55248,-0.72246 0.84996,-1.0624 0.29749,-0.38248 0.67997,-1.1474 0.38248,-0.76496 0.50997,-1.02 0.1275,-0.29748 0.42498,-1.0624 0.33998,-0.76496 0.38248,-0.84996 h 1.2324 l -1.7424,9.647 h -24.564 v -1.0624 q 2.3374,-0.29748 2.9749,-0.84996 0.67997,-0.55247 0.67997,-2.1674 v -20.569 q 0,-1.6149 -0.76496,-2.2524 -0.72246,-0.63747 -2.8899,-0.76496 v -1.0624 h 14.832 v 1.0624 q -2.7624,0.12749 -3.5273,0.84996 -0.76496,0.67997 -0.76496,3.0598 v 20.059 q 0,1.3599 0.72246,1.8699 0.72246,0.50998 2.6774,0.50998 z m 31.151,0.085 q 2.8049,0 5.0998,-1.3599 2.2949,-1.3599 4.6748,-3.8673 l 1.2749,1.0624 -0.55247,0.63747 q -0.55247,0.59497 -0.72246,0.76496 -0.1275,0.12749 -0.76496,0.76496 -0.59497,0.59497 -0.93496,0.84996 -0.33998,0.25499 -1.0624,0.80746 -0.72246,0.50997 -1.2749,0.76496 -0.50998,0.25499 -1.3599,0.63747 -0.84995,0.33998 -1.6574,0.50997 -0.76497,0.21249 -1.7424,0.33998 -0.97745,0.1275 -1.9974,0.1275 -6.5872,0 -10.837,-4.2073 -4.2073,-4.2073 -4.2073,-10.752 0,-6.5022 4.2073,-10.837 4.2498,-4.3773 10.582,-4.3773 1.9974,0 3.7398,0.55247 1.7849,0.50997 2.9748,1.0199 1.1899,0.50993 1.8274,0.50998 0.59497,0 1.02,-0.42498 0.42503,-0.42498 0.84996,-1.5299 h 1.1474 v 9.9445 h -1.0624 q -0.42498,-0.93495 -0.89246,-1.7424 -0.46748,-0.84996 -1.4449,-2.2099 -0.97745,-1.3599 -1.9974,-2.2949 -1.02,-0.97745 -2.5499,-1.6999 -1.4874,-0.72246 -3.0598,-0.72246 -3.8248,0 -5.8222,3.4423 -1.9974,3.4423 -1.9974,10.03 0,13.259 8.5421,13.259 z m 27.751,-26.434 q -2.5499,0.085 -3.3573,0.80746 -0.76497,0.67997 -0.76497,3.1023 v 14.194 q 0,4.3348 1.4874,6.3322 1.4874,1.9549 4.7598,1.9549 3.7823,0 5.6097,-2.2524 1.8274,-2.2524 1.8274,-6.9697 v -12.962 q 0,-2.3374 -0.84996,-3.1448 -0.80746,-0.84996 -3.3148,-1.0624 v -1.0624 h 9.3495 v 1.0624 q -2.0399,0.29748 -2.6774,1.0199 -0.63746,0.72246 -0.63746,2.5924 v 13.557 q 0,11.304 -10.964,11.304 -4.7598,0 -7.8621,-2.2524 -1.9549,-1.4024 -2.7199,-3.1873 -0.76496,-1.7849 -0.76496,-4.9298 v -14.194 q 0,-2.2949 -0.63747,-2.9749 -0.59497,-0.72246 -2.8474,-0.93495 v -1.0624 h 14.364 z m 30.386,26.349 q 1.2324,0 2.2949,-0.16999 1.1049,-0.16999 1.9549,-0.42498 0.84996,-0.25499 1.6149,-0.72246 0.80746,-0.50998 1.3174,-0.84996 0.55247,-0.33998 1.1049,-1.02 0.55247,-0.72246 0.84996,-1.0624 0.29748,-0.38248 0.67997,-1.1474 0.38248,-0.76496 0.50997,-1.02 0.12749,-0.29748 0.42498,-1.0624 0.33998,-0.76496 0.38248,-0.84996 h 1.2324 l -1.7424,9.647 h -24.564 v -1.0624 q 2.3374,-0.29748 2.9748,-0.84996 0.67997,-0.55247 0.67997,-2.1674 v -20.569 q 0,-1.6149 -0.76496,-2.2524 -0.72247,-0.63747 -2.8899,-0.76496 v -1.0624 h 14.832 v 1.0624 q -2.7624,0.12749 -3.5273,0.84996 -0.76496,0.67997 -0.76496,3.0598 v 20.059 q 0,1.3599 0.72246,1.8699 0.72247,0.50998 2.6774,0.50998 z m 43.348,0.25499 v 1.0624 h -13.769 v -1.0624 q 0.89245,-0.12749 1.3599,-0.12749 2.0399,-0.1275 2.0399,-1.4024 0,-1.2749 -1.9549,-5.7797 h -9.562 l -0.63747,1.6574 q -1.2324,3.1873 -1.2324,3.9098 0,0.80746 0.80746,1.2324 0.80746,0.38248 2.6774,0.50997 v 1.0624 h -8.6271 v -1.0624 q 1.5299,-0.29748 2.2099,-1.1474 0.72246,-0.84996 1.9549,-3.8248 l 9.4345,-23.289 h 1.1899 l 9.477,22.354 q 1.5724,3.7398 2.3799,4.8448 0.84996,1.0624 2.0824,1.0624 z m -21.249,-8.9671 h 8.2871 l -4.2923,-10.327 z m 26.519,6.1622 v -20.951 q 0,-1.4449 -0.76496,-2.0399 -0.72247,-0.59497 -2.7624,-0.80746 v -1.0624 h 12.962 q 7.3521,0 11.559,3.7398 4.2073,3.7398 4.2073,10.327 0,6.5872 -4.2073,10.624 -4.2073,4.0373 -11.092,4.0373 h -13.429 v -1.0624 q 1.8274,-0.0425 2.6774,-0.72246 0.84996,-0.67997 0.84996,-2.0824 z m 17.807,-10.157 q 0,-3.7398 -0.76497,-6.4597 -0.76496,-2.7199 -2.0399,-4.1223 -1.2749,-1.4024 -2.6774,-2.0399 -1.3599,-0.63747 -2.9324,-0.63747 -2.5074,0 -2.5074,1.4874 v 21.844 q 0,1.4449 0.50997,1.9549 0.50998,0.50998 1.9549,0.50998 8.4571,0 8.4571,-12.537 z m 25.584,-15.342 q 6.4172,0 10.624,4.2923 4.2498,4.2923 4.2498,10.794 0,6.5872 -4.2498,10.837 -4.2073,4.2498 -10.794,4.2498 -6.5872,0 -10.837,-4.2073 -4.2073,-4.2498 -4.2073,-10.837 0,-6.6297 4.2498,-10.879 4.2923,-4.2498 10.964,-4.2498 z m -0.0425,1.4024 q -3.7398,0 -5.6947,3.6123 -1.9549,3.6123 -1.9549,10.497 0,6.4597 1.9124,9.8595 1.9549,3.3998 5.6097,3.3998 3.6548,0 5.5672,-3.3998 1.9549,-3.4423 1.9549,-9.987 0,-6.6297 -1.9549,-10.284 -1.9124,-3.6973 -5.4397,-3.6973 z m 42.923,6.7997 q 0,1.3174 -0.42498,2.4224 -0.38248,1.1049 -0.97745,1.8274 -0.55248,0.67997 -1.5299,1.2749 -0.93495,0.59497 -1.7849,0.93495 -0.80746,0.33998 -1.9549,0.72246 l 8.5421,12.112 q 0.63747,0.80746 1.7424,0.80746 v 1.0624 h -8.7121 l -8.7971,-13.302 h -1.1474 v 8.3296 q 0,2.2524 0.63747,2.9324 0.63747,0.67997 3.1024,0.97745 v 1.0624 h -14.364 v -1.0624 q 2.5074,-0.29748 3.1023,-0.93495 0.63747,-0.63747 0.63747,-2.9749 v -18.784 q 0,-2.2949 -0.72246,-3.0174 -0.67997,-0.72246 -3.0174,-0.89246 v -1.0624 h 13.684 q 5.8222,0 8.8821,1.9549 3.1024,1.9549 3.1024,5.6097 z m -12.749,-6.1197 q -2.2949,0 -2.2949,1.7849 v 10.837 q 4.5473,-0.085 6.1622,-1.3174 1.6149,-1.2324 1.6149,-5.0148 0,-3.3573 -1.2749,-4.8023 -1.2749,-1.4874 -4.2073,-1.4874 z m 46.535,26.221 v 1.0624 h -13.769 v -1.0624 q 0.89245,-0.12749 1.3599,-0.12749 2.0399,-0.1275 2.0399,-1.4024 0,-1.2749 -1.9549,-5.7797 h -9.562 l -0.63747,1.6574 q -1.2324,3.1873 -1.2324,3.9098 0,0.80746 0.80746,1.2324 0.80746,0.38248 2.6774,0.50997 v 1.0624 h -8.6271 v -1.0624 q 1.5299,-0.29748 2.2099,-1.1474 0.72246,-0.84996 1.9549,-3.8248 l 9.4345,-23.289 h 1.1899 l 9.477,22.354 q 1.5724,3.7398 2.3799,4.8448 0.84996,1.0624 2.0824,1.0624 z m -21.249,-8.9671 h 8.2871 l -4.2923,-10.327 z"
       stroke-width="6.7666"
       style="paint-order:markers stroke fill"
       aria-label="CALCULADORA"
       id="path2" />
    <path
       transform="scale(0.89443,1.118)"
       d="m 21.58,113.04 v 5.1323 h 8.4871 v 2.6838 H 21.58 v 6.0857 h -3.4725 v -16.586 h 12.23 v 2.6838 z m 27.38,5.5325 q 0,2.5897 -1.0241,4.5555 -1.0241,1.9658 -2.931,3.0134 -1.9069,1.0359 -4.4495,1.0359 -3.9081,0 -6.1328,-2.2954 -2.213,-2.3072 -2.213,-6.3094 0,-3.9904 2.213,-6.227 2.213,-2.2365 6.1564,-2.2365 3.9434,0 6.1564,2.2601 2.2248,2.2601 2.2248,6.2034 z m -3.5431,0 q 0,-2.6838 -1.2713,-4.2023 -1.2713,-1.5303 -3.5667,-1.5303 -2.3307,0 -3.602,1.5185 -1.2713,1.5067 -1.2713,4.2141 0,2.7309 1.2948,4.3083 1.3066,1.5656 3.5549,1.5656 2.3307,0 3.5902,-1.5303 1.2713,-1.5303 1.2713,-4.3436 z m 13.655,-5.5325 v 13.902 H 55.5994 V 113.04 h -5.3559 v -2.6838 h 14.196 v 2.6838 z m 22.93,5.5325 q 0,2.5897 -1.0241,4.5555 -1.0241,1.9658 -2.931,3.0134 -1.9069,1.0359 -4.4495,1.0359 -3.9081,0 -6.1328,-2.2954 -2.213,-2.3072 -2.213,-6.3094 0,-3.9904 2.213,-6.227 2.213,-2.2365 6.1564,-2.2365 3.9434,0 6.1564,2.2601 2.2248,2.2601 2.2248,6.2034 z m -3.5431,0 q 0,-2.6838 -1.2713,-4.2023 -1.2713,-1.5303 -3.5667,-1.5303 -2.3307,0 -3.602,1.5185 -1.2713,1.5067 -1.2713,4.2141 0,2.7309 1.2948,4.3083 1.3066,1.5656 3.5549,1.5656 2.3307,0 3.5902,-1.5303 1.2713,-1.5303 1.2713,-4.3436 z m 14.373,8.3694 h -3.5196 l -6.1328,-16.586 h 3.6255 l 3.4137,10.653 q 0.31782,1.0359 0.87107,3.1312 l 0.2472,-1.0123 0.60033,-2.1188 3.4019,-10.653 h 3.5902 z m 24.002,-8.3694 q 0,2.5897 -1.0241,4.5555 -1.0241,1.9658 -2.931,3.0134 -1.9069,1.0359 -4.4495,1.0359 -3.908,0 -6.1328,-2.2954 -2.213,-2.3072 -2.213,-6.3094 0,-3.9904 2.213,-6.227 2.213,-2.2365 6.1564,-2.2365 3.9434,0 6.1564,2.2601 2.2248,2.2601 2.2248,6.2034 z m -3.5432,0 q 0,-2.6838 -1.2713,-4.2023 -1.2713,-1.5303 -3.5667,-1.5303 -2.3307,0 -3.602,1.5185 -1.2713,1.5067 -1.2713,4.2141 0,2.7309 1.2948,4.3083 1.3066,1.5656 3.5549,1.5656 2.3307,0 3.5902,-1.5303 1.2713,-1.5303 1.2713,-4.3436 z m 6.1681,8.3694 v -16.586 h 3.4725 v 13.902 h 8.8991 v 2.6838 z m 20.423,-13.902 v 13.902 h -3.4725 v -13.902 h -5.3559 v -2.6838 h 14.196 v 2.6838 z m 17.174,13.902 -1.4714,-4.2376 h -6.3212 l -1.4714,4.2376 h -3.4725 l 6.0504,-16.586 h 4.0964 l 6.0269,16.586 z m -4.6379,-14.031 -0.0706,0.25897 q -0.11772,0.42376 -0.28251,0.96524 -0.1648,0.54147 -2.0247,5.9562 h 4.7674 l -1.6362,-4.7674 -0.50616,-1.6009 z m 10.323,14.031 v -16.586 h 3.4725 v 16.586 z m 14.443,-2.4955 q 3.1429,0 4.3671,-3.1547 l 3.0252,1.1418 q -0.97701,2.4013 -2.8722,3.5785 -1.8834,1.1654 -4.5202,1.1654 -4.0022,0 -6.1917,-2.2601 -2.1777,-2.2718 -2.1777,-6.3447 0,-4.0846 2.107,-6.2741 2.1071,-2.1894 6.1093,-2.1894 2.9193,0 4.7556,1.1771 1.8363,1.1654 2.5779,3.4372 l -3.0605,0.83576 q -0.38845,-1.2478 -1.5303,-1.9776 -1.13,-0.74159 -2.6721,-0.74159 -2.3542,0 -3.5785,1.4596 -1.2124,1.4596 -1.2124,4.273 0,2.8604 1.2478,4.3671 1.2595,1.5067 3.6255,1.5067 z m 21.388,2.4955 -1.4714,-4.2376 h -6.3212 l -1.4714,4.2376 h -3.4725 l 6.0504,-16.586 h 4.0964 l 6.0269,16.586 z m -4.6379,-14.031 -0.0706,0.25897 q -0.11772,0.42376 -0.28251,0.96524 -0.1648,0.54147 -2.0247,5.9562 h 4.7674 l -1.6362,-4.7674 -0.50616,-1.6009 z"
       stroke-width="8.645"
       style="paint-order:markers stroke fill"
       aria-label="FOTOVOLTAICA"
       id="path3" />
  </g>
</svg>
