<?xml version="1.0" encoding="UTF-8"?>
<!-- Created with Inkscape (http://www.inkscape.org/) -->
<svg width="287.96mm" height="82.184mm" version="1.1" viewBox="0 0 287.96 82.184" xmlns="http://www.w3.org/2000/svg">
 <g transform="translate(-15.137 -60.007)" stroke-linecap="round" stroke-linejoin="round">
  <path transform="scale(.86602 1.1547)" d="m23.396 61.301v4.474q0 1.323 0.33675 1.6838 0.36081 0.33675 1.78 0.52918v0.60134h-8.0339v-0.60134q0.52918-0.09622 0.57729-0.09622 0.84188-0.09622 1.1305-0.52918 0.3127-0.45702 0.3127-1.5875v-10.632q0-1.2748-0.38486-1.6838-0.38486-0.43297-1.6357-0.52918v-0.60134h7.7453q3.0067 0 4.6424 1.1546 1.6597 1.1305 1.6597 3.2232 0 1.3951-0.79377 2.4535-0.76972 1.0584-2.2129 1.6116-0.79377 0.3127-1.7319 0.40891-0.93809 0.09621-3.3916 0.12027zm0-0.84188q2.3573 0 3.1751-0.72161 0.81782-0.72161 0.81782-2.9105 0-1.9483-0.64945-2.7902-0.64945-0.86593-2.1408-0.86593-1.2027 0-1.2027 0.84188zm23.982-3.8486q0 0.74566-0.24054 1.3711-0.21648 0.6254-0.55324 1.0343-0.3127 0.38486-0.86593 0.72161-0.52918 0.33675-1.0103 0.52918-0.45702 0.19243-1.1065 0.40891l4.8348 6.8553q0.36081 0.45702 0.9862 0.45702v0.60134h-4.931l-4.9791-7.5288h-0.64945v4.7145q0 1.2748 0.3608 1.6597 0.36081 0.38486 1.7559 0.55324v0.60134h-8.1302v-0.60134q1.4192-0.16838 1.7559-0.52918 0.3608-0.36081 0.3608-1.6838v-10.632q0-1.2989-0.40891-1.7078-0.38486-0.40891-1.7078-0.50513v-0.60134h7.7453q3.2954 0 5.0272 1.1065 1.7559 1.1065 1.7559 3.1751zm-7.2161-3.4637q-1.2989 0-1.2989 1.0103v6.1337q2.5737-0.04811 3.4878-0.74566 0.91404-0.69756 0.91404-2.8383 0-1.9002-0.72161-2.7181-0.72161-0.84188-2.3813-0.84188zm18.954-1.1786q3.6321 0 6.0134 2.4294 2.4054 2.4294 2.4054 6.1096 0 3.7283-2.4054 6.1337-2.3813 2.4054-6.1096 2.4054-3.7283 0-6.1337-2.3813-2.3813-2.4054-2.3813-6.1337 0-3.7524 2.4054-6.1577 2.4294-2.4054 6.2059-2.4054zm-0.02405 0.79377q-2.1167 0-3.2232 2.0446-1.1065 2.0446-1.1065 5.9413 0 3.6562 1.0824 5.5805 1.1065 1.9243 3.1751 1.9243t3.151-1.9243q1.1065-1.9484 1.1065-5.6526 0-3.7524-1.1065-5.821-1.0824-2.0927-3.0789-2.0927zm25.978-0.43297v0.60134q-1.1786 0.16838-1.6357 0.93809l-4.5943 7.4807v4.4259q0 1.323 0.3608 1.7078 0.38486 0.36081 1.8521 0.50513v0.60134h-8.3466v-0.60134q1.4673-0.14432 1.8521-0.50513 0.38486-0.38486 0.38486-1.7078v-3.5359l-4.4018-7.9858q-0.74566-1.2508-1.9243-1.323v-0.60134h8.058v0.60134l-0.60134 0.02405q-0.74566 0-1.0584 0.16838-0.28864 0.16838-0.28864 0.55324 0 0.24054 0.12027 0.52918 0.12027 0.26459 0.26459 0.52918 0.16838 0.26459 0.19243 0.3608l2.8864 5.5805 2.67-4.4499q0.93809-1.5394 0.93809-2.2851 0-0.52918-0.40891-0.72161-0.40891-0.19243-1.6116-0.28864v-0.60134zm8.7315 15.515q2.6219 0 3.9929-1.0584t2.3573-3.1991h0.67351l-0.96215 5.0032h-14.071v-0.60134q1.347-0.14432 1.7319-0.45702t0.38486-1.2508v-11.642q0-0.91404-0.43297-1.2748-0.43297-0.36081-1.6838-0.43297v-0.60134h13.879v4.8348h-0.60134q-0.45702-2.4054-1.6116-3.1991-1.1546-0.81783-4.0891-0.81783-0.93809 0-1.2508 0.24054-0.3127 0.21648-0.3127 0.88999v5.5805h0.09621q1.9002 0 2.7181-0.76972 0.81782-0.79377 1.0824-2.8143h0.6254v8.1302h-0.6254q-0.21648-2.0927-1.0824-2.9105-0.84188-0.81783-2.8143-0.81783v5.821q0 0.76972 0.40891 1.0584 0.43297 0.28864 1.5875 0.28864zm17.583 0.04811q1.5875 0 2.8864-0.76972 1.2989-0.76972 2.6459-2.1889l0.72161 0.60134-0.3127 0.3608q-0.3127 0.33675-0.40891 0.43297-0.0722 0.07216-0.43297 0.43297-0.33675 0.33675-0.52918 0.48107-0.19243 0.14432-0.60134 0.45702-0.40891 0.28864-0.72161 0.43297-0.28865 0.14432-0.76972 0.36081-0.48107 0.19243-0.93809 0.28864-0.43297 0.12027-0.98621 0.19243-0.55323 0.07216-1.1305 0.07216-3.7283 0-6.1337-2.3813-2.3813-2.3813-2.3813-6.0856 0-3.6802 2.3813-6.1337 2.4054-2.4775 5.9894-2.4775 1.1305 0 2.1167 0.3127 1.0103 0.28864 1.6838 0.57729 0.67351 0.28864 1.0343 0.28864 0.33675 0 0.57729-0.24054t0.48107-0.86593h0.64945v5.6286h-0.60134q-0.24054-0.52918-0.50513-0.9862-0.26459-0.48107-0.81782-1.2508-0.55324-0.76972-1.1305-1.2989-0.57728-0.55324-1.4432-0.96215-0.84188-0.40891-1.7319-0.40891-2.1648 0-3.2954 1.9484t-1.1305 5.6767q0 7.5048 4.8348 7.5048zm12.917-2.1167v-12.676q-2.237 0.07216-3.2954 1.0103-1.0343 0.91404-1.347 3.0548h-0.69755l0.0722-4.8348h14.432l0.0481 4.8348h-0.69755q-0.3127-2.1408-1.3711-3.0548-1.0343-0.93809-3.2472-1.0103v12.676q0 1.3711 0.38486 1.7319 0.40891 0.3608 1.9724 0.48107v0.60134h-8.5872v-0.60134q1.5394-0.12027 1.9243-0.48107 0.40891-0.38486 0.40891-1.7319zm18.906-13.807q3.6321 0 6.0134 2.4294 2.4054 2.4294 2.4054 6.1096 0 3.7283-2.4054 6.1337-2.3813 2.4054-6.1096 2.4054t-6.1337-2.3813q-2.3813-2.4054-2.3813-6.1337 0-3.7524 2.4054-6.1577 2.4294-2.4054 6.2059-2.4054zm-0.0241 0.79377q-2.1167 0-3.2232 2.0446-1.1065 2.0446-1.1065 5.9413 0 3.6562 1.0824 5.5805 1.1065 1.9243 3.1751 1.9243t3.151-1.9243q1.1065-1.9484 1.1065-5.6526 0-3.7524-1.1065-5.821-1.0824-2.0927-3.0789-2.0927zm18.016 13.518v-11.642q0-0.91404-0.48108-1.2508-0.45702-0.3608-1.7559-0.45702v-0.60134h8.4188v0.60134q-1.323 0.04811-1.804 0.40891-0.48108 0.3608-0.48108 1.2989v11.642q0 0.9381 0.45703 1.2748 0.45702 0.33675 1.8281 0.43297v0.60134h-8.4188v-0.60134q1.347-0.12027 1.78-0.45702 0.45702-0.33675 0.45702-1.2508zm21.432-2.7181h-5.4602v5.4121h-2.3091v-5.4121h-5.5083v-2.3092h5.5083v-5.364h2.3092v5.364h5.4602zm3.9689 2.8383v-11.858q0-0.81783-0.43297-1.1546-0.40891-0.33675-1.5635-0.45702v-0.60134h7.3364q4.1613 0 6.5426 2.1167 2.3813 2.1167 2.3813 5.845 0 3.7283-2.3813 6.0134-2.3813 2.2851-6.278 2.2851h-7.601v-0.60134q1.0343-0.02405 1.5154-0.40891 0.48107-0.38486 0.48107-1.1786zm10.078-5.7488q0-2.1167-0.43297-3.6562-0.43296-1.5394-1.1546-2.3332-0.72161-0.79377-1.5154-1.1546-0.76972-0.36081-1.6597-0.36081-1.4192 0-1.4192 0.84188v12.364q0 0.81783 0.28864 1.1065 0.28865 0.28864 1.1065 0.28864 4.7867 0 4.7867-7.0958z" stroke-width="7.2537" style="paint-order:markers stroke fill" aria-label="PROYECTO I+D
"/>
  <path transform="scale(.86602 1.1547)" d="m34.052 99.992q2.8049 0 5.0997-1.3599 2.2949-1.3599 4.6748-3.8673l1.2749 1.0624-0.55247 0.63747q-0.55247 0.59497-0.72246 0.76496-0.12749 0.12749-0.76496 0.76496-0.59497 0.59497-0.93495 0.84996-0.33998 0.25499-1.0624 0.80746-0.72246 0.50997-1.2749 0.76496-0.50998 0.25499-1.3599 0.63747-0.84996 0.33998-1.6574 0.50997-0.76496 0.21249-1.7424 0.33998-0.97745 0.1275-1.9974 0.1275-6.5872 0-10.837-4.2073-4.2073-4.2073-4.2073-10.752 0-6.5022 4.2073-10.837 4.2498-4.3773 10.582-4.3773 1.9974 0 3.7398 0.55247 1.7849 0.50997 2.9749 1.0199t1.8274 0.50998q0.59497 0 1.02-0.42498t0.84996-1.5299h1.1474v9.9445h-1.0624q-0.42498-0.93495-0.89246-1.7424-0.46748-0.84996-1.4449-2.2099-0.97745-1.3599-1.9974-2.2949-1.0199-0.97745-2.5499-1.6999-1.4874-0.72246-3.0598-0.72246-3.8248 0-5.8222 3.4423-1.9974 3.4423-1.9974 10.03 0 13.259 8.5421 13.259zm42.285 0.16999v1.0624h-13.769v-1.0624q0.89246-0.12749 1.3599-0.12749 2.0399-0.1275 2.0399-1.4024t-1.9549-5.7797h-9.562l-0.63747 1.6574q-1.2324 3.1873-1.2324 3.9098 0 0.80746 0.80746 1.2324 0.80746 0.38248 2.6774 0.50997v1.0624h-8.6271v-1.0624q1.5299-0.29748 2.2099-1.1474 0.72246-0.84996 1.9549-3.8248l9.4345-23.289h1.1899l9.477 22.354q1.5724 3.7398 2.3799 4.8448 0.84996 1.0624 2.0824 1.0624zm-21.249-8.9671h8.2871l-4.2923-10.327zm36.931 8.7121q1.2324 0 2.2949-0.16999 1.1049-0.16999 1.9549-0.42498 0.84996-0.25499 1.6149-0.72246 0.80746-0.50998 1.3174-0.84996 0.55247-0.33998 1.1049-1.02 0.55248-0.72246 0.84996-1.0624 0.29749-0.38248 0.67997-1.1474 0.38248-0.76496 0.50997-1.02 0.1275-0.29748 0.42498-1.0624 0.33998-0.76496 0.38248-0.84996h1.2324l-1.7424 9.647h-24.564v-1.0624q2.3374-0.29748 2.9749-0.84996 0.67997-0.55247 0.67997-2.1674v-20.569q0-1.6149-0.76496-2.2524-0.72246-0.63747-2.8899-0.76496v-1.0624h14.832v1.0624q-2.7624 0.12749-3.5273 0.84996-0.76496 0.67997-0.76496 3.0598v20.059q0 1.3599 0.72246 1.8699 0.72246 0.50998 2.6774 0.50998zm31.151 0.085q2.8049 0 5.0998-1.3599t4.6748-3.8673l1.2749 1.0624-0.55247 0.63747q-0.55247 0.59497-0.72246 0.76496-0.1275 0.12749-0.76496 0.76496-0.59497 0.59497-0.93496 0.84996-0.33998 0.25499-1.0624 0.80746-0.72246 0.50997-1.2749 0.76496-0.50998 0.25499-1.3599 0.63747-0.84995 0.33998-1.6574 0.50997-0.76497 0.21249-1.7424 0.33998-0.97745 0.1275-1.9974 0.1275-6.5872 0-10.837-4.2073-4.2073-4.2073-4.2073-10.752 0-6.5022 4.2073-10.837 4.2498-4.3773 10.582-4.3773 1.9974 0 3.7398 0.55247 1.7849 0.50997 2.9748 1.0199t1.8274 0.50998q0.59497 0 1.02-0.42498t0.84996-1.5299h1.1474v9.9445h-1.0624q-0.42498-0.93495-0.89246-1.7424-0.46748-0.84996-1.4449-2.2099-0.97745-1.3599-1.9974-2.2949-1.02-0.97745-2.5499-1.6999-1.4874-0.72246-3.0598-0.72246-3.8248 0-5.8222 3.4423-1.9974 3.4423-1.9974 10.03 0 13.259 8.5421 13.259zm27.751-26.434q-2.5499 0.085-3.3573 0.80746-0.76497 0.67997-0.76497 3.1023v14.194q0 4.3348 1.4874 6.3322 1.4874 1.9549 4.7598 1.9549 3.7823 0 5.6097-2.2524t1.8274-6.9697v-12.962q0-2.3374-0.84996-3.1448-0.80746-0.84996-3.3148-1.0624v-1.0624h9.3495v1.0624q-2.0399 0.29748-2.6774 1.0199-0.63746 0.72246-0.63746 2.5924v13.557q0 11.304-10.964 11.304-4.7598 0-7.8621-2.2524-1.9549-1.4024-2.7199-3.1873-0.76496-1.7849-0.76496-4.9298v-14.194q0-2.2949-0.63747-2.9749-0.59497-0.72246-2.8474-0.93495v-1.0624h14.364zm30.386 26.349q1.2324 0 2.2949-0.16999 1.1049-0.16999 1.9549-0.42498 0.84996-0.25499 1.6149-0.72246 0.80746-0.50998 1.3174-0.84996 0.55247-0.33998 1.1049-1.02 0.55247-0.72246 0.84996-1.0624 0.29748-0.38248 0.67997-1.1474 0.38248-0.76496 0.50997-1.02 0.12749-0.29748 0.42498-1.0624 0.33998-0.76496 0.38248-0.84996h1.2324l-1.7424 9.647h-24.564v-1.0624q2.3374-0.29748 2.9748-0.84996 0.67997-0.55247 0.67997-2.1674v-20.569q0-1.6149-0.76496-2.2524-0.72247-0.63747-2.8899-0.76496v-1.0624h14.832v1.0624q-2.7624 0.12749-3.5273 0.84996-0.76496 0.67997-0.76496 3.0598v20.059q0 1.3599 0.72246 1.8699 0.72247 0.50998 2.6774 0.50998zm43.348 0.25499v1.0624h-13.769v-1.0624q0.89245-0.12749 1.3599-0.12749 2.0399-0.1275 2.0399-1.4024t-1.9549-5.7797h-9.562l-0.63747 1.6574q-1.2324 3.1873-1.2324 3.9098 0 0.80746 0.80746 1.2324 0.80746 0.38248 2.6774 0.50997v1.0624h-8.6271v-1.0624q1.5299-0.29748 2.2099-1.1474 0.72246-0.84996 1.9549-3.8248l9.4345-23.289h1.1899l9.477 22.354q1.5724 3.7398 2.3799 4.8448 0.84996 1.0624 2.0824 1.0624zm-21.249-8.9671h8.2871l-4.2923-10.327zm26.519 6.1622v-20.951q0-1.4449-0.76496-2.0399-0.72247-0.59497-2.7624-0.80746v-1.0624h12.962q7.3521 0 11.559 3.7398 4.2073 3.7398 4.2073 10.327t-4.2073 10.624q-4.2073 4.0373-11.092 4.0373h-13.429v-1.0624q1.8274-0.0425 2.6774-0.72246 0.84996-0.67997 0.84996-2.0824zm17.807-10.157q0-3.7398-0.76497-6.4597-0.76496-2.7199-2.0399-4.1223-1.2749-1.4024-2.6774-2.0399-1.3599-0.63747-2.9324-0.63747-2.5074 0-2.5074 1.4874v21.844q0 1.4449 0.50997 1.9549 0.50998 0.50998 1.9549 0.50998 8.4571 0 8.4571-12.537zm25.584-15.342q6.4172 0 10.624 4.2923 4.2498 4.2923 4.2498 10.794 0 6.5872-4.2498 10.837-4.2073 4.2498-10.794 4.2498-6.5872 0-10.837-4.2073-4.2073-4.2498-4.2073-10.837 0-6.6297 4.2498-10.879 4.2923-4.2498 10.964-4.2498zm-0.0425 1.4024q-3.7398 0-5.6947 3.6123t-1.9549 10.497q0 6.4597 1.9124 9.8595 1.9549 3.3998 5.6097 3.3998t5.5672-3.3998q1.9549-3.4423 1.9549-9.987 0-6.6297-1.9549-10.284-1.9124-3.6973-5.4397-3.6973zm42.923 6.7997q0 1.3174-0.42498 2.4224-0.38248 1.1049-0.97745 1.8274-0.55248 0.67997-1.5299 1.2749-0.93495 0.59497-1.7849 0.93495-0.80746 0.33998-1.9549 0.72246l8.5421 12.112q0.63747 0.80746 1.7424 0.80746v1.0624h-8.7121l-8.7971-13.302h-1.1474v8.3296q0 2.2524 0.63747 2.9324 0.63747 0.67997 3.1024 0.97745v1.0624h-14.364v-1.0624q2.5074-0.29748 3.1023-0.93495 0.63747-0.63747 0.63747-2.9749v-18.784q0-2.2949-0.72246-3.0174-0.67997-0.72246-3.0174-0.89246v-1.0624h13.684q5.8222 0 8.8821 1.9549 3.1024 1.9549 3.1024 5.6097zm-12.749-6.1197q-2.2949 0-2.2949 1.7849v10.837q4.5473-0.085 6.1622-1.3174 1.6149-1.2324 1.6149-5.0148 0-3.3573-1.2749-4.8023-1.2749-1.4874-4.2073-1.4874zm46.535 26.221v1.0624h-13.769v-1.0624q0.89245-0.12749 1.3599-0.12749 2.0399-0.1275 2.0399-1.4024t-1.9549-5.7797h-9.562l-0.63747 1.6574q-1.2324 3.1873-1.2324 3.9098 0 0.80746 0.80746 1.2324 0.80746 0.38248 2.6774 0.50997v1.0624h-8.6271v-1.0624q1.5299-0.29748 2.2099-1.1474 0.72246-0.84996 1.9549-3.8248l9.4345-23.289h1.1899l9.477 22.354q1.5724 3.7398 2.3799 4.8448 0.84996 1.0624 2.0824 1.0624zm-21.249-8.9671h8.2871l-4.2923-10.327z" stroke-width="6.7666" style="paint-order:markers stroke fill" aria-label="CALCULADORA"/>
  <path transform="scale(.89443 1.118)" d="m21.58 113.04v5.1323h8.4871v2.6838h-8.4871v6.0857h-3.4725v-16.586h12.23v2.6838zm27.38 5.5325q0 2.5897-1.0241 4.5555-1.0241 1.9658-2.931 3.0134-1.9069 1.0359-4.4495 1.0359-3.9081 0-6.1328-2.2954-2.213-2.3072-2.213-6.3094 0-3.9904 2.213-6.227 2.213-2.2365 6.1564-2.2365 3.9434 0 6.1564 2.2601 2.2248 2.2601 2.2248 6.2034zm-3.5431 0q0-2.6838-1.2713-4.2023-1.2713-1.5303-3.5667-1.5303-2.3307 0-3.602 1.5185-1.2713 1.5067-1.2713 4.2141 0 2.7309 1.2948 4.3083 1.3066 1.5656 3.5549 1.5656 2.3307 0 3.5902-1.5303 1.2713-1.5303 1.2713-4.3436zm13.655-5.5325v13.902h-3.4725v-13.902h-5.3559v-2.6838h14.196v2.6838zm22.93 5.5325q0 2.5897-1.0241 4.5555-1.0241 1.9658-2.931 3.0134-1.9069 1.0359-4.4495 1.0359-3.9081 0-6.1328-2.2954-2.213-2.3072-2.213-6.3094 0-3.9904 2.213-6.227 2.213-2.2365 6.1564-2.2365 3.9434 0 6.1564 2.2601 2.2248 2.2601 2.2248 6.2034zm-3.5431 0q0-2.6838-1.2713-4.2023-1.2713-1.5303-3.5667-1.5303-2.3307 0-3.602 1.5185-1.2713 1.5067-1.2713 4.2141 0 2.7309 1.2948 4.3083 1.3066 1.5656 3.5549 1.5656 2.3307 0 3.5902-1.5303 1.2713-1.5303 1.2713-4.3436zm14.373 8.3694h-3.5196l-6.1328-16.586h3.6255l3.4137 10.653q0.31782 1.0359 0.87107 3.1312l0.2472-1.0123 0.60033-2.1188 3.4019-10.653h3.5902zm24.002-8.3694q0 2.5897-1.0241 4.5555-1.0241 1.9658-2.931 3.0134-1.9069 1.0359-4.4495 1.0359-3.908 0-6.1328-2.2954-2.213-2.3072-2.213-6.3094 0-3.9904 2.213-6.227 2.213-2.2365 6.1564-2.2365 3.9434 0 6.1564 2.2601 2.2248 2.2601 2.2248 6.2034zm-3.5432 0q0-2.6838-1.2713-4.2023-1.2713-1.5303-3.5667-1.5303-2.3307 0-3.602 1.5185-1.2713 1.5067-1.2713 4.2141 0 2.7309 1.2948 4.3083 1.3066 1.5656 3.5549 1.5656 2.3307 0 3.5902-1.5303 1.2713-1.5303 1.2713-4.3436zm6.1681 8.3694v-16.586h3.4725v13.902h8.8991v2.6838zm20.423-13.902v13.902h-3.4725v-13.902h-5.3559v-2.6838h14.196v2.6838zm17.174 13.902-1.4714-4.2376h-6.3212l-1.4714 4.2376h-3.4725l6.0504-16.586h4.0964l6.0269 16.586zm-4.6379-14.031-0.0706 0.25897q-0.11772 0.42376-0.28251 0.96524-0.1648 0.54147-2.0247 5.9562h4.7674l-1.6362-4.7674-0.50616-1.6009zm10.323 14.031v-16.586h3.4725v16.586zm14.443-2.4955q3.1429 0 4.3671-3.1547l3.0252 1.1418q-0.97701 2.4013-2.8722 3.5785-1.8834 1.1654-4.5202 1.1654-4.0022 0-6.1917-2.2601-2.1777-2.2718-2.1777-6.3447 0-4.0846 2.107-6.2741 2.1071-2.1894 6.1093-2.1894 2.9193 0 4.7556 1.1771 1.8363 1.1654 2.5779 3.4372l-3.0605 0.83576q-0.38845-1.2478-1.5303-1.9776-1.13-0.74159-2.6721-0.74159-2.3542 0-3.5785 1.4596-1.2124 1.4596-1.2124 4.273 0 2.8604 1.2478 4.3671 1.2595 1.5067 3.6255 1.5067zm21.388 2.4955-1.4714-4.2376h-6.3212l-1.4714 4.2376h-3.4725l6.0504-16.586h4.0964l6.0269 16.586zm-4.6379-14.031-0.0706 0.25897q-0.11772 0.42376-0.28251 0.96524-0.1648 0.54147-2.0247 5.9562h4.7674l-1.6362-4.7674-0.50616-1.6009z" stroke-width="8.645" style="paint-order:markers stroke fill" aria-label="FOTOVOLTAICA"/>
 </g>
</svg>
