<svg xmlns="http://www.w3.org/2000/svg" width="10" height="12"><path d="M25 138c0 2 1 2 2 2s1.671-.027 2-2l1-6c.329-1.973 1-2 2-2s2 0 2 2" style="fill:none;stroke:#000;stroke-width:1;stroke-dasharray:none" transform="translate(-45 -129)"/><path d="M32 136c0 1-1 1-3 1s-2-1-2-2 0-2 2-2 3 0 3 1" style="fill:none;stroke:#000;stroke-width:1;stroke-dasharray:none" transform="translate(-45 -129)"/><path d="M45.5 138c0 2 1 2 2 2s1.671-.027 2-2l1-6c.329-1.973 1-2 2-2s2 0 2 2" style="fill:none;stroke:#3334fc;stroke-width:1;stroke-dasharray:none;stroke-opacity:1" transform="translate(-45 -129)"/><path d="M52.5 136c0 1-1 1-3 1s-2-1-2-2 0-2 2-2 3 0 3 1" style="fill:none;stroke:#ff4294;stroke-width:1;stroke-dasharray:none;stroke-opacity:1" transform="translate(-45 -129)"/></svg>