<svg xmlns="http://www.w3.org/2000/svg" width="5" height="8" fill="blue"><g style="fill-opacity:1"><path d="M219 485.5h1v5h-1z" style="fill-opacity:1;stroke:none;stroke-width:.125;stroke-linecap:round;stroke-linejoin:round;paint-order:markers stroke fill" transform="translate(-217 -484)"/><path d="M218.5 492c.828 0 1.5-.506 1.5-1.175V489h-1v1.871c0 .276-.224.455-.5.455s-.5-.179-.5-.455c0-.07.016-.185.045-.249a2 2 0 0 0-.961-.293q-.084.242-.084.497c0 .668.672 1.174 1.5 1.174M220.5 484c-.828 0-1.5.506-1.5 1.175V487h1v-1.871c0-.276.224-.455.5-.455s.5.179.5.455c0 .07-.016.185-.045.249a2 2 0 0 0 .961.293q.084-.242.084-.497c0-.668-.672-1.174-1.5-1.174" style="fill-opacity:1;stroke:none;stroke-width:.125;stroke-linecap:round;stroke-linejoin:round;paint-order:markers stroke fill" transform="translate(-217 -484)"/></g></svg>
