<?xml version="1.0" encoding="UTF-8"?>
<!-- Created with Inkscape (http://www.inkscape.org/) -->
<svg width="100.1" height="22" version="1.1" viewBox="0 0 100.1 22" xmlns="http://www.w3.org/2000/svg" xmlns:xlink="http://www.w3.org/1999/xlink">
 <defs>
  <radialGradient id="radialGradient2" cx="80.899" cy="85.07" r="11.088" gradientTransform="matrix(-9.6431e-8 1.2626 -1.2626 2.4683e-7 188.41 -17.145)" gradientUnits="userSpaceOnUse">
   <stop stop-color="#fe1e6e" offset=".28279"/>
   <stop stop-color="#630081" offset=".78532"/>
   <stop stop-color="#31108b" offset="1"/>
  </radialGradient>
 </defs>
 <g transform="translate(-70,-79)">
  <path d="m100.52 89.204q0.276-0.48 0.78-0.744 0.504-0.276 1.188-0.276 0.804 0 1.452 0.42 0.66 0.42 1.032 1.2 0.384 0.78 0.384 1.824t-0.384 1.836q-0.372 0.78-1.032 1.2-0.648 0.42-1.452 0.42-0.684 0-1.188-0.264-0.504-0.276-0.78-0.756v0.936h-2.352v-8.88h2.352zm2.448 2.424q0-0.66-0.36-1.02-0.348-0.372-0.864-0.372t-0.876 0.372q-0.348 0.372-0.348 1.02 0 0.66 0.348 1.032 0.36 0.372 0.876 0.372t0.864-0.372q0.36-0.384 0.36-1.032zm4.548-3.984q-0.624 0-1.008-0.336-0.372-0.348-0.372-0.864 0-0.528 0.372-0.876 0.384-0.348 1.008-0.348 0.612 0 0.984 0.348 0.384 0.348 0.384 0.876 0 0.516-0.384 0.864-0.372 0.336-0.984 0.336zm1.164 0.624v6.732h-2.352v-6.732zm5.748-0.06q1.164 0 1.848 0.78 0.684 0.768 0.684 2.088v3.924h-2.352v-3.612q0-0.576-0.3-0.9-0.3-0.336-0.804-0.336-0.528 0-0.828 0.336-0.3 0.324-0.3 0.9v3.612h-2.352v-6.732h2.352v0.96q0.312-0.456 0.84-0.732 0.528-0.288 1.212-0.288zm6.312-0.024q0.684 0 1.188 0.276 0.516 0.276 0.792 0.744v-0.936h2.352v6.66q0 0.948-0.36 1.704-0.36 0.768-1.128 1.224-0.756 0.456-1.92 0.456-1.56 0-2.496-0.732t-1.068-1.992h2.316q0.072 0.324 0.36 0.504t0.744 0.18q1.2 0 1.2-1.344v-0.864q-0.276 0.468-0.792 0.744-0.504 0.276-1.188 0.276-0.804 0-1.464-0.42-0.648-0.42-1.032-1.2-0.372-0.792-0.372-1.836t0.372-1.824q0.384-0.78 1.032-1.2 0.66-0.42 1.464-0.42zm1.98 3.444q0-0.648-0.36-1.02-0.348-0.372-0.864-0.372-0.528 0-0.876 0.372-0.348 0.36-0.348 1.02 0 0.648 0.348 1.032 0.348 0.372 0.876 0.372 0.516 0 0.864-0.372 0.36-0.372 0.36-1.032zm6.828 3.456q-1.008 0-1.812-0.42-0.792-0.42-1.248-1.2t-0.456-1.836q0-1.044 0.456-1.824 0.468-0.78 1.26-1.2 0.804-0.42 1.812-0.42t1.8 0.42q0.804 0.42 1.26 1.2 0.468 0.78 0.468 1.824t-0.468 1.836q-0.456 0.78-1.26 1.2t-1.812 0.42zm0-2.04q0.492 0 0.816-0.36 0.336-0.372 0.336-1.056t-0.336-1.044q-0.324-0.36-0.804-0.36t-0.804 0.36-0.324 1.044q0 0.696 0.312 1.056t0.804 0.36zm13.296-4.836q1.272 0 1.992 0.768 0.732 0.768 0.732 2.1v3.924h-2.352v-3.612q0-0.54-0.3-0.84t-0.816-0.3-0.816 0.3-0.3 0.84v3.612h-2.352v-3.612q0-0.54-0.3-0.84-0.288-0.3-0.804-0.3-0.528 0-0.828 0.3t-0.3 0.84v3.612h-2.352v-6.732h2.352v0.888q0.312-0.432 0.804-0.684 0.504-0.264 1.152-0.264 0.744 0 1.32 0.324 0.588 0.324 0.924 0.912 0.36-0.552 0.948-0.888 0.588-0.348 1.296-0.348zm3.624 3.42q0-1.044 0.372-1.824 0.384-0.78 1.032-1.2 0.66-0.42 1.464-0.42 0.696 0 1.2 0.276t0.78 0.744v-0.936h2.352v6.732h-2.352v-0.936q-0.276 0.468-0.792 0.744-0.504 0.276-1.188 0.276-0.804 0-1.464-0.42-0.648-0.42-1.032-1.2-0.372-0.792-0.372-1.836zm4.848 0q0-0.648-0.36-1.02-0.348-0.372-0.864-0.372-0.528 0-0.876 0.372-0.348 0.36-0.348 1.02 0 0.648 0.348 1.032 0.348 0.372 0.876 0.372 0.516 0 0.864-0.372 0.36-0.372 0.36-1.032zm7.668 1.368v2.004h-1.02q-2.58 0-2.58-2.556v-2.22h-0.828v-1.956h0.828v-1.632h2.364v1.632h1.224v1.956h-1.224v2.256q0 0.276 0.12 0.396 0.132 0.12 0.432 0.12zm2.268-5.352q-0.624 0-1.008-0.336-0.372-0.348-0.372-0.864 0-0.528 0.372-0.876 0.384-0.348 1.008-0.348 0.612 0 0.984 0.348 0.384 0.348 0.384 0.876 0 0.516-0.384 0.864-0.372 0.336-0.984 0.336zm1.164 0.624v6.732h-2.352v-6.732zm0.96001 3.36q0-1.044 0.432-1.824t1.2-1.2q0.78-0.42 1.776-0.42 1.284 0 2.16 0.708 0.876 0.696 1.128 1.956h-2.496q-0.216-0.66-0.84-0.66-0.444 0-0.708 0.372-0.252 0.36-0.252 1.068t0.252 1.08q0.264 0.372 0.708 0.372 0.636 0 0.84-0.66h2.496q-0.252 1.248-1.128 1.956t-2.16 0.708q-0.996 0-1.776-0.42-0.768-0.42-1.2-1.2t-0.432-1.836z" aria-label="bingomatic"/>
  <circle cx="81" cy="90" r="11" fill="url(#radialGradient2)" stroke-width="1.1098"/>
  <circle cx="81" cy="86" r="6" fill="#fff" stroke-width="1.2"/>
  <path transform="matrix(.74924 0 0 1.3347 .14588 .029176)" d="m102.48 66.075v-1.2431l2.4031-3.5156h1.0412v1.4728h-0.56614l-1.3936 2.0666v0.0079h3.5987v1.2115zm2.8822 1.1402v-5.8989h1.544v5.8989zm2.7594 0v-1.1481l2.217-1.7895q0.16627-0.13461 0.34443-0.28505 0.17815-0.1544 0.30088-0.34839 0.12273-0.19795 0.12273-0.45133 0-0.20983-0.091-0.36819-0.0911-0.15836-0.25734-0.24546-0.16232-0.09106-0.38402-0.09106-0.23754 0-0.41966 0.11085-0.18211 0.11085-0.28505 0.32464-0.099 0.21379-0.099 0.52259h-1.5084q0-0.68887 0.28109-1.1877 0.28108-0.49884 0.79971-0.76805 0.51864-0.26921 1.2352-0.26921 0.65323 0 1.1639 0.22566 0.51072 0.22566 0.79972 0.64928 0.29297 0.41965 0.29297 1.0056 0 0.43945-0.17024 0.78388-0.16627 0.34443-0.46716 0.64928-0.29693 0.30088-0.68887 0.62156l-0.95412 0.77597v0.0079h2.2962v1.2748z" fill="#31108b" stroke-width=".67567" aria-label="42"/>
 </g>
</svg>
