<?xml version="1.0" encoding="UTF-8" standalone="no"?>
<svg
   xmlns:dc="http://purl.org/dc/elements/1.1/"
   xmlns:cc="http://creativecommons.org/ns#"
   xmlns:rdf="http://www.w3.org/1999/02/22-rdf-syntax-ns#"
   xmlns:svg="http://www.w3.org/2000/svg"
   xmlns="http://www.w3.org/2000/svg"
   xmlns:sodipodi="http://sodipodi.sourceforge.net/DTD/sodipodi-0.dtd"
   xmlns:inkscape="http://www.inkscape.org/namespaces/inkscape"
   width="360.00003"
   height="380"
   viewBox="0 0 95.249736 100.54196"
   version="1.1"
   id="svg28"
   sodipodi:docname="score.svg"
   inkscape:version="1.0.2 (e86c870879, 2021-01-15)">
  <metadata
     id="metadata34">
    <rdf:RDF>
      <cc:Work
         rdf:about="">
        <dc:format>image/svg+xml</dc:format>
        <dc:type
           rdf:resource="http://purl.org/dc/dcmitype/StillImage" />
        <dc:title />
      </cc:Work>
    </rdf:RDF>
  </metadata>
  <defs
     id="defs32" />
  <sodipodi:namedview
     pagecolor="#ffffff"
     bordercolor="#666666"
     borderopacity="1"
     objecttolerance="10"
     gridtolerance="10"
     guidetolerance="10"
     inkscape:pageopacity="0"
     inkscape:pageshadow="2"
     inkscape:window-width="1366"
     inkscape:window-height="704"
     id="namedview30"
     showgrid="true"
     inkscape:zoom="1.1528161"
     inkscape:cx="131.03137"
     inkscape:cy="191.93999"
     inkscape:window-x="0"
     inkscape:window-y="0"
     inkscape:window-maximized="1"
     inkscape:current-layer="svg28"
     inkscape:document-rotation="0"
     showguides="false">
    <inkscape:grid
       type="xygrid"
       id="grid868"
       originx="9.5339714e-06"
       originy="0" />
  </sodipodi:namedview>
  <rect
     style="fill:#1a1a1a;fill-opacity:1;stroke-width:0.529168;stroke-linecap:round;stroke-linejoin:round;paint-order:stroke markers fill"
     id="rect870"
     width="95.25029"
     height="100.54196"
     x="-0.00029"
     y="0"
     ry="0" />
  <rect
     style="fill:#c99928;fill-opacity:1;stroke-width:0.529168;stroke-linecap:round;stroke-linejoin:round;paint-order:stroke markers fill"
     id="rect873"
     width="37.041775"
     height="31.750092"
     x="-0.00028046596"
     y="74.083549"
     ry="2.6458411" />
  <rect
     style="fill:#c9b028;fill-opacity:1;stroke-width:0.529168;stroke-linecap:round;stroke-linejoin:round;paint-order:stroke markers fill"
     id="rect877"
     width="37.041779"
     height="37.041775"
     x="58.208221"
     y="68.79187"
     ry="2.6458383" />
  <rect
     style="fill:#c9c028;fill-opacity:1;stroke-width:0.529168;stroke-linecap:round;stroke-linejoin:round;paint-order:stroke markers fill"
     id="rect875"
     width="31.750093"
     height="42.333458"
     x="31.749817"
     y="63.500195"
     ry="2.6458318" />
  <path
     id="rect879"
     style="fill:#c95c28;fill-opacity:0.5;stroke-width:0.529168;stroke-linecap:round;stroke-linejoin:round;paint-order:stroke markers fill"
     d="m 46.301942,68.791867 c -0.732898,0 -1.322921,0.590023 -1.322921,1.322921 0,0.732898 0.590023,1.32292 1.322921,1.32292 h 1.32292 v 6.614603 c 0,0.732896 0.590023,1.322921 1.322921,1.322921 0.732895,0 1.322921,-0.590025 1.322921,-1.322921 v -7.937523 c 0,-0.732898 -0.590023,-1.322921 -1.322921,-1.322921 z" />
  <path
     id="rect883"
     style="fill:#c95c28;fill-opacity:0.5;stroke-width:0.529168;stroke-linecap:round;stroke-linejoin:round;paint-order:stroke markers fill"
     d="m 75.406192,74.083549 c -0.732898,0 -1.322921,0.590022 -1.322921,1.32292 0,0.732898 0.590023,1.322921 1.322921,1.322921 h 1.32292 v 1.322921 h -1.32292 c -0.732898,0 -1.322921,0.590022 -1.322921,1.32292 v 3.968762 c 0,0.732898 0.590023,1.32292 1.322921,1.32292 h 2.645841 c 0.732898,0 1.32292,-0.590022 1.32292,-1.32292 0,-0.732898 -0.590022,-1.322921 -1.32292,-1.322921 h -1.322921 v -1.32292 h 1.322921 c 0.0458,0 0.09081,-0.0022 0.135393,-0.0067 0.66871,-0.06751 1.187527,-0.62911 1.187527,-1.316203 v -3.968762 c 0,-0.732898 -0.590022,-1.32292 -1.32292,-1.32292 z" />
  <path
     id="rect911"
     style="fill:#c95c28;fill-opacity:0.5;stroke-width:0.529168;stroke-linecap:round;stroke-linejoin:round;paint-order:stroke markers fill"
     d="m 17.197687,78.052311 c -0.732898,0 -1.322921,0.590022 -1.322921,1.32292 0,0.732898 0.590023,1.322921 1.322921,1.322921 h 1.32292 v 1.322921 h -1.32292 c -0.732898,0 -1.322921,0.590022 -1.322921,1.32292 0,0.732898 0.590023,1.322921 1.322921,1.322921 h 1.32292 v 1.32292 h -1.32292 c -0.732898,0 -1.322921,0.590023 -1.322921,1.322921 0,0.732898 0.590023,1.32292 1.322921,1.32292 h 2.645841 c 0.04581,0 0.09081,-0.0022 0.135393,-0.0067 0.66871,-0.06751 1.187527,-0.62911 1.187527,-1.316203 v -7.937524 c 0,-0.732898 -0.590022,-1.32292 -1.32292,-1.32292 z" />
  <g
     id="g1780"
     transform="translate(0.36775199,1.0583364)">
    <rect
       width="69.130592"
       height="22.121792"
       ry="1.561038"
       fill="#ff007f"
       stop-color="#000000"
       stroke-linecap="round"
       stroke-width="0.308966"
       style="paint-order:markers stroke fill"
       id="rect1031"
       x="12.691807"
       y="20.960478" />
    <g
       fill="#ffffff"
       id="g1045"
       transform="matrix(0.69130596,0,0,0.69130596,12.69181,20.960481)">
      <rect
         x="40.432999"
         y="4.7673998"
         width="22.465"
         height="22.465"
         ry="2.0508001"
         stop-color="#000000"
         stroke-linecap="round"
         stroke-width="0.34044"
         style="paint-order:markers stroke fill"
         id="rect1033" />
      <g
         stroke-width="0.84395"
         id="g1043">
        <path
           d="m 12.453,25.621 q -3.4433,0 -5.5701,-1.5529 Q 4.773,22.4983 4.3173,19.6458 l 4.6924,-0.70892 q 0.28694,1.2828 1.2659,2.0086 0.99586,0.7258 2.515,0.7258 1.249,0 1.9242,-0.47261 0.67516,-0.48949 0.67516,-1.3503 0,-0.54013 -0.27006,-0.86083 -0.27006,-0.33758 -1.2153,-0.65828 -0.92835,-0.3207 -2.9032,-0.84395 -2.228,-0.57389 -3.5615,-1.2828 -1.3334,-0.70892 -1.9242,-1.6879 -0.59077,-0.99586 -0.59077,-2.3968 0,-1.7554 0.89459,-3.0382 0.89459,-1.2997 2.515,-1.9917 1.6373,-0.70892 3.8484,-0.70892 2.1436,0 3.7978,0.65828 1.6541,0.65828 2.6669,1.8736 1.0296,1.2153 1.2659,2.8694 l -4.6924,0.84395 q -0.11815,-1.0127 -0.87771,-1.6035 -0.75956,-0.59077 -2.0592,-0.69204 -1.2659,-0.08439 -2.0424,0.33758 -0.75956,0.42198 -0.75956,1.2153 0,0.47261 0.3207,0.79332 0.33758,0.3207 1.3672,0.65828 1.0465,0.33758 3.1733,0.87771 2.0761,0.54013 3.3252,1.2659 1.2659,0.70892 1.8398,1.7217 0.57389,0.99586 0.57389,2.4137 0,2.8019 -2.0255,4.4054 -2.0255,1.6035 -5.6038,1.6035 z"
           id="path1035" />
        <path
           d="m 30.761,25.621 q -2.8357,0 -4.8612,-1.2659 Q 23.8743,23.0892 22.7941,20.9118 21.7138,18.7344 21.7138,16 q 0,-2.7682 1.114,-4.9456 1.1309,-2.1774 3.1733,-3.4264 2.0424,-1.249 4.8274,-1.249 3.2239,0 5.4013,1.6373 2.1943,1.6204 2.8019,4.4392 l -4.5911,1.2153 q -0.4051,-1.4178 -1.4178,-2.2112 -0.99586,-0.79332 -2.2618,-0.79332 -1.4516,0 -2.3799,0.70892 -0.92835,0.69204 -1.3672,1.9073 -0.43886,1.1984 -0.43886,2.7175 0,2.3799 1.0465,3.8653 1.0634,1.4685 3.1395,1.4685 1.5529,0 2.3631,-0.70892 0.81019,-0.70892 1.2153,-2.0255 l 4.6924,0.97898 q -0.77644,2.9032 -2.937,4.4729 -2.1605,1.5698 -5.3338,1.5698 z"
           id="path1037" />
        <path
           d="M 65.025,25.115 V 6.886 h 4.051 v 4.4561 l -0.43886,-0.57389 q 0.35446,-0.94523 0.94523,-1.7217 0.59077,-0.77644 1.4516,-1.2828 0.65828,-0.4051 1.4347,-0.62452 0.77644,-0.23631 1.6035,-0.28694 0.82707,-0.067517 1.6541,0.033754 v 4.2873 q -0.75956,-0.23631 -1.7723,-0.15191 -0.99586,0.06752 -1.8061,0.45574 -0.81019,0.37134 -1.3672,0.99586 -0.55701,0.60765 -0.84395,1.4516 -0.28694,0.82707 -0.28694,1.8736 v 9.3172 z"
           id="path1039" />
        <path
           d="m 86.588,25.621 q -2.8019,0 -4.9456,-1.1984 -2.1268,-1.2153 -3.342,-3.3252 -1.1984,-2.1268 -1.1984,-4.8612 0,-2.9876 1.1815,-5.1987 1.1815,-2.2112 3.2577,-3.4264 2.0761,-1.2322 4.7768,-1.2322 2.8694,0 4.878,1.3503 2.0086,1.3503 2.9707,3.7978 0.96211,2.4475 0.67516,5.7558 h -4.5405 v -1.6879 q 0,-2.785 -0.89459,-4.0003 -0.87771,-1.2322 -2.8863,-1.2322 -2.3462,0 -3.4602,1.4347 -1.0971,1.4178 -1.0971,4.2029 0,2.5487 1.0971,3.9497 1.114,1.3841 3.2577,1.3841 1.3503,0 2.3124,-0.59077 0.9621,-0.59077 1.4685,-1.7048 l 4.5911,1.3166 q -1.0296,2.4981 -3.2577,3.8822 -2.2112,1.3841 -4.8443,1.3841 z m -6.0427,-8.3382 v -3.4096 h 12.085 v 3.4096 z"
           id="path1041" />
      </g>
    </g>
    <g
       stroke-linecap="round"
       stroke-width="0.51504"
       id="g1057"
       transform="matrix(0.69130596,0,0,0.69130596,12.69181,20.960481)">
      <circle
         cx="51.666"
         cy="16"
         r="2.7068999"
         stop-color="#000000"
         style="paint-order:markers stroke fill"
         id="circle1047" />
      <circle
         cx="46.515999"
         cy="21.15"
         r="2.7068999"
         stop-color="#000000"
         style="paint-order:markers stroke fill"
         id="circle1049" />
      <circle
         cx="46.515999"
         cy="10.85"
         r="2.7068999"
         stop-color="#000000"
         style="paint-order:markers stroke fill"
         id="circle1051" />
      <circle
         cx="56.816002"
         cy="10.85"
         r="2.7068999"
         stop-color="#000000"
         style="paint-order:markers stroke fill"
         id="circle1053" />
      <circle
         cx="56.816002"
         cy="21.15"
         r="2.7068999"
         stop-color="#000000"
         style="paint-order:markers stroke fill"
         id="circle1055" />
    </g>
  </g>
</svg>
