<?xml version="1.0" encoding="UTF-8" standalone="no"?>
<svg
   xmlns:dc="http://purl.org/dc/elements/1.1/"
   xmlns:cc="http://creativecommons.org/ns#"
   xmlns:rdf="http://www.w3.org/1999/02/22-rdf-syntax-ns#"
   xmlns:svg="http://www.w3.org/2000/svg"
   xmlns="http://www.w3.org/2000/svg"
   xmlns:sodipodi="http://sodipodi.sourceforge.net/DTD/sodipodi-0.dtd"
   xmlns:inkscape="http://www.inkscape.org/namespaces/inkscape"
   width="360.00003"
   height="380"
   viewBox="0 0 95.249736 100.54196"
   version="1.1"
   id="svg28"
   sodipodi:docname="score.svg"
   inkscape:version="1.0.1 (3bc2e813f5, 2020-09-07)">
  <metadata
     id="metadata34">
    <rdf:RDF>
      <cc:Work
         rdf:about="">
        <dc:format>image/svg+xml</dc:format>
        <dc:type
           rdf:resource="http://purl.org/dc/dcmitype/StillImage" />
        <dc:title></dc:title>
      </cc:Work>
    </rdf:RDF>
  </metadata>
  <defs
     id="defs32" />
  <sodipodi:namedview
     pagecolor="#ffffff"
     bordercolor="#666666"
     borderopacity="1"
     objecttolerance="10"
     gridtolerance="10"
     guidetolerance="10"
     inkscape:pageopacity="0"
     inkscape:pageshadow="2"
     inkscape:window-width="1366"
     inkscape:window-height="704"
     id="namedview30"
     showgrid="true"
     inkscape:zoom="0.77314532"
     inkscape:cx="-77.487346"
     inkscape:cy="191.60277"
     inkscape:window-x="0"
     inkscape:window-y="27"
     inkscape:window-maximized="1"
     inkscape:current-layer="svg28"
     inkscape:document-rotation="0">
    <inkscape:grid
       type="xygrid"
       id="grid868"
       originx="9.5339714e-06"
       originy="0" />
  </sodipodi:namedview>
  <rect
     style="fill:#7028c9;fill-opacity:1;stroke-width:0.529168;stroke-linecap:round;stroke-linejoin:round;paint-order:stroke markers fill"
     id="rect870"
     width="95.25029"
     height="100.54196"
     x="-0.00029"
     y="0"
     ry="0" />
  <rect
     style="fill:#c99928;fill-opacity:1;stroke-width:0.529168;stroke-linecap:round;stroke-linejoin:round;paint-order:stroke markers fill"
     id="rect873"
     width="37.041775"
     height="31.750092"
     x="-0.00028046596"
     y="74.083549"
     ry="2.6458411" />
  <g
     id="g866"
     transform="matrix(0.75002669,0,0,0.75002669,8.6860945,20.908457)"
     style="stroke-width:1.33329">
    <path
       d="m 48.163,29.83 c -0.866,-0.5 -1.737,-1.994 -1.732,-3 v -6 c 0,-1 0.866,-2.5 1.732,-3 l 5.196,-3 c 0.866,-0.5 2.598,-0.5 3.464,0 l 5.196,3 c 0.866,0.5 1.732,2 1.732,3 v 6 c 0,1 -0.866,2.5 -1.732,3 l -5.196,3 c -0.866,0.5 -2.598,0.5 -3.464,0 z"
       fill="#c83737"
       id="path2"
       style="stroke-width:1.77765" />
    <path
       d="m 46.972,19.142 c -0.325,0.563 -0.541,1.188 -0.541,1.688 v 6 c -0.005,1.003 0.861,2.492 1.725,2.996 l 3.873,2.236 1.33,0.768 c 0.433,0.25 1.082,0.375 1.732,0.375 V 25.83 c 0,-1.215 -0.866,-2.5 -1.732,-3 z"
       fill="#a02c2c"
       id="path4"
       style="stroke-width:1.77765" />
    <path
       d="m 63.21,19.142 -6.387,3.688 c -0.866,0.5 -1.732,2 -1.732,3 v 7.375 c 0.647,0 1.294,-0.124 1.727,-0.372 l 0.005,-0.003 5.203,-3.004 c 0.861,-0.502 1.72,-1.99 1.725,-2.987 V 20.83 c 0,-0.5 -0.216,-1.126 -0.54,-1.688 z"
       fill="#ff5555"
       id="path6"
       style="stroke-width:1.77765" />
    <path
       d="m 55.091,14.455 c -0.65,0 -1.299,0.125 -1.732,0.375 l -5.196,3 c -0.433,0.25 -0.866,0.75 -1.191,1.312 l 6.387,3.688 c 0.866,0.5 2.598,0.5 3.464,0 L 63.21,19.142 C 62.885,18.58 62.452,18.08 62.02,17.83 l -5.197,-3 C 56.39,14.58 55.74,14.455 55.091,14.455 Z"
       fill="#d35f5f"
       id="path8"
       style="stroke-width:1.77765" />
    <ellipse
       cx="55.090996"
       cy="20.83"
       rx="1.369"
       ry="0.79100001"
       fill="#ffffff"
       paint-order="stroke markers fill"
       id="ellipse10"
       style="stroke-width:1.77765" />
    <ellipse
       cx="55.090996"
       cy="16.83"
       rx="1.369"
       ry="0.79100001"
       fill="#ffffff"
       paint-order="stroke markers fill"
       id="ellipse12"
       style="stroke-width:1.77765" />
    <ellipse
       cx="58.555"
       cy="18.83"
       rx="1.369"
       ry="0.79100001"
       fill="#ffffff"
       paint-order="stroke markers fill"
       id="ellipse14"
       style="stroke-width:1.77765" />
    <ellipse
       cx="51.626999"
       cy="18.83"
       rx="1.369"
       ry="0.79100001"
       fill="#ffffff"
       paint-order="stroke markers fill"
       id="ellipse16"
       style="stroke-width:1.77765" />
    <ellipse
       cx="-6.9084101"
       cy="-64.625244"
       rx="1.369"
       ry="0.79100001"
       transform="rotate(120)"
       fill="#ffffff"
       paint-order="stroke markers fill"
       id="ellipse18"
       style="stroke-width:1.77765" />
    <ellipse
       cx="48.18259"
       cy="32.795246"
       rx="1.369"
       ry="0.79100001"
       transform="matrix(0.5,0.8660254,0.8660254,-0.5,0,0)"
       fill="#ffffff"
       paint-order="stroke markers fill"
       id="ellipse20"
       style="stroke-width:1.77765" />
    <ellipse
       cx="48.18259"
       cy="28.795248"
       rx="1.369"
       ry="0.79100001"
       transform="matrix(0.5,0.8660254,0.8660254,-0.5,0,0)"
       fill="#ffffff"
       paint-order="stroke markers fill"
       id="ellipse22"
       style="stroke-width:1.77765" />
    <path
       d="m 10,16.788 q 0,-1.405 0.537,-2.636 0.536,-1.231 1.452,-2.147 0.931,-0.931 2.162,-1.468 Q 15.382,10 16.787,10 h 10.387 v 4.53 H 16.787 q -0.473,0 -0.884,0.174 -0.41,0.174 -0.726,0.49 -0.3,0.3 -0.473,0.71 -0.174,0.41 -0.174,0.884 0,0.473 0.174,0.9 0.173,0.41 0.473,0.726 0.316,0.3 0.726,0.473 0.41,0.174 0.884,0.174 h 4.53 q 1.405,0 2.637,0.536 1.246,0.521 2.162,1.453 0.931,0.915 1.452,2.162 0.537,1.231 0.537,2.636 0,1.405 -0.537,2.636 -0.52,1.231 -1.452,2.163 -0.916,0.915 -2.162,1.452 -1.232,0.537 -2.637,0.537 H 11.263 v -4.53 h 10.054 q 0.474,0 0.884,-0.174 0.41,-0.174 0.71,-0.474 0.316,-0.315 0.49,-0.726 0.174,-0.41 0.174,-0.884 0,-0.473 -0.174,-0.884 -0.174,-0.41 -0.49,-0.71 -0.3,-0.316 -0.71,-0.49 -0.41,-0.173 -0.884,-0.173 h -4.53 q -1.405,0 -2.636,-0.537 Q 12.92,22.518 11.989,21.602 11.073,20.671 10.537,19.44 10,18.193 10,16.788 Z m 35.389,2.304 -3.157,3.173 q -0.237,-0.663 -0.647,-1.184 -0.41,-0.536 -0.931,-0.9 -0.505,-0.363 -1.105,-0.552 -0.6,-0.19 -1.231,-0.19 -0.884,0 -1.674,0.364 -0.773,0.363 -1.357,1.026 -0.568,0.647 -0.9,1.547 -0.331,0.9 -0.331,1.988 0,0.884 0.331,1.658 0.332,0.773 0.9,1.357 0.584,0.584 1.357,0.916 0.79,0.331 1.674,0.331 0.63,0 1.215,-0.173 0.584,-0.174 1.09,-0.49 0.52,-0.331 0.915,-0.789 0.41,-0.473 0.663,-1.042 l 3.157,3.173 q -0.6,0.852 -1.39,1.531 -0.773,0.679 -1.688,1.152 -0.9,0.474 -1.91,0.71 -0.995,0.253 -2.052,0.253 -1.784,0 -3.363,-0.663 -1.562,-0.678 -2.746,-1.846 -1.168,-1.169 -1.847,-2.731 -0.679,-1.563 -0.679,-3.347 0,-1.941 0.68,-3.63 0.678,-1.689 1.846,-2.936 1.184,-1.263 2.746,-1.989 1.579,-0.726 3.363,-0.726 1.057,0 2.067,0.268 1.026,0.269 1.942,0.79 0.931,0.505 1.705,1.247 0.789,0.741 1.357,1.704 z m 24.877,13.544 h -4.31 V 15.73 h 1.042 l 1.42,2.005 q 1.043,-0.947 2.369,-1.452 1.326,-0.521 2.746,-0.521 h 3.804 v 4.293 h -3.804 q -0.679,0 -1.278,0.253 -0.6,0.252 -1.042,0.694 -0.442,0.442 -0.695,1.042 -0.252,0.6 -0.252,1.279 z M 85.75,28.5 q 0.253,0.079 0.506,0.11 0.252,0.016 0.505,0.016 0.631,0 1.215,-0.173 0.584,-0.174 1.09,-0.49 0.52,-0.331 0.915,-0.789 0.41,-0.473 0.663,-1.042 l 3.157,3.173 q -0.6,0.852 -1.39,1.531 -0.773,0.679 -1.688,1.152 -0.9,0.474 -1.91,0.71 -0.995,0.253 -2.052,0.253 -1.784,0 -3.362,-0.663 -1.563,-0.663 -2.747,-1.846 -1.168,-1.184 -1.847,-2.81 -0.679,-1.642 -0.679,-3.599 0,-2.005 0.68,-3.662 0.678,-1.657 1.846,-2.826 1.184,-1.168 2.747,-1.815 1.578,-0.647 3.362,-0.647 1.057,0 2.067,0.253 1.01,0.252 1.91,0.726 0.916,0.473 1.705,1.168 0.79,0.679 1.39,1.53 z m 2.21,-8.887 q -0.3,-0.11 -0.6,-0.142 -0.284,-0.031 -0.6,-0.031 -0.883,0 -1.672,0.331 -0.774,0.316 -1.358,0.916 -0.568,0.6 -0.9,1.452 -0.331,0.836 -0.331,1.894 0,0.237 0.016,0.537 0.031,0.3 0.079,0.615 0.063,0.3 0.142,0.584 0.078,0.284 0.205,0.505 z"
       style="line-height:1.25;-inkscape-font-specification:Righteous;fill:#ffffff;stroke-width:1.77765"
       font-weight="400"
       font-size="32.327px"
       font-family="Righteous"
       id="path24" />
  </g>
  <rect
     style="fill:#c9b028;fill-opacity:1;stroke-width:0.529168;stroke-linecap:round;stroke-linejoin:round;paint-order:stroke markers fill"
     id="rect877"
     width="37.041779"
     height="37.041775"
     x="58.208221"
     y="68.79187"
     ry="2.6458383" />
  <rect
     style="fill:#c9c028;fill-opacity:1;stroke-width:0.529168;stroke-linecap:round;stroke-linejoin:round;paint-order:stroke markers fill"
     id="rect875"
     width="31.750093"
     height="42.333458"
     x="31.749817"
     y="63.500195"
     ry="2.6458318" />
  <path
     id="rect879"
     style="fill:#c95c28;fill-opacity:0.5;stroke-width:0.529168;stroke-linecap:round;stroke-linejoin:round;paint-order:stroke markers fill"
     d="m 46.301942,68.791867 c -0.732898,0 -1.322921,0.590023 -1.322921,1.322921 0,0.732898 0.590023,1.32292 1.322921,1.32292 h 1.32292 v 6.614603 c 0,0.732896 0.590023,1.322921 1.322921,1.322921 0.732895,0 1.322921,-0.590025 1.322921,-1.322921 v -7.937523 c 0,-0.732898 -0.590023,-1.322921 -1.322921,-1.322921 z" />
  <path
     id="rect883"
     style="fill:#c95c28;fill-opacity:0.5;stroke-width:0.529168;stroke-linecap:round;stroke-linejoin:round;paint-order:stroke markers fill"
     d="m 75.406192,74.083549 c -0.732898,0 -1.322921,0.590022 -1.322921,1.32292 0,0.732898 0.590023,1.322921 1.322921,1.322921 h 1.32292 v 1.322921 h -1.32292 c -0.732898,0 -1.322921,0.590022 -1.322921,1.32292 v 3.968762 c 0,0.732898 0.590023,1.32292 1.322921,1.32292 h 2.645841 c 0.732898,0 1.32292,-0.590022 1.32292,-1.32292 0,-0.732898 -0.590022,-1.322921 -1.32292,-1.322921 h -1.322921 v -1.32292 h 1.322921 c 0.0458,0 0.09081,-0.0022 0.135393,-0.0067 0.66871,-0.06751 1.187527,-0.62911 1.187527,-1.316203 v -3.968762 c 0,-0.732898 -0.590022,-1.32292 -1.32292,-1.32292 z" />
  <path
     id="rect911"
     style="fill:#c95c28;fill-opacity:0.5;stroke-width:0.529168;stroke-linecap:round;stroke-linejoin:round;paint-order:stroke markers fill"
     d="m 17.197687,78.052311 c -0.732898,0 -1.322921,0.590022 -1.322921,1.32292 0,0.732898 0.590023,1.322921 1.322921,1.322921 h 1.32292 v 1.322921 h -1.32292 c -0.732898,0 -1.322921,0.590022 -1.322921,1.32292 0,0.732898 0.590023,1.322921 1.322921,1.322921 h 1.32292 v 1.32292 h -1.32292 c -0.732898,0 -1.322921,0.590023 -1.322921,1.322921 0,0.732898 0.590023,1.32292 1.322921,1.32292 h 2.645841 c 0.04581,0 0.09081,-0.0022 0.135393,-0.0067 0.66871,-0.06751 1.187527,-0.62911 1.187527,-1.316203 v -7.937524 c 0,-0.732898 -0.590022,-1.32292 -1.32292,-1.32292 z" />
</svg>
