<?xml version="1.0" encoding="UTF-8" standalone="no"?>
<svg
   xmlns:dc="http://purl.org/dc/elements/1.1/"
   xmlns:cc="http://creativecommons.org/ns#"
   xmlns:rdf="http://www.w3.org/1999/02/22-rdf-syntax-ns#"
   xmlns:svg="http://www.w3.org/2000/svg"
   xmlns="http://www.w3.org/2000/svg"
   xmlns:sodipodi="http://sodipodi.sourceforge.net/DTD/sodipodi-0.dtd"
   xmlns:inkscape="http://www.inkscape.org/namespaces/inkscape"
   width="107.98164"
   height="107.98164"
   version="1.1"
   viewBox="0 0 107.98164 107.98164"
   id="svg96"
   sodipodi:docname="score.svg"
   inkscape:version="1.0.2 (e86c870879, 2021-01-15)">
  <metadata
     id="metadata102">
    <rdf:RDF>
      <cc:Work
         rdf:about="">
        <dc:format>image/svg+xml</dc:format>
        <dc:type
           rdf:resource="http://purl.org/dc/dcmitype/StillImage" />
      </cc:Work>
    </rdf:RDF>
  </metadata>
  <defs
     id="defs100" />
  <sodipodi:namedview
     pagecolor="#ffffff"
     bordercolor="#666666"
     borderopacity="1"
     objecttolerance="10"
     gridtolerance="10"
     guidetolerance="10"
     inkscape:pageopacity="0"
     inkscape:pageshadow="2"
     inkscape:window-width="1366"
     inkscape:window-height="699"
     id="namedview98"
     showgrid="false"
     showguides="true"
     inkscape:zoom="13.693536"
     inkscape:cx="99.54556"
     inkscape:cy="6.6302729"
     inkscape:window-x="0"
     inkscape:window-y="0"
     inkscape:window-maximized="1"
     inkscape:current-layer="svg96"
     inkscape:document-rotation="0" />
  <rect
     style="fill:#000000;stroke-width:0.732239;stroke-linecap:round;paint-order:markers stroke fill;stop-color:#000000"
     id="rect1008"
     width="107.98164"
     height="107.98164"
     x="0"
     y="0"
     ry="0" />
  <g
     fill="#ffffff"
     id="g16"
     transform="translate(4.6504879,23.346081)">
    <rect
       x="40.432999"
       y="4.7673998"
       width="22.465"
       height="22.465"
       ry="2.0508001"
       stop-color="#000000"
       stroke-linecap="round"
       stroke-width="0.34044"
       style="fill:#ff007f;fill-opacity:1;paint-order:markers stroke fill"
       id="rect4" />
    <g
       stroke-width="0.84395"
       id="g14"
       style="fill:#ffffff">
      <path
         d="m 12.453,25.621 q -3.4433,0 -5.5701,-1.5529 Q 4.773,22.4983 4.3173,19.6458 l 4.6924,-0.70892 q 0.28694,1.2828 1.2659,2.0086 0.99586,0.7258 2.515,0.7258 1.249,0 1.9242,-0.47261 0.67516,-0.48949 0.67516,-1.3503 0,-0.54013 -0.27006,-0.86083 -0.27006,-0.33758 -1.2153,-0.65828 -0.92835,-0.3207 -2.9032,-0.84395 -2.228,-0.57389 -3.5615,-1.2828 -1.3334,-0.70892 -1.9242,-1.6879 -0.59077,-0.99586 -0.59077,-2.3968 0,-1.7554 0.89459,-3.0382 0.89459,-1.2997 2.515,-1.9917 1.6373,-0.70892 3.8484,-0.70892 2.1436,0 3.7978,0.65828 1.6541,0.65828 2.6669,1.8736 1.0296,1.2153 1.2659,2.8694 l -4.6924,0.84395 q -0.11815,-1.0127 -0.87771,-1.6035 -0.75956,-0.59077 -2.0592,-0.69204 -1.2659,-0.08439 -2.0424,0.33758 -0.75956,0.42198 -0.75956,1.2153 0,0.47261 0.3207,0.79332 0.33758,0.3207 1.3672,0.65828 1.0465,0.33758 3.1733,0.87771 2.0761,0.54013 3.3252,1.2659 1.2659,0.70892 1.8398,1.7217 0.57389,0.99586 0.57389,2.4137 0,2.8019 -2.0255,4.4054 -2.0255,1.6035 -5.6038,1.6035 z"
         id="path6"
         style="fill:#ffffff" />
      <path
         d="m 30.761,25.621 q -2.8357,0 -4.8612,-1.2659 Q 23.8743,23.0892 22.7941,20.9118 21.7138,18.7344 21.7138,16 q 0,-2.7682 1.114,-4.9456 1.1309,-2.1774 3.1733,-3.4264 2.0424,-1.249 4.8274,-1.249 3.2239,0 5.4013,1.6373 2.1943,1.6204 2.8019,4.4392 l -4.5911,1.2153 q -0.4051,-1.4178 -1.4178,-2.2112 -0.99586,-0.79332 -2.2618,-0.79332 -1.4516,0 -2.3799,0.70892 -0.92835,0.69204 -1.3672,1.9073 -0.43886,1.1984 -0.43886,2.7175 0,2.3799 1.0465,3.8653 1.0634,1.4685 3.1395,1.4685 1.5529,0 2.3631,-0.70892 0.81019,-0.70892 1.2153,-2.0255 l 4.6924,0.97898 q -0.77644,2.9032 -2.937,4.4729 -2.1605,1.5698 -5.3338,1.5698 z"
         id="path8"
         style="fill:#ffffff" />
      <path
         d="M 65.025,25.115 V 6.886 h 4.051 v 4.4561 l -0.43886,-0.57389 q 0.35446,-0.94523 0.94523,-1.7217 0.59077,-0.77644 1.4516,-1.2828 0.65828,-0.4051 1.4347,-0.62452 0.77644,-0.23631 1.6035,-0.28694 0.82707,-0.067517 1.6541,0.033754 v 4.2873 q -0.75956,-0.23631 -1.7723,-0.15191 -0.99586,0.06752 -1.8061,0.45574 -0.81019,0.37134 -1.3672,0.99586 -0.55701,0.60765 -0.84395,1.4516 -0.28694,0.82707 -0.28694,1.8736 v 9.3172 z"
         id="path10"
         style="fill:#ffffff" />
      <path
         d="m 86.588,25.621 q -2.8019,0 -4.9456,-1.1984 -2.1268,-1.2153 -3.342,-3.3252 -1.1984,-2.1268 -1.1984,-4.8612 0,-2.9876 1.1815,-5.1987 1.1815,-2.2112 3.2577,-3.4264 2.0761,-1.2322 4.7768,-1.2322 2.8694,0 4.878,1.3503 2.0086,1.3503 2.9707,3.7978 0.96211,2.4475 0.67516,5.7558 h -4.5405 v -1.6879 q 0,-2.785 -0.89459,-4.0003 -0.87771,-1.2322 -2.8863,-1.2322 -2.3462,0 -3.4602,1.4347 -1.0971,1.4178 -1.0971,4.2029 0,2.5487 1.0971,3.9497 1.114,1.3841 3.2577,1.3841 1.3503,0 2.3124,-0.59077 0.9621,-0.59077 1.4685,-1.7048 l 4.5911,1.3166 q -1.0296,2.4981 -3.2577,3.8822 -2.2112,1.3841 -4.8443,1.3841 z m -6.0427,-8.3382 v -3.4096 h 12.085 v 3.4096 z"
         id="path12"
         style="fill:#ffffff" />
    </g>
    <text
       xml:space="preserve"
       style="font-size:40px;line-height:0.95;font-family:sans-serif"
       x="30.76104"
       y="25.621059"
       id="text951"><tspan
         sodipodi:role="line"
         id="tspan949"
         x="30.76104"
         y="25.621059" /></text>
  </g>
  <g
     stroke-linecap="round"
     stroke-width="0.51504"
     id="g28"
     style="fill:#ffffff"
     transform="translate(4.6504879,23.346081)">
    <circle
       cx="51.666"
       cy="16"
       r="2.7068999"
       stop-color="#000000"
       style="fill:#ffffff;paint-order:markers stroke fill"
       id="circle18" />
    <circle
       cx="46.515999"
       cy="21.15"
       r="2.7068999"
       stop-color="#000000"
       style="fill:#ffffff;paint-order:markers stroke fill"
       id="circle20" />
    <circle
       cx="46.515999"
       cy="10.85"
       r="2.7068999"
       stop-color="#000000"
       style="fill:#ffffff;paint-order:markers stroke fill"
       id="circle22" />
    <circle
       cx="56.816002"
       cy="10.85"
       r="2.7068999"
       stop-color="#000000"
       style="fill:#ffffff;paint-order:markers stroke fill"
       id="circle24" />
    <circle
       cx="56.816002"
       cy="21.15"
       r="2.7068999"
       stop-color="#000000"
       style="fill:#ffffff;paint-order:markers stroke fill"
       id="circle26" />
  </g>
  <g
     id="g991"
     transform="translate(4.6509867,19.290637)">
    <rect
       x="42.102001"
       y="34.852001"
       width="19.127001"
       height="26.295"
       ry="2.4005001"
       stop-color="#000000"
       stroke-linecap="round"
       stroke-width="0.33986"
       style="fill:#ffffff;paint-order:markers stroke fill"
       id="rect32" />
    <path
       d="m 57.124,45.825 c -0.04892,3.8819 -4.7452,6.4433 -5.4577,9.4522 -0.71249,-3.0089 -5.4088,-5.5703 -5.4577,-9.4522 -0.05094,-4.0424 4.7064,-3.4273 5.4577,-1.2579 0.75129,-2.1694 5.5086,-2.7844 5.4577,1.2579 z"
       fill="#f00"
       id="path46"
       style="fill:#ff0000" />
  </g>
  <g
     id="g996"
     transform="translate(4.6504879,-66.088313)">
    <circle
       cx="51.666"
       cy="80"
       r="10.978"
       fill="#e1c13f"
       stop-color="#000000"
       style="paint-order:markers stroke fill"
       id="circle60" />
    <g
       aria-label="$"
       id="text64"
       style="font-size:17.978px;line-height:1.25;font-family:Manrope;fill:#867015;stroke-width:0.44945">
      <path
         d="m 50.542194,88.260965 v -2.15736 h 2.445008 v 2.15736 z m 0,-14.364422 v -2.15736 h 2.445008 v 2.15736 z m 1.240482,12.836292 q -1.393295,0 -2.489953,-0.512373 -1.096658,-0.521362 -1.788811,-1.465207 -0.692153,-0.952834 -0.880922,-2.24725 l 2.42703,-0.377538 q 0.242703,1.060702 1.015757,1.689932 0.782043,0.62923 1.860723,0.62923 1.015757,0 1.680943,-0.476417 0.674175,-0.476417 0.674175,-1.177559 0,-0.476417 -0.296637,-0.782043 -0.287648,-0.314615 -0.907889,-0.512373 l -3.200084,-0.98879 q -2.768612,-0.853955 -2.768612,-3.379864 0,-1.186548 0.557318,-2.058481 0.566307,-0.871933 1.591053,-1.339361 1.033735,-0.476417 2.436019,-0.467428 1.285427,0.01798 2.283206,0.467428 0.997779,0.440461 1.662965,1.285427 0.674175,0.835977 0.979801,2.040503 l -2.51692,0.44945 q -0.125846,-0.575296 -0.467428,-1.006768 -0.341582,-0.440461 -0.853955,-0.683164 -0.503384,-0.251692 -1.123625,-0.26967 -0.593274,-0.01798 -1.07868,0.170791 -0.476417,0.188769 -0.764065,0.530351 -0.278659,0.332593 -0.278659,0.755076 0,0.467428 0.395516,0.80901 0.395516,0.332593 1.25846,0.575296 l 2.283206,0.647208 q 1.716899,0.494395 2.471975,1.339361 0.764065,0.844966 0.764065,2.238261 0,1.222504 -0.620241,2.148371 -0.620241,0.925867 -1.734877,1.447229 -1.105647,0.521362 -2.570854,0.521362 z"
         style="font-weight:800;font-family:Manrope;fill:#867015;stroke-width:0.44945"
         id="path864" />
    </g>
  </g>
  <g
     id="g1006"
     transform="translate(4.6504879,-17.038506)">
    <g
       id="g88">
      <circle
         cx="51.666"
         cy="112"
         r="10.978"
         fill="#cd4fd1"
         stop-color="#000000"
         style="paint-order:markers stroke fill"
         id="circle80" />
      <circle
         cx="51.666"
         cy="112"
         r="7.4183002"
         fill="#ffffff"
         stop-color="#000000"
         style="paint-order:markers stroke fill"
         id="circle82" />
      <circle
         cx="51.666"
         cy="112"
         r="6.7101998"
         fill="#cd4fd1"
         stop-color="#000000"
         style="paint-order:markers stroke fill"
         id="circle84" />
      <circle
         cx="51.666"
         cy="112"
         r="5.914"
         fill="#ffffff"
         stop-color="#000000"
         style="paint-order:markers stroke fill"
         id="circle86" />
    </g>
    <g
       aria-label="0"
       id="text92"
       style="font-size:7.3948px;line-height:1.25;font-family:sans-serif;stroke-width:0.18487">
      <path
         d="m 51.601163,114.25619 q -0.491754,0 -0.887376,-0.22924 -0.391924,-0.22924 -0.621163,-0.62117 -0.229239,-0.39562 -0.229239,-0.88737 v -2.07055 q 0,-0.49175 0.229239,-0.88368 0.229239,-0.39562 0.621163,-0.62486 0.395622,-0.22923 0.887376,-0.22923 0.491754,0 0.883679,0.22923 0.395621,0.22924 0.62486,0.62486 0.229239,0.39193 0.229239,0.88368 v 2.07055 q 0,0.49175 -0.229239,0.88737 -0.229239,0.39193 -0.62486,0.62117 -0.391925,0.22924 -0.883679,0.22924 z m 0,-0.52504 q 0.329069,0 0.598979,-0.15898 0.26991,-0.16269 0.428898,-0.4326 0.158988,-0.26991 0.158988,-0.59528 v -2.12231 q 0,-0.32907 -0.158988,-0.59898 -0.158988,-0.26991 -0.428898,-0.4289 -0.26991,-0.16268 -0.598979,-0.16268 -0.329069,0 -0.598979,0.16268 -0.26991,0.15899 -0.428898,0.4289 -0.158988,0.26991 -0.158988,0.59898 v 2.12231 q 0,0.32537 0.158988,0.59528 0.158988,0.26991 0.428898,0.4326 0.26991,0.15898 0.598979,0.15898 z"
         style="font-family:Manrope;stroke-width:0.18487"
         id="path861" />
    </g>
    <rect
       x="50.018002"
       y="114.7"
       width="3.2959001"
       height="0.40981999"
       stop-color="#000000"
       style="paint-order:markers stroke fill"
       id="rect94" />
  </g>
  <view
     id="normal"
     viewBox="0 0 100 32" />
  <view
     id="card"
     viewBox="0 32 100 32" />
  <view
     id="money"
     viewBox="0 64 100 32" />
  <view
     id="bingo"
     viewBox="0 96 100 32" />
</svg>
