<svg xmlns="http://www.w3.org/2000/svg" viewBox="0 0 18.785 13.494" height="51" width="71"><defs><linearGradient id="e"><stop offset="0" stop-color="#ff4294"/><stop offset="1" stop-color="#18d1ff"/></linearGradient><linearGradient id="d"><stop offset="0" stop-color="#0cf"/><stop offset="1" stop-color="#56f1ff"/></linearGradient><linearGradient id="b"><stop offset="0" stop-color="#00d4aa"/><stop offset="1" stop-color="#64858d"/></linearGradient><linearGradient id="c"><stop offset="0" stop-color="#c83771"/><stop offset="1" stop-color="#64858d"/></linearGradient><linearGradient id="a"><stop offset="0" stop-color="#00d4aa"/><stop offset="1" stop-color="#c83771"/></linearGradient></defs><path d="M1.058 8.731v1.588c0 1.169.948 2.116 2.117 2.116h1.587v-1.058H3.175a1.058 1.058 0 01-1.058-1.058V8.73h-.795z" fill="#ff4294" paint-order="markers stroke fill"/><path d="M14.023 1.058V2.117h1.587c.585 0 1.059.473 1.059 1.058v1.587h1.058V3.175a2.117 2.117 0 00-2.117-2.117h-1.323z" fill="#18d1ff" paint-order="markers stroke fill"/><g font-weight="800" font-size="10.583" font-family="Manrope"><path d="M4.622 6.74q-.52 0-.843-.235-.319-.237-.388-.668l.71-.108q.044.194.192.304.15.11.38.11.189 0 .291-.072.102-.074.102-.204 0-.082-.04-.13-.041-.051-.184-.1-.14-.048-.44-.127-.337-.087-.538-.194-.202-.107-.291-.256-.09-.15-.09-.362 0-.266.136-.46.135-.196.38-.3.248-.108.582-.108.324 0 .575.1.25.1.403.283.156.184.191.434l-.71.128q-.017-.154-.132-.243-.115-.09-.312-.105-.191-.012-.308.051-.115.064-.115.184 0 .072.048.12.051.049.207.1.158.05.48.133.314.081.503.191.191.107.278.26.087.151.087.365 0 .424-.306.667-.307.242-.848.242zM7.103 6.74q-.296 0-.503-.112-.204-.115-.311-.304-.105-.191-.105-.421 0-.192.059-.35.059-.158.189-.278.133-.123.355-.204.153-.056.365-.1.212-.043.48-.082l.59-.089-.25.138q0-.245-.118-.36-.118-.115-.393-.115-.154 0-.32.074-.165.074-.232.263l-.628-.2q.105-.341.393-.556.289-.214.787-.214.365 0 .648.112.283.113.429.388.082.153.097.307.015.153.015.342v1.685h-.607v-.567l.086.117q-.201.279-.436.404-.232.122-.59.122zm.148-.546q.192 0 .322-.066.133-.07.21-.156.079-.087.107-.146.053-.112.06-.26.011-.15.011-.25l.204.05q-.309.052-.5.088-.192.033-.309.06-.117.029-.207.062-.102.041-.166.09-.06.045-.092.102-.028.056-.028.125 0 .094.046.163.049.067.136.102.086.036.206.036zM11.193 6.664V5.362q0-.095-.01-.24-.01-.148-.064-.296t-.176-.248q-.12-.1-.342-.1-.09 0-.192.029-.102.028-.191.11-.09.078-.148.234-.056.156-.056.414l-.399-.19q0-.326.133-.612t.398-.462q.268-.176.674-.176.325 0 .529.11.204.11.316.278.115.168.164.352.048.181.058.332.01.15.01.22v1.547zm-1.884 0V3.907h.618v.914h.087v1.843zM14.216 6.664q-.286.053-.562.046-.273-.005-.49-.095-.215-.092-.327-.293-.102-.19-.107-.383-.005-.197-.005-.445V3.141h.694v2.313q0 .16.002.29.005.128.054.205.092.145.294.158.201.013.446-.02zm-1.961-2.221v-.536h1.96v.536zM14.88 3.524V2.91h.694v.613zm0 3.14V3.907h.694v2.757zM4.459 10.573q-.43 0-.736-.192-.306-.191-.47-.52-.163-.33-.163-.743 0-.419.169-.748.17-.33.48-.519.309-.188.73-.188.487 0 .817.247.332.245.423.672l-.694.183q-.061-.214-.214-.334-.151-.12-.342-.12-.22 0-.36.107-.14.105-.207.289-.067.18-.067.41 0 .36.159.585.16.222.475.222.234 0 .357-.107.122-.107.184-.306l.71.148q-.118.439-.445.676-.327.238-.806.238zM7.844 7.512h-.685l.194-.613h.685zm-.342 3.06c-.283 0-.532-.06-.748-.18a1.34 1.34 0 01-.506-.503 1.472 1.472 0 01-.181-.736c0-.3.06-.563.179-.786.119-.223.283-.396.492-.518.21-.124.45-.186.723-.186.289 0 .535.068.737.204a1.2 1.2 0 01.45.574c.097.247.13.537.102.87h-.687v-.255c0-.28-.045-.482-.135-.605-.089-.124-.234-.186-.437-.186-.236 0-.41.072-.523.217-.11.143-.166.355-.166.636 0 .257.055.456.166.597.112.14.277.21.493.21.136 0 .252-.03.35-.09a.57.57 0 00.222-.258l.694.2a1.22 1.22 0 01-.493.586c-.223.14-.467.21-.732.21zm-.914-1.26v-.516h1.827v.516zM9.069 10.496v-.087l1.353-2.067h-1.2v-.603h2.272v.087l-1.348 2.068h1.297v.602zM12.669 10.573q-.297 0-.503-.113-.205-.114-.312-.303-.104-.192-.104-.422 0-.191.058-.35.059-.158.19-.278.132-.122.354-.204.153-.056.365-.1.212-.043.48-.081l.59-.09-.25.138q0-.245-.118-.36-.117-.114-.393-.114-.153 0-.32.074-.165.074-.231.263l-.628-.2q.104-.342.393-.556.288-.215.786-.215.365 0 .648.113.284.112.43.388.081.153.096.306.016.153.016.342v1.685h-.608V9.93l.087.118q-.202.278-.437.403-.232.123-.59.123zm.148-.546q.191 0 .321-.067.133-.069.21-.156.079-.086.107-.145.053-.112.061-.26.01-.151.01-.25l.205.05q-.31.051-.5.087-.192.033-.31.061-.117.029-.206.062-.103.04-.166.09-.062.045-.092.101-.028.056-.028.125 0 .095.046.164.048.066.135.102.087.035.207.035zM14.88 10.496V7.74h.612v.674l-.066-.087q.053-.143.143-.26.089-.118.22-.194.099-.061.216-.095.118-.035.243-.043.125-.01.25.005v.648q-.115-.036-.268-.023-.15.01-.273.07-.123.055-.207.15-.084.092-.128.22-.043.124-.043.283v1.409z" style="line-height:.8;-inkscape-font-specification:'Manrope Ultra-Bold'"/></g></svg>