<?xml version="1.0" encoding="UTF-8" standalone="no"?>
<svg
   xmlns:dc="http://purl.org/dc/elements/1.1/"
   xmlns:cc="http://creativecommons.org/ns#"
   xmlns:rdf="http://www.w3.org/1999/02/22-rdf-syntax-ns#"
   xmlns:svg="http://www.w3.org/2000/svg"
   xmlns="http://www.w3.org/2000/svg"
   xmlns:xlink="http://www.w3.org/1999/xlink"
   xmlns:sodipodi="http://sodipodi.sourceforge.net/DTD/sodipodi-0.dtd"
   xmlns:inkscape="http://www.inkscape.org/namespaces/inkscape"
   sodipodi:docname="slogo_large.svg"
   inkscape:version="1.0.1 (3bc2e813f5, 2020-09-07)"
   id="svg872"
   version="1.1"
   viewBox="0 0 18.785416 13.493754"
   height="51.000015"
   width="71"
   inkscape:export-filename="/home/santi/Imágenes/slogo/slogov2.5.png"
   inkscape:export-xdpi="1117.0935"
   inkscape:export-ydpi="1117.0935">
  <defs
     id="defs866">
    <linearGradient
       id="linearGradient903"
       inkscape:collect="always">
      <stop
         id="stop899"
         offset="0"
         style="stop-color:#ff4294;stop-opacity:1" />
      <stop
         id="stop901"
         offset="1"
         style="stop-color:#18d1ff;stop-opacity:1" />
    </linearGradient>
    <linearGradient
       inkscape:collect="always"
       id="linearGradient1811">
      <stop
         style="stop-color:#00ccff;stop-opacity:1"
         offset="0"
         id="stop1807" />
      <stop
         style="stop-color:#56f1ff;stop-opacity:1"
         offset="1"
         id="stop1809" />
    </linearGradient>
    <linearGradient
       id="linearGradient1498"
       inkscape:collect="always">
      <stop
         id="stop1494"
         offset="0"
         style="stop-color:#00d4aa;stop-opacity:1" />
      <stop
         id="stop1496"
         offset="1"
         style="stop-color:#64858d;stop-opacity:1" />
    </linearGradient>
    <linearGradient
       inkscape:collect="always"
       id="linearGradient1486">
      <stop
         style="stop-color:#c83771;stop-opacity:1;"
         offset="0"
         id="stop1482" />
      <stop
         style="stop-color:#64858d;stop-opacity:1"
         offset="1"
         id="stop1484" />
    </linearGradient>
    <linearGradient
       id="linearGradient7476"
       inkscape:collect="always">
      <stop
         id="stop7472"
         offset="0"
         style="stop-color:#00d4aa;stop-opacity:1;" />
      <stop
         id="stop7474"
         offset="1"
         style="stop-color:#c83771;stop-opacity:1" />
    </linearGradient>
    <clipPath
       id="clipPath6746"
       clipPathUnits="userSpaceOnUse">
      <path
         d="m 214.93591,152.57068 h 9.25939 v 9.25992 h -9.25939 z"
         style="fill:#00d4aa;fill-opacity:1;stroke-width:0.0529167;stroke-linecap:round;stroke-linejoin:round"
         id="path6748" />
    </clipPath>
    <linearGradient
       gradientUnits="userSpaceOnUse"
       y2="157.86246"
       x2="219.6983"
       y1="155.7458"
       x1="219.6983"
       id="linearGradient7478"
       xlink:href="#linearGradient7476"
       inkscape:collect="always" />
    <clipPath
       clipPathUnits="userSpaceOnUse"
       id="clipPath6746-3">
      <path
         id="path6748-5"
         style="fill:#00d4aa;fill-opacity:1;stroke-width:0.0529167;stroke-linecap:round;stroke-linejoin:round"
         d="m 214.93591,152.57068 h 9.25939 v 9.25992 h -9.25939 z" />
    </clipPath>
    <linearGradient
       inkscape:collect="always"
       xlink:href="#linearGradient1498"
       id="linearGradient1492"
       gradientUnits="userSpaceOnUse"
       x1="-9"
       y1="4"
       x2="-9"
       y2="5"
       gradientTransform="matrix(-0.26458333,0,0,-0.26458333,209.90883,152.83526)" />
    <linearGradient
       inkscape:collect="always"
       xlink:href="#linearGradient1486"
       id="linearGradient1506"
       gradientUnits="userSpaceOnUse"
       x1="-9"
       y1="4"
       x2="-9"
       y2="5"
       gradientTransform="matrix(0,-0.99999997,-0.99999997,0,4.9999747,-5.0000125)" />
    <linearGradient
       gradientUnits="userSpaceOnUse"
       y2="147.27901"
       x2="228.69424"
       y1="152.57068"
       x1="228.69424"
       id="linearGradient1605"
       xlink:href="#linearGradient1811"
       inkscape:collect="always" />
    <linearGradient
       gradientTransform="matrix(3.7795276,0,0,3.7795276,-816.35631,-540.64495)"
       gradientUnits="userSpaceOnUse"
       y2="147.80818"
       x2="221.28592"
       y1="150.98318"
       x1="221.28592"
       id="linearGradient905"
       xlink:href="#linearGradient903"
       inkscape:collect="always" />
  </defs>
  <sodipodi:namedview
     inkscape:window-maximized="1"
     inkscape:window-y="27"
     inkscape:window-x="0"
     inkscape:window-height="704"
     inkscape:window-width="1366"
     inkscape:guide-bbox="true"
     showguides="true"
     inkscape:snap-smooth-nodes="true"
     units="px"
     showgrid="true"
     inkscape:document-rotation="0"
     inkscape:current-layer="layer1"
     inkscape:document-units="px"
     inkscape:cy="29.635728"
     inkscape:cx="36.125457"
     inkscape:zoom="9.2891464"
     inkscape:pageshadow="2"
     inkscape:pageopacity="1"
     borderopacity="1.0"
     bordercolor="#666666"
     pagecolor="#ffffff"
     id="base"
     gridtolerance="10"
     inkscape:snap-intersection-paths="true">
    <inkscape:grid
       type="xygrid"
       id="grid960"
       empspacing="4"
       originx="-1.0583314"
       originy="11.377076" />
  </sodipodi:namedview>
  <metadata
     id="metadata869">
    <rdf:RDF>
      <cc:Work
         rdf:about="">
        <dc:format>image/svg+xml</dc:format>
        <dc:type
           rdf:resource="http://purl.org/dc/dcmitype/StillImage" />
        <dc:title />
      </cc:Work>
    </rdf:RDF>
  </metadata>
  <g
     transform="translate(-215.99425,-141.1936)"
     id="layer1"
     inkscape:groupmode="layer"
     inkscape:label="Capa 1">
    <path
       sodipodi:nodetypes="ccccccccccccccccc"
       d="m 217.05259,149.92485 v 0.26459 1.32287 c 0,1.169 0.94766,2.11667 2.11666,2.11667 h 1.3229 0.26458 v -0.26459 -0.52916 -0.26459 h -0.26458 -1.3229 c -0.5845,0 -1.05833,-0.47383 -1.05833,-1.05833 v -1.32287 -0.26459 h -0.26458 -0.52917 z"
       style="opacity:1;fill:#ff4294;fill-opacity:1;stroke:none;stroke-width:0.105833;stroke-linecap:round;stroke-linejoin:round;stroke-miterlimit:4;stroke-dasharray:none;stroke-opacity:1;paint-order:markers stroke fill"
       id="path1616" />
    <path
       sodipodi:nodetypes="ccccccccccccccccc"
       d="m 230.01716,142.25188 v 0.26459 0.52916 0.26459 h 0.26458 1.32294 c 0.5845,0 1.05834,0.47383 1.05834,1.05833 v 1.32295 0.26459 h 0.26458 0.52917 0.26458 v -0.26459 -1.32295 c 0,-1.16901 -0.94766,-2.11667 -2.11667,-2.11667 h -1.32294 z"
       style="opacity:1;fill:#18d1ff;fill-opacity:1;stroke:none;stroke-width:0.105833;stroke-linecap:round;stroke-linejoin:round;stroke-miterlimit:4;stroke-dasharray:none;stroke-opacity:1;paint-order:markers stroke fill"
       id="path1620" />
    <g
       id="g938"
       transform="matrix(0.96486996,0,0,0.96486996,1.9370224,9.5049433)">
      <path
         d="m 226.64108,143.469 q -0.53975,0 -0.87312,-0.24342 -0.33073,-0.24606 -0.40217,-0.6932 l 0.73554,-0.11112 q 0.045,0.20108 0.19843,0.31485 0.15611,0.11377 0.39423,0.11377 0.19579,0 0.30163,-0.0741 0.10583,-0.0767 0.10583,-0.21166 0,-0.0847 -0.0423,-0.13493 -0.0423,-0.0529 -0.1905,-0.10319 -0.14552,-0.0503 -0.45509,-0.13229 -0.34924,-0.09 -0.55826,-0.20108 -0.20902,-0.11113 -0.30162,-0.26459 -0.0926,-0.1561 -0.0926,-0.3757 0,-0.27516 0.14023,-0.47625 0.14023,-0.20373 0.39423,-0.31221 0.25664,-0.11111 0.60324,-0.11111 0.33602,0 0.59531,0.10318 0.25929,0.10318 0.41804,0.29368 0.16139,0.1905 0.19844,0.44979 l -0.73554,0.1323 q -0.0185,-0.15875 -0.13758,-0.25136 -0.11906,-0.0926 -0.32279,-0.10848 -0.19844,-0.0132 -0.32015,0.0529 -0.11906,0.0661 -0.11906,0.1905 0,0.0741 0.0503,0.12435 0.0529,0.0503 0.21431,0.10319 0.16404,0.0529 0.49742,0.13758 0.32543,0.0847 0.52122,0.19843 0.19844,0.11113 0.2884,0.26988 0.09,0.1561 0.09,0.37835 0,0.4392 -0.3175,0.69056 -0.31749,0.25135 -0.8784,0.25135 z"
         style="font-style:normal;font-variant:normal;font-weight:800;font-stretch:normal;font-size:10.5833px;line-height:0.8;font-family:Manrope;-inkscape-font-specification:'Manrope Ultra-Bold';fill:#000000;fill-opacity:1;stroke:none;stroke-width:0.132291"
         id="path891" />
      <path
         d="m 229.2128,143.469 q -0.30691,0 -0.52123,-0.11642 -0.21166,-0.11906 -0.32279,-0.31485 -0.10847,-0.19844 -0.10847,-0.43655 0,-0.19844 0.0608,-0.36248 0.0609,-0.16404 0.19579,-0.2884 0.13758,-0.127 0.36777,-0.21166 0.15875,-0.0582 0.37835,-0.10319 0.2196,-0.045 0.49741,-0.0847 0.27781,-0.0423 0.61118,-0.0926 l -0.25928,0.14288 q 0,-0.254 -0.12171,-0.37306 -0.12171,-0.11907 -0.40746,-0.11907 -0.15875,0 -0.33072,0.0767 -0.17198,0.0767 -0.24077,0.27252 l -0.65087,-0.20637 q 0.10848,-0.35454 0.40745,-0.57679 0.29898,-0.22224 0.81491,-0.22224 0.37836,0 0.67204,0.11641 0.29368,0.11641 0.4445,0.40216 0.0847,0.15875 0.10054,0.3175 0.0159,0.15875 0.0159,0.35454 v 1.74624 h -0.6297 v -0.58738 l 0.0899,0.12171 q -0.20902,0.2884 -0.45243,0.41804 -0.24077,0.127 -0.61118,0.127 z m 0.15345,-0.56621 q 0.19844,0 0.33338,-0.0688 0.13758,-0.0714 0.21696,-0.16139 0.082,-0.09 0.11112,-0.15081 0.0556,-0.11642 0.0635,-0.26987 0.0106,-0.15611 0.0106,-0.25929 l 0.21167,0.0529 q -0.32014,0.0529 -0.51858,0.09 -0.19844,0.0344 -0.32015,0.0635 -0.1217,0.0291 -0.21431,0.0635 -0.10583,0.0423 -0.17197,0.0926 -0.0635,0.0476 -0.0952,0.10584 -0.0291,0.0582 -0.0291,0.12964 0,0.0979 0.0476,0.16933 0.0503,0.0688 0.14023,0.10583 0.09,0.0371 0.2143,0.0371 z"
         style="font-style:normal;font-variant:normal;font-weight:800;font-stretch:normal;font-size:10.5833px;line-height:0.8;font-family:Manrope;-inkscape-font-specification:'Manrope Ultra-Bold';fill:#000000;fill-opacity:1;stroke:none;stroke-width:0.132291"
         id="path893" />
      <path
         d="m 233.45138,143.38963 v -1.34937 q 0,-0.0979 -0.0106,-0.24871 -0.0106,-0.15346 -0.0661,-0.30691 -0.0556,-0.15346 -0.18257,-0.25664 -0.12435,-0.10319 -0.35454,-0.10319 -0.0926,0 -0.19843,0.0291 -0.10584,0.0291 -0.19844,0.11377 -0.0926,0.082 -0.15345,0.24342 -0.0582,0.16139 -0.0582,0.42861 l -0.41275,-0.19579 q 0,-0.33866 0.13758,-0.63499 0.13759,-0.29633 0.41275,-0.47889 0.27781,-0.18256 0.69849,-0.18256 0.33602,0 0.54768,0.11376 0.21167,0.11377 0.32809,0.2884 0.11906,0.17462 0.16933,0.36512 0.0503,0.18786 0.0608,0.34396 0.0106,0.1561 0.0106,0.22754 v 1.60336 z m -1.95261,0 v -2.85748 h 0.64029 v 0.9472 h 0.09 v 1.91028 z"
         style="font-style:normal;font-variant:normal;font-weight:800;font-stretch:normal;font-size:10.5833px;line-height:0.8;font-family:Manrope;-inkscape-font-specification:'Manrope Ultra-Bold';fill:#000000;fill-opacity:1;stroke:none;stroke-width:0.132291"
         id="path895" />
      <path
         d="m 236.58402,143.38963 q -0.29633,0.0556 -0.58208,0.0476 -0.2831,-0.005 -0.50799,-0.0979 -0.22225,-0.0952 -0.33867,-0.30427 -0.10583,-0.19579 -0.11112,-0.39687 -0.005,-0.20373 -0.005,-0.46037 v -2.43944 h 0.71966 v 2.3971 q 0,0.16669 0.002,0.30163 0.005,0.13229 0.0556,0.21167 0.0953,0.1508 0.30427,0.16403 0.20902,0.0132 0.46302,-0.0212 z m -2.03198,-2.30186 v -0.55562 h 2.03198 v 0.55562 z"
         style="font-style:normal;font-variant:normal;font-weight:800;font-stretch:normal;font-size:10.5833px;line-height:0.8;font-family:Manrope;-inkscape-font-specification:'Manrope Ultra-Bold';fill:#000000;fill-opacity:1;stroke:none;stroke-width:0.132291"
         id="path897" />
      <path
         d="m 237.27193,140.13528 v -0.635 h 0.71965 v 0.635 z m 0,3.25435 v -2.85748 h 0.71965 v 2.85748 z"
         style="font-style:normal;font-variant:normal;font-weight:800;font-stretch:normal;font-size:10.5833px;line-height:0.8;font-family:Manrope;-inkscape-font-specification:'Manrope Ultra-Bold';fill:#000000;fill-opacity:1;stroke:none;stroke-width:0.132291"
         id="path899" />
      <path
         d="m 226.47175,147.44108 q -0.4445,0 -0.762,-0.19843 -0.3175,-0.19844 -0.48683,-0.53975 -0.16933,-0.34131 -0.16933,-0.76993 0,-0.43391 0.17462,-0.77522 0.17727,-0.34132 0.49742,-0.5371 0.32014,-0.19579 0.7567,-0.19579 0.50535,0 0.84666,0.25664 0.34395,0.254 0.4392,0.69585 l -0.71965,0.1905 q -0.0635,-0.22225 -0.22225,-0.3466 -0.15611,-0.12436 -0.35454,-0.12436 -0.22755,0 -0.37306,0.11113 -0.14552,0.10848 -0.21431,0.29898 -0.0688,0.18785 -0.0688,0.42597 0,0.37306 0.16404,0.60589 0.16668,0.23019 0.49212,0.23019 0.24341,0 0.37041,-0.11113 0.127,-0.11112 0.1905,-0.31749 l 0.73553,0.15345 q -0.1217,0.45508 -0.46037,0.70114 -0.33866,0.24606 -0.83607,0.24606 z"
         style="font-style:normal;font-variant:normal;font-weight:800;font-stretch:normal;font-size:10.5833px;line-height:0.8;font-family:Manrope;-inkscape-font-specification:'Manrope Ultra-Bold';fill:#000000;fill-opacity:1;stroke:none;stroke-width:0.132291"
         id="path901" />
      <path
         d="M 229.98008,144.26848 H 229.271 l 0.20109,-0.63499 h 0.70908 z m -0.35454,3.1726 c -0.2928,0 -0.5512,-0.0626 -0.77522,-0.18785 -0.22225,-0.127 -0.39687,-0.30074 -0.52387,-0.52122 -0.12523,-0.22225 -0.18785,-0.47625 -0.18785,-0.762 0,-0.3122 0.0617,-0.58384 0.1852,-0.81491 0.12348,-0.23107 0.29369,-0.4101 0.51065,-0.5371 0.21695,-0.12876 0.46654,-0.19314 0.74876,-0.19314 0.29986,0 0.55474,0.0705 0.76464,0.21166 0.2099,0.14111 0.36512,0.33954 0.46566,0.59531 0.10055,0.25576 0.13582,0.5565 0.10584,0.90222 h -0.71172 v -0.26458 c 0,-0.29104 -0.0468,-0.50006 -0.14023,-0.62706 -0.0917,-0.12876 -0.24254,-0.19314 -0.45244,-0.19314 -0.24518,0 -0.42597,0.075 -0.54239,0.22489 -0.11465,0.14817 -0.17198,0.36777 -0.17198,0.65881 0,0.26634 0.0573,0.47272 0.17198,0.61912 0.11642,0.14464 0.28663,0.21696 0.51064,0.21696 0.14111,0 0.26194,-0.0308 0.36248,-0.0926 0.10054,-0.0617 0.17727,-0.15081 0.23019,-0.26722 l 0.71966,0.20637 c -0.1076,0.26105 -0.27781,0.4639 -0.51065,0.60854 -0.23106,0.14463 -0.48418,0.21695 -0.75935,0.21695 z m -0.9472,-1.30703 v -0.53445 h 1.8944 v 0.53445 z"
         style="font-style:normal;font-variant:normal;font-weight:800;font-stretch:normal;font-size:10.5833px;line-height:0.8;font-family:Manrope;-inkscape-font-specification:'Manrope Ultra-Bold';fill:#000000;fill-opacity:1;stroke:none;stroke-width:0.132291"
         id="path903"
         sodipodi:nodetypes="cccccsccsscsscccscscscsccccsccccc" />
      <path
         d="m 231.25007,147.36171 v -0.09 l 1.40228,-2.14311 h -1.24353 v -0.62441 h 2.35477 v 0.09 l -1.39698,2.14311 h 1.34407 v 0.62441 z"
         style="font-style:normal;font-variant:normal;font-weight:800;font-stretch:normal;font-size:10.5833px;line-height:0.8;font-family:Manrope;-inkscape-font-specification:'Manrope Ultra-Bold';fill:#000000;fill-opacity:1;stroke:none;stroke-width:0.132291"
         id="path905" />
      <path
         d="m 234.98066,147.44108 q -0.30691,0 -0.52122,-0.11641 -0.21166,-0.11907 -0.32279,-0.31486 -0.10848,-0.19843 -0.10848,-0.43655 0,-0.19844 0.0609,-0.36248 0.0608,-0.16404 0.19579,-0.2884 0.13758,-0.12699 0.36776,-0.21166 0.15875,-0.0582 0.37835,-0.10318 0.21961,-0.045 0.49742,-0.0847 0.27781,-0.0423 0.61118,-0.0926 l -0.25929,0.14287 q 0,-0.254 -0.12171,-0.37306 -0.12171,-0.11906 -0.40745,-0.11906 -0.15875,0 -0.33073,0.0767 -0.17198,0.0767 -0.24077,0.27252 l -0.65087,-0.20638 q 0.10848,-0.35454 0.40746,-0.57678 0.29897,-0.22225 0.81491,-0.22225 0.37835,0 0.67203,0.11641 0.29369,0.11642 0.4445,0.40216 0.0847,0.15875 0.10054,0.3175 0.0159,0.15875 0.0159,0.35454 v 1.74624 h -0.6297 v -0.58737 l 0.09,0.1217 q -0.20902,0.2884 -0.45244,0.41804 -0.24077,0.127 -0.61118,0.127 z m 0.15346,-0.5662 q 0.19844,0 0.33338,-0.0688 0.13757,-0.0714 0.21695,-0.1614 0.082,-0.0899 0.11112,-0.15081 0.0556,-0.11641 0.0635,-0.26987 0.0106,-0.1561 0.0106,-0.25929 l 0.21167,0.0529 q -0.32015,0.0529 -0.51858,0.09 -0.19844,0.0344 -0.32014,0.0635 -0.12171,0.0291 -0.21432,0.0635 -0.10583,0.0423 -0.17198,0.0926 -0.0635,0.0476 -0.0952,0.10583 -0.0291,0.0582 -0.0291,0.12964 0,0.0979 0.0476,0.16934 0.0503,0.0688 0.14022,0.10583 0.09,0.037 0.21432,0.037 z"
         style="font-style:normal;font-variant:normal;font-weight:800;font-stretch:normal;font-size:10.5833px;line-height:0.8;font-family:Manrope;-inkscape-font-specification:'Manrope Ultra-Bold';fill:#000000;fill-opacity:1;stroke:none;stroke-width:0.132291"
         id="path907" />
      <path
         d="m 237.27193,147.36171 v -2.85748 h 0.63499 v 0.6985 l -0.0688,-0.09 q 0.0556,-0.14817 0.14817,-0.26988 0.0926,-0.1217 0.22754,-0.20107 0.10319,-0.0635 0.22489,-0.0979 0.12171,-0.0371 0.25136,-0.045 0.12964,-0.0106 0.25928,0.005 v 0.67203 q -0.11906,-0.0371 -0.2778,-0.0238 -0.15611,0.0106 -0.28311,0.0714 -0.127,0.0582 -0.21431,0.15611 -0.0873,0.0952 -0.13229,0.22754 -0.045,0.12964 -0.045,0.29368 v 1.46049 z"
         style="font-style:normal;font-variant:normal;font-weight:800;font-stretch:normal;font-size:10.5833px;line-height:0.8;font-family:Manrope;-inkscape-font-specification:'Manrope Ultra-Bold';fill:#000000;fill-opacity:1;stroke:none;stroke-width:0.132291"
         id="path909" />
    </g>
  </g>
  <script
     id="mesh_polyfill"
     type="text/javascript">
!function(){const t=&quot;http://www.w3.org/2000/svg&quot;,e=&quot;http://www.w3.org/1999/xlink&quot;,s=&quot;http://www.w3.org/1999/xhtml&quot;,r=2;if(document.createElementNS(t,&quot;meshgradient&quot;).x)return;const n=(t,e,s,r)=&gt;{let n=new x(.5*(e.x+s.x),.5*(e.y+s.y)),o=new x(.5*(t.x+e.x),.5*(t.y+e.y)),i=new x(.5*(s.x+r.x),.5*(s.y+r.y)),a=new x(.5*(n.x+o.x),.5*(n.y+o.y)),h=new x(.5*(n.x+i.x),.5*(n.y+i.y)),l=new x(.5*(a.x+h.x),.5*(a.y+h.y));return[[t,o,a,l],[l,h,i,r]]},o=t=&gt;{let e=t[0].distSquared(t[1]),s=t[2].distSquared(t[3]),r=.25*t[0].distSquared(t[2]),n=.25*t[1].distSquared(t[3]),o=e&gt;s?e:s,i=r&gt;n?r:n;return 18*(o&gt;i?o:i)},i=(t,e)=&gt;Math.sqrt(t.distSquared(e)),a=(t,e)=&gt;t.scale(2/3).add(e.scale(1/3)),h=t=&gt;{let e,s,r,n,o,i,a,h=new g;return t.match(/(\w+\(\s*[^)]+\))+/g).forEach(t=&gt;{let l=t.match(/[\w.-]+/g),d=l.shift();switch(d){case&quot;translate&quot;:2===l.length?e=new g(1,0,0,1,l[0],l[1]):(console.error(&quot;mesh.js: translate does not have 2 arguments!&quot;),e=new g(1,0,0,1,0,0)),h=h.append(e);break;case&quot;scale&quot;:1===l.length?s=new g(l[0],0,0,l[0],0,0):2===l.length?s=new g(l[0],0,0,l[1],0,0):(console.error(&quot;mesh.js: scale does not have 1 or 2 arguments!&quot;),s=new g(1,0,0,1,0,0)),h=h.append(s);break;case&quot;rotate&quot;:if(3===l.length&amp;&amp;(e=new g(1,0,0,1,l[1],l[2]),h=h.append(e)),l[0]){r=l[0]*Math.PI/180;let t=Math.cos(r),e=Math.sin(r);Math.abs(t)&lt;1e-16&amp;&amp;(t=0),Math.abs(e)&lt;1e-16&amp;&amp;(e=0),a=new g(t,e,-e,t,0,0),h=h.append(a)}else console.error(&quot;math.js: No argument to rotate transform!&quot;);3===l.length&amp;&amp;(e=new g(1,0,0,1,-l[1],-l[2]),h=h.append(e));break;case&quot;skewX&quot;:l[0]?(r=l[0]*Math.PI/180,n=Math.tan(r),o=new g(1,0,n,1,0,0),h=h.append(o)):console.error(&quot;math.js: No argument to skewX transform!&quot;);break;case&quot;skewY&quot;:l[0]?(r=l[0]*Math.PI/180,n=Math.tan(r),i=new g(1,n,0,1,0,0),h=h.append(i)):console.error(&quot;math.js: No argument to skewY transform!&quot;);break;case&quot;matrix&quot;:6===l.length?h=h.append(new g(...l)):console.error(&quot;math.js: Incorrect number of arguments for matrix!&quot;);break;default:console.error(&quot;mesh.js: Unhandled transform type: &quot;+d)}}),h},l=t=&gt;{let e=[],s=t.split(/[ ,]+/);for(let t=0,r=s.length-1;t&lt;r;t+=2)e.push(new x(parseFloat(s[t]),parseFloat(s[t+1])));return e},d=(t,e)=&gt;{for(let s in e)t.setAttribute(s,e[s])},c=(t,e,s,r,n)=&gt;{let o,i,a=[0,0,0,0];for(let h=0;h&lt;3;++h)e[h]&lt;t[h]&amp;&amp;e[h]&lt;s[h]||t[h]&lt;e[h]&amp;&amp;s[h]&lt;e[h]?a[h]=0:(a[h]=.5*((e[h]-t[h])/r+(s[h]-e[h])/n),o=Math.abs(3*(e[h]-t[h])/r),i=Math.abs(3*(s[h]-e[h])/n),a[h]&gt;o?a[h]=o:a[h]&gt;i&amp;&amp;(a[h]=i));return a},u=[[1,0,0,0,0,0,0,0,0,0,0,0,0,0,0,0],[0,0,0,0,1,0,0,0,0,0,0,0,0,0,0,0],[-3,3,0,0,-2,-1,0,0,0,0,0,0,0,0,0,0],[2,-2,0,0,1,1,0,0,0,0,0,0,0,0,0,0],[0,0,0,0,0,0,0,0,1,0,0,0,0,0,0,0],[0,0,0,0,0,0,0,0,0,0,0,0,1,0,0,0],[0,0,0,0,0,0,0,0,-3,3,0,0,-2,-1,0,0],[0,0,0,0,0,0,0,0,2,-2,0,0,1,1,0,0],[-3,0,3,0,0,0,0,0,-2,0,-1,0,0,0,0,0],[0,0,0,0,-3,0,3,0,0,0,0,0,-2,0,-1,0],[9,-9,-9,9,6,3,-6,-3,6,-6,3,-3,4,2,2,1],[-6,6,6,-6,-3,-3,3,3,-4,4,-2,2,-2,-2,-1,-1],[2,0,-2,0,0,0,0,0,1,0,1,0,0,0,0,0],[0,0,0,0,2,0,-2,0,0,0,0,0,1,0,1,0],[-6,6,6,-6,-4,-2,4,2,-3,3,-3,3,-2,-1,-2,-1],[4,-4,-4,4,2,2,-2,-2,2,-2,2,-2,1,1,1,1]],f=t=&gt;{let e=[];for(let s=0;s&lt;16;++s){e[s]=0;for(let r=0;r&lt;16;++r)e[s]+=u[s][r]*t[r]}return e},p=(t,e,s)=&gt;{const r=e*e,n=s*s,o=e*e*e,i=s*s*s;return t[0]+t[1]*e+t[2]*r+t[3]*o+t[4]*s+t[5]*s*e+t[6]*s*r+t[7]*s*o+t[8]*n+t[9]*n*e+t[10]*n*r+t[11]*n*o+t[12]*i+t[13]*i*e+t[14]*i*r+t[15]*i*o},y=t=&gt;{let e=[],s=[],r=[];for(let s=0;s&lt;4;++s)e[s]=[],e[s][0]=n(t[0][s],t[1][s],t[2][s],t[3][s]),e[s][1]=[],e[s][1].push(...n(...e[s][0][0])),e[s][1].push(...n(...e[s][0][1])),e[s][2]=[],e[s][2].push(...n(...e[s][1][0])),e[s][2].push(...n(...e[s][1][1])),e[s][2].push(...n(...e[s][1][2])),e[s][2].push(...n(...e[s][1][3]));for(let t=0;t&lt;8;++t){s[t]=[];for(let r=0;r&lt;4;++r)s[t][r]=[],s[t][r][0]=n(e[0][2][t][r],e[1][2][t][r],e[2][2][t][r],e[3][2][t][r]),s[t][r][1]=[],s[t][r][1].push(...n(...s[t][r][0][0])),s[t][r][1].push(...n(...s[t][r][0][1])),s[t][r][2]=[],s[t][r][2].push(...n(...s[t][r][1][0])),s[t][r][2].push(...n(...s[t][r][1][1])),s[t][r][2].push(...n(...s[t][r][1][2])),s[t][r][2].push(...n(...s[t][r][1][3]))}for(let t=0;t&lt;8;++t){r[t]=[];for(let e=0;e&lt;8;++e)r[t][e]=[],r[t][e][0]=s[t][0][2][e],r[t][e][1]=s[t][1][2][e],r[t][e][2]=s[t][2][2][e],r[t][e][3]=s[t][3][2][e]}return r};class x{constructor(t,e){this.x=t||0,this.y=e||0}toString(){return`(x=${this.x}, y=${this.y})`}clone(){return new x(this.x,this.y)}add(t){return new x(this.x+t.x,this.y+t.y)}scale(t){return void 0===t.x?new x(this.x*t,this.y*t):new x(this.x*t.x,this.y*t.y)}distSquared(t){let e=this.x-t.x,s=this.y-t.y;return e*e+s*s}transform(t){let e=this.x*t.a+this.y*t.c+t.e,s=this.x*t.b+this.y*t.d+t.f;return new x(e,s)}}class g{constructor(t,e,s,r,n,o){void 0===t?(this.a=1,this.b=0,this.c=0,this.d=1,this.e=0,this.f=0):(this.a=t,this.b=e,this.c=s,this.d=r,this.e=n,this.f=o)}toString(){return`affine: ${this.a} ${this.c} ${this.e} \n       ${this.b} ${this.d} ${this.f}`}append(t){t instanceof g||console.error(&quot;mesh.js: argument to Affine.append is not affine!&quot;);let e=this.a*t.a+this.c*t.b,s=this.b*t.a+this.d*t.b,r=this.a*t.c+this.c*t.d,n=this.b*t.c+this.d*t.d,o=this.a*t.e+this.c*t.f+this.e,i=this.b*t.e+this.d*t.f+this.f;return new g(e,s,r,n,o,i)}}class w{constructor(t,e){this.nodes=t,this.colors=e}paintCurve(t,e){if(o(this.nodes)&gt;r){const s=n(...this.nodes);let r=[[],[]],o=[[],[]];for(let t=0;t&lt;4;++t)r[0][t]=this.colors[0][t],r[1][t]=(this.colors[0][t]+this.colors[1][t])/2,o[0][t]=r[1][t],o[1][t]=this.colors[1][t];let i=new w(s[0],r),a=new w(s[1],o);i.paintCurve(t,e),a.paintCurve(t,e)}else{let s=Math.round(this.nodes[0].x);if(s&gt;=0&amp;&amp;s&lt;e){let r=4*(~~this.nodes[0].y*e+s);t[r]=Math.round(this.colors[0][0]),t[r+1]=Math.round(this.colors[0][1]),t[r+2]=Math.round(this.colors[0][2]),t[r+3]=Math.round(this.colors[0][3])}}}}class m{constructor(t,e){this.nodes=t,this.colors=e}split(){let t=[[],[],[],[]],e=[[],[],[],[]],s=[[[],[]],[[],[]]],r=[[[],[]],[[],[]]];for(let s=0;s&lt;4;++s){const r=n(this.nodes[0][s],this.nodes[1][s],this.nodes[2][s],this.nodes[3][s]);t[0][s]=r[0][0],t[1][s]=r[0][1],t[2][s]=r[0][2],t[3][s]=r[0][3],e[0][s]=r[1][0],e[1][s]=r[1][1],e[2][s]=r[1][2],e[3][s]=r[1][3]}for(let t=0;t&lt;4;++t)s[0][0][t]=this.colors[0][0][t],s[0][1][t]=this.colors[0][1][t],s[1][0][t]=(this.colors[0][0][t]+this.colors[1][0][t])/2,s[1][1][t]=(this.colors[0][1][t]+this.colors[1][1][t])/2,r[0][0][t]=s[1][0][t],r[0][1][t]=s[1][1][t],r[1][0][t]=this.colors[1][0][t],r[1][1][t]=this.colors[1][1][t];return[new m(t,s),new m(e,r)]}paint(t,e){let s,n=!1;for(let t=0;t&lt;4;++t)if((s=o([this.nodes[0][t],this.nodes[1][t],this.nodes[2][t],this.nodes[3][t]]))&gt;r){n=!0;break}if(n){let s=this.split();s[0].paint(t,e),s[1].paint(t,e)}else{new w([...this.nodes[0]],[...this.colors[0]]).paintCurve(t,e)}}}class b{constructor(t){this.readMesh(t),this.type=t.getAttribute(&quot;type&quot;)||&quot;bilinear&quot;}readMesh(t){let e=[[]],s=[[]],r=Number(t.getAttribute(&quot;x&quot;)),n=Number(t.getAttribute(&quot;y&quot;));e[0][0]=new x(r,n);let o=t.children;for(let t=0,r=o.length;t&lt;r;++t){e[3*t+1]=[],e[3*t+2]=[],e[3*t+3]=[],s[t+1]=[];let r=o[t].children;for(let n=0,o=r.length;n&lt;o;++n){let o=r[n].children;for(let r=0,i=o.length;r&lt;i;++r){let i=r;0!==t&amp;&amp;++i;let h,d=o[r].getAttribute(&quot;path&quot;),c=&quot;l&quot;;null!=d&amp;&amp;(c=(h=d.match(/\s*([lLcC])\s*(.*)/))[1]);let u=l(h[2]);switch(c){case&quot;l&quot;:0===i?(e[3*t][3*n+3]=u[0].add(e[3*t][3*n]),e[3*t][3*n+1]=a(e[3*t][3*n],e[3*t][3*n+3]),e[3*t][3*n+2]=a(e[3*t][3*n+3],e[3*t][3*n])):1===i?(e[3*t+3][3*n+3]=u[0].add(e[3*t][3*n+3]),e[3*t+1][3*n+3]=a(e[3*t][3*n+3],e[3*t+3][3*n+3]),e[3*t+2][3*n+3]=a(e[3*t+3][3*n+3],e[3*t][3*n+3])):2===i?(0===n&amp;&amp;(e[3*t+3][3*n+0]=u[0].add(e[3*t+3][3*n+3])),e[3*t+3][3*n+1]=a(e[3*t+3][3*n],e[3*t+3][3*n+3]),e[3*t+3][3*n+2]=a(e[3*t+3][3*n+3],e[3*t+3][3*n])):(e[3*t+1][3*n]=a(e[3*t][3*n],e[3*t+3][3*n]),e[3*t+2][3*n]=a(e[3*t+3][3*n],e[3*t][3*n]));break;case&quot;L&quot;:0===i?(e[3*t][3*n+3]=u[0],e[3*t][3*n+1]=a(e[3*t][3*n],e[3*t][3*n+3]),e[3*t][3*n+2]=a(e[3*t][3*n+3],e[3*t][3*n])):1===i?(e[3*t+3][3*n+3]=u[0],e[3*t+1][3*n+3]=a(e[3*t][3*n+3],e[3*t+3][3*n+3]),e[3*t+2][3*n+3]=a(e[3*t+3][3*n+3],e[3*t][3*n+3])):2===i?(0===n&amp;&amp;(e[3*t+3][3*n+0]=u[0]),e[3*t+3][3*n+1]=a(e[3*t+3][3*n],e[3*t+3][3*n+3]),e[3*t+3][3*n+2]=a(e[3*t+3][3*n+3],e[3*t+3][3*n])):(e[3*t+1][3*n]=a(e[3*t][3*n],e[3*t+3][3*n]),e[3*t+2][3*n]=a(e[3*t+3][3*n],e[3*t][3*n]));break;case&quot;c&quot;:0===i?(e[3*t][3*n+1]=u[0].add(e[3*t][3*n]),e[3*t][3*n+2]=u[1].add(e[3*t][3*n]),e[3*t][3*n+3]=u[2].add(e[3*t][3*n])):1===i?(e[3*t+1][3*n+3]=u[0].add(e[3*t][3*n+3]),e[3*t+2][3*n+3]=u[1].add(e[3*t][3*n+3]),e[3*t+3][3*n+3]=u[2].add(e[3*t][3*n+3])):2===i?(e[3*t+3][3*n+2]=u[0].add(e[3*t+3][3*n+3]),e[3*t+3][3*n+1]=u[1].add(e[3*t+3][3*n+3]),0===n&amp;&amp;(e[3*t+3][3*n+0]=u[2].add(e[3*t+3][3*n+3]))):(e[3*t+2][3*n]=u[0].add(e[3*t+3][3*n]),e[3*t+1][3*n]=u[1].add(e[3*t+3][3*n]));break;case&quot;C&quot;:0===i?(e[3*t][3*n+1]=u[0],e[3*t][3*n+2]=u[1],e[3*t][3*n+3]=u[2]):1===i?(e[3*t+1][3*n+3]=u[0],e[3*t+2][3*n+3]=u[1],e[3*t+3][3*n+3]=u[2]):2===i?(e[3*t+3][3*n+2]=u[0],e[3*t+3][3*n+1]=u[1],0===n&amp;&amp;(e[3*t+3][3*n+0]=u[2])):(e[3*t+2][3*n]=u[0],e[3*t+1][3*n]=u[1]);break;default:console.error(&quot;mesh.js: &quot;+c+&quot; invalid path type.&quot;)}if(0===t&amp;&amp;0===n||r&gt;0){let e=window.getComputedStyle(o[r]).stopColor.match(/^rgb\s*\(\s*(\d+)\s*,\s*(\d+)\s*,\s*(\d+)\s*\)$/i),a=window.getComputedStyle(o[r]).stopOpacity,h=255;a&amp;&amp;(h=Math.floor(255*a)),e&amp;&amp;(0===i?(s[t][n]=[],s[t][n][0]=Math.floor(e[1]),s[t][n][1]=Math.floor(e[2]),s[t][n][2]=Math.floor(e[3]),s[t][n][3]=h):1===i?(s[t][n+1]=[],s[t][n+1][0]=Math.floor(e[1]),s[t][n+1][1]=Math.floor(e[2]),s[t][n+1][2]=Math.floor(e[3]),s[t][n+1][3]=h):2===i?(s[t+1][n+1]=[],s[t+1][n+1][0]=Math.floor(e[1]),s[t+1][n+1][1]=Math.floor(e[2]),s[t+1][n+1][2]=Math.floor(e[3]),s[t+1][n+1][3]=h):3===i&amp;&amp;(s[t+1][n]=[],s[t+1][n][0]=Math.floor(e[1]),s[t+1][n][1]=Math.floor(e[2]),s[t+1][n][2]=Math.floor(e[3]),s[t+1][n][3]=h))}}e[3*t+1][3*n+1]=new x,e[3*t+1][3*n+2]=new x,e[3*t+2][3*n+1]=new x,e[3*t+2][3*n+2]=new x,e[3*t+1][3*n+1].x=(-4*e[3*t][3*n].x+6*(e[3*t][3*n+1].x+e[3*t+1][3*n].x)+-2*(e[3*t][3*n+3].x+e[3*t+3][3*n].x)+3*(e[3*t+3][3*n+1].x+e[3*t+1][3*n+3].x)+-1*e[3*t+3][3*n+3].x)/9,e[3*t+1][3*n+2].x=(-4*e[3*t][3*n+3].x+6*(e[3*t][3*n+2].x+e[3*t+1][3*n+3].x)+-2*(e[3*t][3*n].x+e[3*t+3][3*n+3].x)+3*(e[3*t+3][3*n+2].x+e[3*t+1][3*n].x)+-1*e[3*t+3][3*n].x)/9,e[3*t+2][3*n+1].x=(-4*e[3*t+3][3*n].x+6*(e[3*t+3][3*n+1].x+e[3*t+2][3*n].x)+-2*(e[3*t+3][3*n+3].x+e[3*t][3*n].x)+3*(e[3*t][3*n+1].x+e[3*t+2][3*n+3].x)+-1*e[3*t][3*n+3].x)/9,e[3*t+2][3*n+2].x=(-4*e[3*t+3][3*n+3].x+6*(e[3*t+3][3*n+2].x+e[3*t+2][3*n+3].x)+-2*(e[3*t+3][3*n].x+e[3*t][3*n+3].x)+3*(e[3*t][3*n+2].x+e[3*t+2][3*n].x)+-1*e[3*t][3*n].x)/9,e[3*t+1][3*n+1].y=(-4*e[3*t][3*n].y+6*(e[3*t][3*n+1].y+e[3*t+1][3*n].y)+-2*(e[3*t][3*n+3].y+e[3*t+3][3*n].y)+3*(e[3*t+3][3*n+1].y+e[3*t+1][3*n+3].y)+-1*e[3*t+3][3*n+3].y)/9,e[3*t+1][3*n+2].y=(-4*e[3*t][3*n+3].y+6*(e[3*t][3*n+2].y+e[3*t+1][3*n+3].y)+-2*(e[3*t][3*n].y+e[3*t+3][3*n+3].y)+3*(e[3*t+3][3*n+2].y+e[3*t+1][3*n].y)+-1*e[3*t+3][3*n].y)/9,e[3*t+2][3*n+1].y=(-4*e[3*t+3][3*n].y+6*(e[3*t+3][3*n+1].y+e[3*t+2][3*n].y)+-2*(e[3*t+3][3*n+3].y+e[3*t][3*n].y)+3*(e[3*t][3*n+1].y+e[3*t+2][3*n+3].y)+-1*e[3*t][3*n+3].y)/9,e[3*t+2][3*n+2].y=(-4*e[3*t+3][3*n+3].y+6*(e[3*t+3][3*n+2].y+e[3*t+2][3*n+3].y)+-2*(e[3*t+3][3*n].y+e[3*t][3*n+3].y)+3*(e[3*t][3*n+2].y+e[3*t+2][3*n].y)+-1*e[3*t][3*n].y)/9}}this.nodes=e,this.colors=s}paintMesh(t,e){let s=(this.nodes.length-1)/3,r=(this.nodes[0].length-1)/3;if(&quot;bilinear&quot;===this.type||s&lt;2||r&lt;2){let n;for(let o=0;o&lt;s;++o)for(let s=0;s&lt;r;++s){let r=[];for(let t=3*o,e=3*o+4;t&lt;e;++t)r.push(this.nodes[t].slice(3*s,3*s+4));let i=[];i.push(this.colors[o].slice(s,s+2)),i.push(this.colors[o+1].slice(s,s+2)),(n=new m(r,i)).paint(t,e)}}else{let n,o,a,h,l,d,u;const x=s,g=r;s++,r++;let w=new Array(s);for(let t=0;t&lt;s;++t){w[t]=new Array(r);for(let e=0;e&lt;r;++e)w[t][e]=[],w[t][e][0]=this.nodes[3*t][3*e],w[t][e][1]=this.colors[t][e]}for(let t=0;t&lt;s;++t)for(let e=0;e&lt;r;++e)0!==t&amp;&amp;t!==x&amp;&amp;(n=i(w[t-1][e][0],w[t][e][0]),o=i(w[t+1][e][0],w[t][e][0]),w[t][e][2]=c(w[t-1][e][1],w[t][e][1],w[t+1][e][1],n,o)),0!==e&amp;&amp;e!==g&amp;&amp;(n=i(w[t][e-1][0],w[t][e][0]),o=i(w[t][e+1][0],w[t][e][0]),w[t][e][3]=c(w[t][e-1][1],w[t][e][1],w[t][e+1][1],n,o));for(let t=0;t&lt;r;++t){w[0][t][2]=[],w[x][t][2]=[];for(let e=0;e&lt;4;++e)n=i(w[1][t][0],w[0][t][0]),o=i(w[x][t][0],w[x-1][t][0]),w[0][t][2][e]=n&gt;0?2*(w[1][t][1][e]-w[0][t][1][e])/n-w[1][t][2][e]:0,w[x][t][2][e]=o&gt;0?2*(w[x][t][1][e]-w[x-1][t][1][e])/o-w[x-1][t][2][e]:0}for(let t=0;t&lt;s;++t){w[t][0][3]=[],w[t][g][3]=[];for(let e=0;e&lt;4;++e)n=i(w[t][1][0],w[t][0][0]),o=i(w[t][g][0],w[t][g-1][0]),w[t][0][3][e]=n&gt;0?2*(w[t][1][1][e]-w[t][0][1][e])/n-w[t][1][3][e]:0,w[t][g][3][e]=o&gt;0?2*(w[t][g][1][e]-w[t][g-1][1][e])/o-w[t][g-1][3][e]:0}for(let s=0;s&lt;x;++s)for(let r=0;r&lt;g;++r){let n=i(w[s][r][0],w[s+1][r][0]),o=i(w[s][r+1][0],w[s+1][r+1][0]),c=i(w[s][r][0],w[s][r+1][0]),x=i(w[s+1][r][0],w[s+1][r+1][0]),g=[[],[],[],[]];for(let t=0;t&lt;4;++t){(d=[])[0]=w[s][r][1][t],d[1]=w[s+1][r][1][t],d[2]=w[s][r+1][1][t],d[3]=w[s+1][r+1][1][t],d[4]=w[s][r][2][t]*n,d[5]=w[s+1][r][2][t]*n,d[6]=w[s][r+1][2][t]*o,d[7]=w[s+1][r+1][2][t]*o,d[8]=w[s][r][3][t]*c,d[9]=w[s+1][r][3][t]*x,d[10]=w[s][r+1][3][t]*c,d[11]=w[s+1][r+1][3][t]*x,d[12]=0,d[13]=0,d[14]=0,d[15]=0,u=f(d);for(let e=0;e&lt;9;++e){g[t][e]=[];for(let s=0;s&lt;9;++s)g[t][e][s]=p(u,e/8,s/8),g[t][e][s]&gt;255?g[t][e][s]=255:g[t][e][s]&lt;0&amp;&amp;(g[t][e][s]=0)}}h=[];for(let t=3*s,e=3*s+4;t&lt;e;++t)h.push(this.nodes[t].slice(3*r,3*r+4));l=y(h);for(let s=0;s&lt;8;++s)for(let r=0;r&lt;8;++r)(a=new m(l[s][r],[[[g[0][s][r],g[1][s][r],g[2][s][r],g[3][s][r]],[g[0][s][r+1],g[1][s][r+1],g[2][s][r+1],g[3][s][r+1]]],[[g[0][s+1][r],g[1][s+1][r],g[2][s+1][r],g[3][s+1][r]],[g[0][s+1][r+1],g[1][s+1][r+1],g[2][s+1][r+1],g[3][s+1][r+1]]]])).paint(t,e)}}}transform(t){if(t instanceof x)for(let e=0,s=this.nodes.length;e&lt;s;++e)for(let s=0,r=this.nodes[0].length;s&lt;r;++s)this.nodes[e][s]=this.nodes[e][s].add(t);else if(t instanceof g)for(let e=0,s=this.nodes.length;e&lt;s;++e)for(let s=0,r=this.nodes[0].length;s&lt;r;++s)this.nodes[e][s]=this.nodes[e][s].transform(t)}scale(t){for(let e=0,s=this.nodes.length;e&lt;s;++e)for(let s=0,r=this.nodes[0].length;s&lt;r;++s)this.nodes[e][s]=this.nodes[e][s].scale(t)}}document.querySelectorAll(&quot;rect,circle,ellipse,path,text&quot;).forEach((r,n)=&gt;{let o=r.getAttribute(&quot;id&quot;);o||(o=&quot;patchjs_shape&quot;+n,r.setAttribute(&quot;id&quot;,o));const i=r.style.fill.match(/^url\(\s*&quot;?\s*#([^\s&quot;]+)&quot;?\s*\)/),a=r.style.stroke.match(/^url\(\s*&quot;?\s*#([^\s&quot;]+)&quot;?\s*\)/);if(i&amp;&amp;i[1]){const a=document.getElementById(i[1]);if(a&amp;&amp;&quot;meshgradient&quot;===a.nodeName){const i=r.getBBox();let l=document.createElementNS(s,&quot;canvas&quot;);d(l,{width:i.width,height:i.height});const c=l.getContext(&quot;2d&quot;);let u=c.createImageData(i.width,i.height);const f=new b(a);&quot;objectBoundingBox&quot;===a.getAttribute(&quot;gradientUnits&quot;)&amp;&amp;f.scale(new x(i.width,i.height));const p=a.getAttribute(&quot;gradientTransform&quot;);null!=p&amp;&amp;f.transform(h(p)),&quot;userSpaceOnUse&quot;===a.getAttribute(&quot;gradientUnits&quot;)&amp;&amp;f.transform(new x(-i.x,-i.y)),f.paintMesh(u.data,l.width),c.putImageData(u,0,0);const y=document.createElementNS(t,&quot;image&quot;);d(y,{width:i.width,height:i.height,x:i.x,y:i.y});let g=l.toDataURL();y.setAttributeNS(e,&quot;xlink:href&quot;,g),r.parentNode.insertBefore(y,r),r.style.fill=&quot;none&quot;;const w=document.createElementNS(t,&quot;use&quot;);w.setAttributeNS(e,&quot;xlink:href&quot;,&quot;#&quot;+o);const m=&quot;patchjs_clip&quot;+n,M=document.createElementNS(t,&quot;clipPath&quot;);M.setAttribute(&quot;id&quot;,m),M.appendChild(w),r.parentElement.insertBefore(M,r),y.setAttribute(&quot;clip-path&quot;,&quot;url(#&quot;+m+&quot;)&quot;),u=null,l=null,g=null}}if(a&amp;&amp;a[1]){const o=document.getElementById(a[1]);if(o&amp;&amp;&quot;meshgradient&quot;===o.nodeName){const i=parseFloat(r.style.strokeWidth.slice(0,-2))*(parseFloat(r.style.strokeMiterlimit)||parseFloat(r.getAttribute(&quot;stroke-miterlimit&quot;))||1),a=r.getBBox(),l=Math.trunc(a.width+i),c=Math.trunc(a.height+i),u=Math.trunc(a.x-i/2),f=Math.trunc(a.y-i/2);let p=document.createElementNS(s,&quot;canvas&quot;);d(p,{width:l,height:c});const y=p.getContext(&quot;2d&quot;);let g=y.createImageData(l,c);const w=new b(o);&quot;objectBoundingBox&quot;===o.getAttribute(&quot;gradientUnits&quot;)&amp;&amp;w.scale(new x(l,c));const m=o.getAttribute(&quot;gradientTransform&quot;);null!=m&amp;&amp;w.transform(h(m)),&quot;userSpaceOnUse&quot;===o.getAttribute(&quot;gradientUnits&quot;)&amp;&amp;w.transform(new x(-u,-f)),w.paintMesh(g.data,p.width),y.putImageData(g,0,0);const M=document.createElementNS(t,&quot;image&quot;);d(M,{width:l,height:c,x:0,y:0});let S=p.toDataURL();M.setAttributeNS(e,&quot;xlink:href&quot;,S);const k=&quot;pattern_clip&quot;+n,A=document.createElementNS(t,&quot;pattern&quot;);d(A,{id:k,patternUnits:&quot;userSpaceOnUse&quot;,width:l,height:c,x:u,y:f}),A.appendChild(M),o.parentNode.appendChild(A),r.style.stroke=&quot;url(#&quot;+k+&quot;)&quot;,g=null,p=null,S=null}}})}();
</script>
</svg>
