<?xml version="1.0" encoding="UTF-8" standalone="no"?>
<svg
   xmlns:dc="http://purl.org/dc/elements/1.1/"
   xmlns:cc="http://creativecommons.org/ns#"
   xmlns:rdf="http://www.w3.org/1999/02/22-rdf-syntax-ns#"
   xmlns:svg="http://www.w3.org/2000/svg"
   xmlns="http://www.w3.org/2000/svg"
   xmlns:sodipodi="http://sodipodi.sourceforge.net/DTD/sodipodi-0.dtd"
   xmlns:inkscape="http://www.inkscape.org/namespaces/inkscape"
   viewBox="0 0 31.771094 13.494"
   height="51"
   width="120.08239"
   version="1.1"
   id="svg37"
   sodipodi:docname="slogo_large.svg"
   inkscape:version="1.0.2 (e86c870879, 2021-01-15)">
  <metadata
     id="metadata41">
    <rdf:RDF>
      <cc:Work
         rdf:about="">
        <dc:format>image/svg+xml</dc:format>
        <dc:type
           rdf:resource="http://purl.org/dc/dcmitype/StillImage" />
      </cc:Work>
    </rdf:RDF>
  </metadata>
  <sodipodi:namedview
     pagecolor="#ffffff"
     bordercolor="#666666"
     borderopacity="1"
     objecttolerance="10"
     gridtolerance="10"
     guidetolerance="10"
     inkscape:pageopacity="0"
     inkscape:pageshadow="2"
     inkscape:window-width="1366"
     inkscape:window-height="704"
     id="namedview39"
     showgrid="false"
     inkscape:snap-page="true"
     showguides="false"
     inkscape:zoom="3.2160398"
     inkscape:cx="66.672533"
     inkscape:cy="18.805074"
     inkscape:window-x="0"
     inkscape:window-y="0"
     inkscape:window-maximized="1"
     inkscape:current-layer="svg37"
     inkscape:document-rotation="0" />
  <defs
     id="defs27">
    <linearGradient
       id="e">
      <stop
         offset="0"
         stop-color="#ff4294"
         id="stop2" />
      <stop
         offset="1"
         stop-color="#18d1ff"
         id="stop4" />
    </linearGradient>
    <linearGradient
       id="d">
      <stop
         offset="0"
         stop-color="#0cf"
         id="stop7" />
      <stop
         offset="1"
         stop-color="#56f1ff"
         id="stop9" />
    </linearGradient>
    <linearGradient
       id="b">
      <stop
         offset="0"
         stop-color="#00d4aa"
         id="stop12" />
      <stop
         offset="1"
         stop-color="#64858d"
         id="stop14" />
    </linearGradient>
    <linearGradient
       id="c">
      <stop
         offset="0"
         stop-color="#c83771"
         id="stop17" />
      <stop
         offset="1"
         stop-color="#64858d"
         id="stop19" />
    </linearGradient>
    <linearGradient
       id="a">
      <stop
         offset="0"
         stop-color="#00d4aa"
         id="stop22" />
      <stop
         offset="1"
         stop-color="#c83771"
         id="stop24" />
    </linearGradient>
  </defs>
  <rect
     style="fill:#ff66ff;fill-opacity:1;stroke:none;stroke-width:0.686297;stroke-linecap:round;stroke-miterlimit:4;stroke-dasharray:none;stroke-opacity:1;paint-order:markers stroke fill;stop-color:#000000"
     id="rect1628"
     width="20.116997"
     height="2.9612627"
     x="1.0875973"
     y="9.0503063" />
  <rect
     style="fill:#22ccff;fill-opacity:1;stroke:none;stroke-width:0.832014;stroke-linecap:round;stroke-miterlimit:4;stroke-dasharray:none;stroke-opacity:1;paint-order:markers stroke fill;stop-color:#000000"
     id="rect1630"
     width="29.566648"
     height="2.9612627"
     x="1.0875973"
     y="3.1270332" />
  <path
     d="m 3.6481515,6.4636193 q -0.545065,0 -0.984523,-0.1907678 Q 2.2275765,6.0786679 1.9448235,5.7209708 1.6654785,5.359862 1.5905315,4.8624934 l 0.96749,-0.1430827 q 0.1022,0.4224252 0.422426,0.6506759 0.320225,0.2282465 0.729024,0.2282465 0.228245,0 0.442865,-0.071541 0.214619,-0.071541 0.350886,-0.2112174 0.139672,-0.1396714 0.139672,-0.3440704 0,-0.074943 -0.02385,-0.1430782 -0.02044,-0.071541 -0.07154,-0.1328576 -0.0511,-0.061321 -0.146487,-0.1158289 -0.09198,-0.054503 -0.235059,-0.098791 L 2.8918695,4.1062177 Q 2.7487905,4.0653647 2.5580175,3.9903888 2.3706515,3.9154408 2.1935045,3.7757698 2.0163595,3.6360983 1.8971265,3.4078522 1.7813005,3.176199 1.7813005,2.8253106 q 0,-0.493962 0.248686,-0.8210034 0.248685,-0.3270413 0.664297,-0.487153 0.415612,-0.1601117 0.919797,-0.156705 0.507592,0.00679 0.90617,0.1737386 0.398578,0.1669252 0.667705,0.4871531 0.269126,0.3168166 0.388358,0.7767158 l -1.001556,0.170332 q -0.05451,-0.238462 -0.200993,-0.4019849 -0.146486,-0.1635184 -0.350886,-0.2486867 -0.200992,-0.085164 -0.422425,-0.091977 -0.218026,-0.00679 -0.412205,0.061321 -0.190773,0.064723 -0.313412,0.1907722 -0.119233,0.1260444 -0.119233,0.299783 0,0.1601119 0.09879,0.2623137 0.09879,0.098791 0.248685,0.1601114 0.149894,0.061321 0.3066,0.1022018 l 0.851663,0.2316487 q 0.190773,0.051105 0.422425,0.1362734 0.231653,0.081757 0.442866,0.2316487 0.214619,0.1464894 0.350886,0.3883576 0.139672,0.2418778 0.139672,0.6131975 0,0.3951714 -0.166926,0.6915522 -0.16352,0.2929741 -0.442865,0.4871531 -0.279346,0.1907769 -0.633638,0.2861608 -0.350886,0.095384 -0.725618,0.095384 z"
     style="font-style:normal;font-variant:normal;font-weight:800;font-stretch:normal;font-size:23.1298px;line-height:0.95;font-family:Manrope;-inkscape-font-specification:'Manrope Ultra-Bold';letter-spacing:-0.955146px;fill:#000000;fill-opacity:1;stroke-width:0.170333"
     id="path839" />
  <path
     d="m 7.2186395,6.4636193 q -0.395172,0 -0.671111,-0.1498869 Q 6.2749965,6.1604293 6.1319165,5.908336 5.9922435,5.6528361 5.9922435,5.3462394 q 0,-0.2554999 0.07835,-0.4667172 0.07835,-0.2112078 0.252093,-0.3713197 Q 6.4998325,4.3446844 6.7962105,4.2356688 7.0006104,4.1607208 7.2833632,4.1028066 7.566115,4.0448966 7.923814,3.9937956 8.281513,3.9392876 8.7107514,3.874565 L 8.3768991,4.058519 q 0,-0.3270367 -0.1567061,-0.4803348 -0.1567062,-0.1532986 -0.5246242,-0.1532986 -0.2043999,0 -0.4258327,0.098791 -0.2214324,0.098795 -0.3100052,0.3508888 L 6.1216965,3.6088401 q 0.139673,-0.4564882 0.524625,-0.7426487 0.3849524,-0.2861606 1.0492503,-0.2861606 0.4871509,0 0.8652898,0.149896 0.378139,0.1498915 0.572318,0.517809 0.1090128,0.2043991 0.1294533,0.4087985 0.020435,0.204399 0.020435,0.4564968 v 2.248391 H 8.4722842 V 5.6051465 L 8.5881104,5.7618513 Q 8.3189847,6.1331755 8.0055724,6.3001007 7.6955672,6.4636193 7.218635,6.4636193 Z M 7.4162252,5.7345929 q 0.2554999,0 0.429239,-0.08857 0.1771461,-0.091982 0.2793461,-0.2078061 0.1056057,-0.1158289 0.143079,-0.194179 0.07154,-0.149896 0.08176,-0.3474772 0.013627,-0.2009923 0.013627,-0.3338546 L 8.6358086,4.63084 Q 8.223603,4.69897 7.968104,4.7466689 7.7126051,4.7909369 7.5558984,4.8284259 7.3991928,4.8659089 7.2799599,4.9101879 7.1436933,4.9646909 7.0585271,5.0294185 q -0.08176,0.061321 -0.1226395,0.1362693 -0.037474,0.074944 -0.037474,0.1669207 0,0.1260489 0.061321,0.2180307 0.064726,0.088575 0.1805524,0.1362644 0.1158266,0.04769 0.2759382,0.047689 z"
     style="font-style:normal;font-variant:normal;font-weight:800;font-stretch:normal;font-size:23.1298px;line-height:0.95;font-family:Manrope;-inkscape-font-specification:'Manrope Ultra-Bold';letter-spacing:-0.955146px;fill:#000000;fill-opacity:1;stroke-width:0.170333"
     id="path841" />
  <path
     d="M 12.506073,6.3614221 V 4.6240268 q 0,-0.1260489 -0.01363,-0.3202279 -0.01363,-0.1975811 -0.08517,-0.3951713 -0.07154,-0.1975857 -0.235059,-0.3304434 -0.160113,-0.1328627 -0.456492,-0.1328627 -0.119232,0 -0.255499,0.037482 -0.136266,0.037482 -0.255499,0.1464894 -0.119233,0.1056039 -0.197586,0.313405 -0.07495,0.2078107 -0.07495,0.5518812 L 10.400761,4.2424862 q 0,-0.4360477 0.177146,-0.8175969 0.177145,-0.3815443 0.531438,-0.6165995 0.357699,-0.2350643 0.899357,-0.2350643 0.432645,0 0.705177,0.1464848 0.272533,0.1464893 0.422426,0.3713289 0.153299,0.2248395 0.218026,0.4701194 0.06473,0.2418687 0.07835,0.4428656 0.01363,0.2009878 0.01363,0.2929696 v 2.0644365 z m -2.5141109,0 V 2.6822326 h 0.8244099 v 1.2195816 h 0.115827 v 2.4596079 z"
     style="font-style:normal;font-variant:normal;font-weight:800;font-stretch:normal;font-size:23.1298px;line-height:0.95;font-family:Manrope;-inkscape-font-specification:'Manrope Ultra-Bold';letter-spacing:-0.955146px;fill:#000000;fill-opacity:1;stroke-width:0.170333"
     id="path843" />
  <path
     d="m 16.369535,6.3614221 q -0.381546,0.071536 -0.749464,0.061316 -0.364513,-0.00679 -0.654078,-0.1260443 -0.286159,-0.1226377 -0.436052,-0.3917647 -0.136266,-0.2520933 -0.143079,-0.5110003 -0.0068,-0.2623087 -0.0068,-0.592757 V 1.6602369 h 0.926611 v 3.0864322 q 0,0.2146149 0.0034,0.3883534 0.0068,0.1703365 0.07154,0.2725337 0.122639,0.194179 0.391765,0.2112124 0.269126,0.017033 0.596165,-0.027281 z M 13.753224,3.3976318 V 2.6822326 h 2.616311 v 0.7153992 z"
     style="font-style:normal;font-variant:normal;font-weight:800;font-stretch:normal;font-size:23.1298px;line-height:0.95;font-family:Manrope;-inkscape-font-specification:'Manrope Ultra-Bold';letter-spacing:-0.955146px;fill:#000000;fill-opacity:1;stroke-width:0.170333"
     id="path845" />
  <path
     d="M 16.973899,2.1712325 V 1.3536359 h 0.92661 v 0.8175966 z m 0,4.1901896 V 2.6822326 h 0.92661 v 3.6791895 z"
     style="font-style:normal;font-variant:normal;font-weight:800;font-stretch:normal;font-size:23.1298px;line-height:0.95;font-family:Manrope;-inkscape-font-specification:'Manrope Ultra-Bold';letter-spacing:-0.955146px;fill:#000000;fill-opacity:1;stroke-width:0.170333"
     id="path847" />
  <path
     d="m 19.663142,6.4636193 q -0.395172,0 -0.671111,-0.1498869 Q 18.719499,6.1604293 18.576419,5.908336 18.436746,5.6528361 18.436746,5.3462394 q 0,-0.2554999 0.07835,-0.4667172 0.07835,-0.2112078 0.252094,-0.3713197 0.177146,-0.1635181 0.473525,-0.2725337 0.204399,-0.074948 0.487152,-0.1328622 0.282752,-0.05791 0.640451,-0.109011 0.357699,-0.054508 0.786937,-0.1192306 l -0.333852,0.183954 q 0,-0.3270367 -0.156706,-0.4803348 -0.156707,-0.1532986 -0.524625,-0.1532986 -0.204399,0 -0.425833,0.098791 -0.221431,0.098795 -0.310005,0.3508888 L 18.566199,3.6088401 q 0.139673,-0.4564882 0.524625,-0.7426487 0.384952,-0.2861606 1.04925,-0.2861606 0.487152,0 0.865291,0.149896 0.378138,0.1498915 0.572317,0.517809 0.109014,0.2043991 0.129453,0.4087985 0.02044,0.204399 0.02044,0.4564968 v 2.248391 H 20.916787 V 5.6051465 l 0.115826,0.1567048 Q 20.763487,6.1331755 20.450075,6.3001007 20.14007,6.4636193 19.663138,6.4636193 Z m 0.197586,-0.7290264 q 0.2555,0 0.429239,-0.08857 0.177145,-0.091982 0.279346,-0.2078061 0.105605,-0.1158289 0.143078,-0.194179 0.07154,-0.149896 0.08176,-0.3474772 0.01363,-0.2009923 0.01363,-0.3338546 l 0.272533,0.068134 q -0.412205,0.06813 -0.667705,0.1158289 -0.255498,0.044268 -0.412205,0.081757 -0.156706,0.037483 -0.275939,0.081762 -0.136266,0.054503 -0.221432,0.1192306 -0.08176,0.061321 -0.12264,0.1362693 -0.03747,0.074944 -0.03747,0.1669207 0,0.1260489 0.06132,0.2180307 0.06473,0.088575 0.180553,0.1362644 0.115826,0.04769 0.275939,0.04769 z"
     style="font-style:normal;font-variant:normal;font-weight:800;font-stretch:normal;font-size:23.1298px;line-height:0.95;font-family:Manrope;-inkscape-font-specification:'Manrope Ultra-Bold';letter-spacing:-0.955146px;fill:#000000;fill-opacity:1;stroke-width:0.170333"
     id="path849" />
  <path
     d="m 24.017155,8.0988169 q -0.313414,0 -0.596167,-0.1021972 Q 23.138238,7.8978247 22.913396,7.7172726 22.691964,7.5401224 22.552291,7.3016563 L 23.41077,6.8860445 q 0.08857,0.1635231 0.252091,0.2486911 0.166926,0.085159 0.361108,0.085159 0.207806,0 0.391767,-0.071536 0.183961,-0.068135 0.292972,-0.2078066 0.112422,-0.1362643 0.105609,-0.3406638 V 5.5301985 h 0.115824 V 2.6822326 h 0.810785 v 3.9312827 q 0,0.1362644 -0.01364,0.2554999 -0.01023,0.1226377 -0.04088,0.2418733 -0.08857,0.3372526 -0.330446,0.5552832 -0.238465,0.2180257 -0.585944,0.3236301 -0.347479,0.1090151 -0.752873,0.1090151 z m -0.08176,-1.6351976 q -0.507594,0 -0.889139,-0.2554958 Q 22.66471,5.9526236 22.450093,5.5131647 22.238879,5.0737058 22.238879,4.5218296 q 0,-0.5621011 0.214619,-0.9981534 0.218026,-0.4394589 0.609793,-0.6915521 0.391764,-0.2520933 0.919798,-0.2520933 0.524626,0 0.882326,0.2555001 0.357698,0.2555002 0.541658,0.6949591 0.183958,0.4394584 0.183958,0.9913396 0,0.5518762 -0.187366,0.9913351 -0.183957,0.4394589 -0.551876,0.6949588 -0.367919,0.2554958 -0.916394,0.2554958 z m 0.149894,-0.8244057 q 0.310007,0 0.493968,-0.1396756 0.187366,-0.139676 0.269123,-0.3917647 0.08176,-0.2520937 0.08176,-0.5859437 0,-0.3338505 -0.08176,-0.5859483 -0.08176,-0.2520932 -0.262309,-0.3917647 -0.177148,-0.1396714 -0.466715,-0.1396714 -0.310009,0 -0.511002,0.1532986 -0.197584,0.1498914 -0.292972,0.4053913 -0.09539,0.2520933 -0.09539,0.5586945 0,0.3100029 0.09198,0.5655033 0.09198,0.2520887 0.28275,0.4019847 0.190774,0.149896 0.490562,0.149896 z"
     style="font-style:normal;font-variant:normal;font-weight:800;font-stretch:normal;font-size:23.1298px;line-height:0.95;font-family:Manrope;-inkscape-font-specification:'Manrope Ultra-Bold';letter-spacing:-0.955146px;fill:#000000;fill-opacity:1;stroke-width:0.170333"
     id="path851" />
  <path
     d="m 28.069055,6.4636193 q -0.555285,0 -0.974303,-0.248682 -0.419016,-0.2486866 -0.654076,-0.6847388 -0.231655,-0.439459 -0.231655,-1.0083689 0,-0.5757283 0.238468,-1.0117801 0.238465,-0.4394543 0.657482,-0.6847388 0.41902,-0.2452799 0.964084,-0.2452799 0.555286,0 0.974304,0.2486866 0.422425,0.2486865 0.657485,0.6881455 0.23506,0.4360522 0.23506,1.0049667 0,0.5723121 -0.238468,1.0117755 -0.23506,0.4360523 -0.657483,0.6847343 -0.419021,0.2452799 -0.970898,0.2452799 z m 0,-0.8652862 q 0.446271,0 0.664299,-0.2997924 0.22143,-0.3031896 0.22143,-0.7767111 0,-0.4905598 -0.224838,-0.7835339 -0.221433,-0.2929742 -0.660891,-0.2929742 -0.303193,0 -0.497373,0.1362648 -0.194176,0.1362689 -0.289564,0.3781422 -0.09198,0.2418732 -0.09198,0.5621011 0,0.4939619 0.22143,0.7869361 0.224841,0.2895674 0.657485,0.2895674 z"
     style="font-style:normal;font-variant:normal;font-weight:800;font-stretch:normal;font-size:23.1298px;line-height:0.95;font-family:Manrope;-inkscape-font-specification:'Manrope Ultra-Bold';letter-spacing:-0.955146px;fill:#000000;fill-opacity:1;stroke-width:0.170333"
     id="path853" />
  <path
     d="m 4.1785935,12.297346 q -0.735838,0 -1.270683,-0.320224 -0.531437,-0.320228 -0.821003,-0.895951 -0.286159,-0.575728 -0.286159,-1.3388216 0,-0.7630844 0.286159,-1.3388168 0.289566,-0.5757191 0.821003,-0.895947 0.534845,-0.3202234 1.270683,-0.3202234 0.84485,0 1.417168,0.4190185 0.575726,0.4190139 0.810784,1.1344132 L 5.4731225,8.9997054 Q 5.3368565,8.5534286 5.0132245,8.3081533 4.6895925,8.0594622 4.1785935,8.0594622 q -0.466712,0 -0.780124,0.2078102 -0.310006,0.2078057 -0.466712,0.5859437 -0.156706,0.3781376 -0.156706,0.8891333 0,0.5110056 0.156706,0.8891426 0.156706,0.378137 0.466712,0.585948 0.313412,0.207801 0.780124,0.207801 0.510999,0 0.834631,-0.248682 0.323632,-0.248686 0.459898,-0.691552 l 0.933423,0.258902 q -0.235058,0.7154 -0.810784,1.134418 -0.572318,0.419019 -1.417168,0.419019 z"
     style="font-style:normal;font-variant:normal;font-weight:800;font-stretch:normal;font-size:23.1298px;line-height:0.95;font-family:Manrope;-inkscape-font-specification:'Manrope Ultra-Bold';letter-spacing:-0.955146px;fill:#000000;fill-opacity:1;stroke-width:0.170333"
     id="path855" />
  <path
     d="M 9.0643349,8.0049587 H 8.1513508 L 8.4102574,7.1873622 H 9.323241 Z M 8.6078431,12.297346 q -0.5655051,0 -0.9981503,-0.241874 -0.429238,-0.24528 -0.6745174,-0.671111 -0.2418719,-0.429235 -0.2418719,-0.98111 0,-0.6029828 0.2384652,-1.0492551 0.2384661,-0.4462722 0.6574842,-0.6915521 0.4190189,-0.2486866 0.9640835,-0.2486866 0.5791318,0 0.9845231,0.2725337 0.4053928,0.2725337 0.5995725,0.7665001 0.194179,0.4939616 0.136265,1.161667 H 9.3573072 v -0.340663 q 0,-0.5621015 -0.1805528,-0.8073768 Q 8.9996082,9.217727 8.5942164,9.217727 q -0.4735251,0 -0.6983641,0.2895716 -0.2214328,0.2861562 -0.2214328,0.8482574 0,0.514402 0.2214328,0.797151 0.224839,0.279348 0.6574841,0.279348 0.2725328,0 0.4667118,-0.119231 0.1941795,-0.119236 0.296379,-0.344071 l 0.9266108,0.265716 q -0.207806,0.504187 -0.6574851,0.783529 -0.4462718,0.279348 -0.9777098,0.279348 z M 7.3882605,10.614458 V 9.9263125 h 2.4391651 v 0.6881455 z"
     style="font-style:normal;font-variant:normal;font-weight:800;font-stretch:normal;font-size:23.1298px;line-height:0.95;font-family:Manrope;-inkscape-font-specification:'Manrope Ultra-Bold';letter-spacing:-0.955146px;fill:#000000;fill-opacity:1;stroke-width:0.170333"
     id="path857" />
  <path
     d="M 10.362503,12.195148 V 12.079324 L 12.16803,9.3199334 H 10.566902 V 8.515959 h 3.031923 v 0.1158289 l -1.798714,2.7593861 h 1.730581 v 0.803974 z"
     style="font-style:normal;font-variant:normal;font-weight:800;font-stretch:normal;font-size:23.1298px;line-height:0.95;font-family:Manrope;-inkscape-font-specification:'Manrope Ultra-Bold';letter-spacing:-0.955146px;fill:#000000;fill-opacity:1;stroke-width:0.170333"
     id="path859" />
  <path
     d="m 15.162874,12.297346 q -0.395172,0 -0.671111,-0.149892 -0.272533,-0.153299 -0.415612,-0.405387 -0.139673,-0.255505 -0.139673,-0.562106 0,-0.255495 0.07835,-0.466712 0.07835,-0.211208 0.252093,-0.371324 0.177146,-0.163518 0.473525,-0.272534 0.204399,-0.07494 0.487152,-0.132858 0.282752,-0.05791 0.640451,-0.109011 0.357699,-0.054508 0.786937,-0.1192397 l -0.33385,0.1839631 q 0,-0.3270367 -0.156706,-0.4803353 -0.156706,-0.1533026 -0.524625,-0.1533026 -0.204399,0 -0.425832,0.098795 -0.221432,0.09879 -0.310006,0.3508797 L 14.065931,9.4425665 q 0.139673,-0.4564927 0.524625,-0.7426531 0.384951,-0.2861562 1.04925,-0.2861562 0.487151,0 0.86529,0.149896 0.378139,0.1498914 0.572318,0.517809 0.109013,0.204399 0.129453,0.4087985 0.02044,0.204399 0.02044,0.4564919 v 2.2483954 h -0.810788 v -0.756275 l 0.115826,0.1567 q -0.269126,0.371329 -0.582538,0.538254 -0.310006,0.163519 -0.786938,0.163519 z m 0.197585,-0.729022 q 0.2555,0 0.429239,-0.08857 0.177146,-0.09199 0.279346,-0.20781 0.105606,-0.115829 0.14308,-0.194179 0.07154,-0.149891 0.08176,-0.347477 0.01363,-0.200997 0.01363,-0.33385 l 0.272533,0.06813 q -0.412206,0.06813 -0.667704,0.115824 -0.255499,0.04431 -0.412205,0.08176 -0.156707,0.03748 -0.275939,0.08176 -0.136267,0.05451 -0.221433,0.119235 -0.08176,0.06132 -0.12264,0.136264 -0.03747,0.07495 -0.03747,0.166926 0,0.126048 0.06132,0.218026 0.06473,0.08857 0.180553,0.136268 0.115827,0.0477 0.275939,0.0477 z"
     style="font-style:normal;font-variant:normal;font-weight:800;font-stretch:normal;font-size:23.1298px;line-height:0.95;font-family:Manrope;-inkscape-font-specification:'Manrope Ultra-Bold';letter-spacing:-0.955146px;fill:#000000;fill-opacity:1;stroke-width:0.170333"
     id="path861" />
  <path
     d="M 17.83167,12.195148 V 8.515959 h 0.817597 v 0.8993537 l -0.08857,-0.1158243 q 0.07154,-0.1907769 0.190772,-0.3474772 0.119233,-0.1567052 0.292973,-0.258907 0.132859,-0.081757 0.289565,-0.1260489 0.156706,-0.047694 0.323633,-0.057914 0.166926,-0.013663 0.333851,0.00679 V 9.381222 Q 19.838192,9.333528 19.633793,9.350571 19.4328,9.364234 19.269281,9.442548 q -0.16352,0.074948 -0.27594,0.2009969 -0.112419,0.1226422 -0.170332,0.2929696 -0.05791,0.1669305 -0.05791,0.3781425 v 1.880473 z"
     style="font-style:normal;font-variant:normal;font-weight:800;font-stretch:normal;font-size:23.1298px;line-height:0.95;font-family:Manrope;-inkscape-font-specification:'Manrope Ultra-Bold';letter-spacing:-0.955146px;fill:#000000;fill-opacity:1;stroke-width:0.170333"
     id="path863" />
</svg>
