<?xml version="1.0" encoding="UTF-8" standalone="no"?>
<svg
   xmlns:dc="http://purl.org/dc/elements/1.1/"
   xmlns:cc="http://creativecommons.org/ns#"
   xmlns:rdf="http://www.w3.org/1999/02/22-rdf-syntax-ns#"
   xmlns:svg="http://www.w3.org/2000/svg"
   xmlns="http://www.w3.org/2000/svg"
   xmlns:sodipodi="http://sodipodi.sourceforge.net/DTD/sodipodi-0.dtd"
   xmlns:inkscape="http://www.inkscape.org/namespaces/inkscape"
   width="34"
   height="16"
   viewBox="0 0 8.996 4.233"
   version="1.1"
   id="svg8"
   sodipodi:docname="underline.svg"
   inkscape:version="1.0.2 (e86c870879, 2021-01-15)">
  <metadata
     id="metadata14">
    <rdf:RDF>
      <cc:Work
         rdf:about="">
        <dc:format>image/svg+xml</dc:format>
        <dc:type
           rdf:resource="http://purl.org/dc/dcmitype/StillImage" />
      </cc:Work>
    </rdf:RDF>
  </metadata>
  <defs
     id="defs12" />
  <sodipodi:namedview
     pagecolor="#ffffff"
     bordercolor="#666666"
     borderopacity="1"
     objecttolerance="10"
     gridtolerance="10"
     guidetolerance="10"
     inkscape:pageopacity="0"
     inkscape:pageshadow="2"
     inkscape:window-width="1366"
     inkscape:window-height="704"
     id="namedview10"
     showgrid="false"
     inkscape:zoom="14.497283"
     inkscape:cx="15.656865"
     inkscape:cy="12.240645"
     inkscape:window-x="0"
     inkscape:window-y="0"
     inkscape:window-maximized="1"
     inkscape:current-layer="g6" />
  <g
     paint-order="markers stroke fill"
     id="g6">
    <path
       d="M1.874 2.49l.187.188.938.935c.828.827 2.17.827 2.998 0l.937-.935.188-.187-.188-.187-.374-.374-.188-.187-.187.187-.937.935a1.062 1.062 0 01-1.5 0l-.937-.935-.187-.187-.188.187-.375.374z"
       fill="#ff4294"
       id="path2"
       style="fill:#ff88ff;fill-opacity:1" />
    <path
       d="M0 0v1.058c.271 0 .543.104.75.31l.937.936.187.187.187-.187.375-.374.188-.187-.188-.187L1.5.62A2.116 2.116 0 000 0zM8.996 0v1.058c-.272 0-.543.104-.75.31l-.937.936-.187.187-.188-.187-.374-.374-.188-.187.188-.188.937-.935C7.91.207 8.453 0 8.996 0z"
       fill="#18d1ff"
       id="path4"
       style="fill:#22ccff;fill-opacity:1" />
  </g>
</svg>
