<svg xmlns="http://www.w3.org/2000/svg" width="34" height="16" viewBox="0 0 8.996 4.233"><g paint-order="markers stroke fill"><path d="M1.874 2.49l.187.188.938.935c.828.827 2.17.827 2.998 0l.937-.935.188-.187-.188-.187-.374-.374-.188-.187-.187.187-.937.935a1.062 1.062 0 01-1.5 0l-.937-.935-.187-.187-.188.187-.375.374z" fill="#ff4294"/><path d="M0 0v1.058c.271 0 .543.104.75.31l.937.936.187.187.187-.187.375-.374.188-.187-.188-.187L1.5.62A2.116 2.116 0 000 0zM8.996 0v1.058c-.272 0-.543.104-.75.31l-.937.936-.187.187-.188-.187-.374-.374-.188-.187.188-.188.937-.935C7.91.207 8.453 0 8.996 0z" fill="#18d1ff"/></g></svg>